<?xml version="1.0" standalone="no"?>
<!DOCTYPE svg PUBLIC "-//W3C//DTD SVG 1.1//EN" "http://www.w3.org/Graphics/SVG/1.1/DTD/svg11.dtd">
<svg xmlns="http://www.w3.org/2000/svg">
<defs >
<font id="BonaNova" horiz-adv-x="563" ><font-face
    font-family="Bona Nova"
    units-per-em="1000"
    panose-1="0 0 0 0 0 0 0 0 0 0"
    ascent="932"
    descent="-268"
    alphabetic="0" />
<glyph unicode=" " glyph-name="space" horiz-adv-x="270" />
<glyph unicode="!" glyph-name="exclam" horiz-adv-x="225" d="M101 220Q97 359 83 465T46 665L209 707Q209 593 192 472T129 220H101ZM113 -15Q76 -15 51 10T26 71Q26 106 51 132T113 158Q149 158 174 132T199 71Q199 36 174 11T113 -15Z" />
<glyph unicode="&quot;" glyph-name="quotedbl" horiz-adv-x="343" d="M158 680Q149 614 135 539T98 375H75Q53 464 39 539T15 680Q53 688 86 688T158 680ZM328 680Q319 614 305 539T268 375H245Q223 464 209 539T185 680Q223 688 256 688T328 680Z" />
<glyph unicode="#" glyph-name="numbersign" horiz-adv-x="550" d="M506 200L495 140H396L371 0H311L336 140H156L131 0H71L96 140H-5L6 200H106L144 415H44L55 475H154L179 615H239L214 475H394L419 615H479L454 475H555L544 415H444L406 200H506ZM166 200H346L384
415H204L166 200Z" />
<glyph unicode="$" glyph-name="dollar" horiz-adv-x="533" d="M310 644L359 639L342 536Q368 533 391 527T438 513V375H415Q400 427 378 452T334 486L310 336Q348 318 386 297T451 243T477 161Q477 113 451 73T374 9T253 -15L236 -121L187 -115L204 -13Q171 -9
139 2T85 36T63 100Q63 119 70 145T98 200H121Q123 145 145 99T212 37L238 200Q201 219 163 241T99 296T73 382Q73 437 103 472T181 523T287 540Q290 540 293 540L310 644ZM207 432Q207 408 223 391T264 359L286 495Q247 494 227 476T207 432ZM337 100Q337 125
322 143T284 175L260 30Q298 33 317 53T337 100Z" />
<glyph unicode="%" glyph-name="percent" horiz-adv-x="853" d="M596 575L636 553L265 -32L225 -10L596 575ZM198 543Q244 543 280 523T338 466T360 380Q360 333 339 296T282 237T198 215Q153 215 116 235T58 293T36 378Q36 425 57 462T114 521T198 543ZM200 241Q224
241 236 272T248 371Q248 405 244 438T229 494T196 517Q172 517 160 486T148 387Q148 353 152 320T167 264T200 241ZM655 313Q701 313 737 293T795 236T817 150Q817 103 796 66T739 7T655 -15Q610 -15 573 5T515 63T493 148Q493 195 514 232T571 291T655 313ZM657
11Q681 11 693 42T705 141Q705 175 701 208T686 264T653 287Q629 287 617 256T605 157Q605 123 609 90T624 34T657 11Z" />
<glyph unicode="&amp;" glyph-name="ampersand" horiz-adv-x="798" d="M566 408H753V385Q708 384 686 371T658 328Q646 247 614 182Q633 154 652 123Q679 80 702 59T747 30T793 23V0Q774 -9 755 -12T718 -15Q666 -15 611 -2T513 56Q470 22 416 4T297 -15Q231 -15
177 6T90 67T58 168Q58 221 79 258T136 322T213 369Q178 399 158 432T137 516Q137 568 166 604T241 660T339 680Q388 680 432 666T504 623T533 545Q533 510 515 486T466 444T400 415Q437 386 482 342T579 230Q590 251 598 276T610 332Q614 360 603 372T566 385V408ZM277
559Q277 522 298 500T356 449Q398 491 398 559Q398 575 393 592T374 622T337 635Q315 635 302 623T283 593T277 559ZM212 219Q212 167 251 131T352 95Q380 95 409 101T467 120Q413 199 360 247T261 330Q258 332 256 334T250 339Q232 316 222 287T212 219Z" />
<glyph unicode="&apos;" glyph-name="quotesingle" horiz-adv-x="173" d="M158 680Q149 614 135 539T98 375H75Q53 464 39 539T15 680Q53 688 86 688T158 680Z" />
<glyph unicode="(" glyph-name="parenleft" horiz-adv-x="318" d="M315 740Q256 646 225 536T193 292Q193 159 224 34T315 -185L290 -199Q211 -134 160 -54T83 114T58 292Q58 426 114 541T290 754L315 740Z" />
<glyph unicode=")" glyph-name="parenright" horiz-adv-x="290" d="M3 740L28 754Q147 657 203 542T260 292Q260 203 235 115T159 -54T28 -199L3 -185Q62 -91 93 34T125 292Q125 426 94 536T3 740Z" />
<glyph unicode="*" glyph-name="asterisk" horiz-adv-x="424" d="M404 577L270 508L338 373L319 359L212 465L105 359L86 373L154 508L20 577L27 599L177 576L201 725H223L247 576L397 599L404 577Z" />
<glyph unicode="+" glyph-name="plus" horiz-adv-x="600" d="M275 25V205H95V255H275V435H325V255H505V205H325V25H275Z" />
<glyph unicode="," glyph-name="comma" horiz-adv-x="199" d="M153 163Q164 135 168 105T173 54Q173 3 149 -42T85 -119T-7 -162V-133Q13 -121 25 -98T44 -47T51 2Q51 17 47 45T30 102Q53 127 86 144T153 163Z" />
<glyph unicode="-" glyph-name="hyphen" horiz-adv-x="361" d="M339 212L29 185L22 266L332 293L339 212Z" />
<glyph unicode="." glyph-name="period" horiz-adv-x="225" d="M113 -15Q76 -15 51 10T26 71Q26 106 51 132T113 158Q149 158 174 132T199 71Q199 36 174 11T113 -15Z" />
<glyph unicode="/" glyph-name="slash" horiz-adv-x="381" d="M326 790H381L55 -150H0L326 790Z" />
<glyph unicode="0" glyph-name="zero" horiz-adv-x="532" d="M268 475Q327 475 379 446T463 362T496 233Q496 158 464 103T378 16T264 -15Q205 -15 153 14T69 98T36 228Q36 303 68 358T154 444T268 475ZM269 130Q359 130 402 162T446 231Q446 271 400 300T263
330Q174 330 130 301T86 233Q86 193 133 162T269 130Z" />
<glyph unicode="1" glyph-name="one" horiz-adv-x="438" d="M310 110Q310 73 316 55T344 30T410 23V0H60V23Q105 24 126 30T154 54T160 110V351L68 293L47 325L269 470H317Q313 451 312 432T310 394V110Z" />
<glyph unicode="2" glyph-name="two" horiz-adv-x="490" d="M432 175H455L445 0H33V23Q42 28 58 38T91 60Q147 100 179 137T228 206T248 264T253 305Q253 334 237 352T182 370Q149 370 121 354T59 299L40 315Q74 389 131 432T270 475Q341 475 377 443T413 352Q413
277 362 223T227 123V120H327Q384 120 406 134T432 175Z" />
<glyph unicode="3" glyph-name="three" horiz-adv-x="508" d="M250 168V165Q282 165 320 156T392 125T448 70T470 -14Q470 -65 445 -107T378 -178T283 -224T173 -240Q147 -240 113 -236T46 -220T-13 -189Q-5 -123 31 -76Q64 -135 102 -166T184 -197Q227 -197 254
-174T296 -115T310 -39Q310 43 251 77T91 85V123Q158 147 196 176T250 237T266 294Q266 330 247 350T188 370Q154 370 117 351T42 289L23 305Q45 352 77 390T156 452T263 475Q334 475 377 443T421 350Q421 317 405 283T351 219T250 168Z" />
<glyph unicode="4" glyph-name="four" horiz-adv-x="559" d="M161 120H316V302H313L161 120ZM458 -225L310 -240Q312 -198 314 -136T316 0H18V23Q32 36 43 49T64 75L363 431Q375 445 386 460T409 493H457L456 120H526V0H484Q468 0 462 -11T456 -40Q456 -86 456
-133T458 -225Z" />
<glyph unicode="5" glyph-name="five" horiz-adv-x="484" d="M433 465L416 330H108L101 270Q272 242 359 176T446 10Q446 -64 409 -120T308 -208T167 -240Q129 -240 80 -229T-8 -189Q0 -123 36 -76Q67 -131 105 -164T187 -197Q250 -197 280 -158T311 -67Q311 17
244 67T39 135L82 460H357Q381 460 399 461T433 465Z" />
<glyph unicode="6" glyph-name="six" horiz-adv-x="566" d="M447 660Q196 566 196 269Q196 200 208 146T241 60T291 28Q328 28 351 81T375 216Q375 296 352 334T288 373Q278 373 267 371T246 364L230 380Q253 404 282 418T353 433Q430 433 480 382T530 235Q530
170 507 123T446 46T364 0T278 -15Q216 -15 161 16T71 110T36 262Q36 347 68 418T157 545T288 638T447 690V660Z" />
<glyph unicode="7" glyph-name="seven" horiz-adv-x="510" d="M487 460V437Q468 400 443 341T391 209T340 59T298 -91T273 -225H93Q144 -125 198 -34T302 147T385 330H142Q94 330 78 311T57 250H34V460H487Z" />
<glyph unicode="8" glyph-name="eight" horiz-adv-x="529" d="M493 175Q493 110 461 68T374 5T256 -15Q198 -15 148 1T67 52T36 137Q36 179 56 209T109 260T178 290Q113 333 75 378T36 490Q36 552 67 594T153 658T275 680Q329 680 379 665T461 618T493 532Q493
488 471 455T415 400T344 366Q399 330 431 302T478 244T493 175ZM181 534Q181 508 192 488T230 447T304 393Q330 422 342 458T354 529Q354 572 335 604T271 637Q225 637 203 605T181 534ZM181 144Q181 92 202 60T259 28Q294 28 318 56T343 122Q343 168 306 200T220
264Q194 233 188 199T181 144Z" />
<glyph unicode="9" glyph-name="nine" horiz-adv-x="566" d="M112 -220Q209 -188 265 -125T345 22T370 197Q370 304 344 368T276 432Q251 432 232 407T202 338T191 239Q191 159 214 113T279 67Q288 67 299 69T320 76L336 60Q314 36 284 22T216 7Q163 7 123 36T59
116T36 230Q36 295 59 341T120 417T203 461T291 475Q352 475 406 446T495 358T530 206Q530 122 500 47T413 -90T280 -193T112 -250V-220Z" />
<glyph unicode=":" glyph-name="colon" horiz-adv-x="225" d="M113 -15Q76 -15 51 10T26 71Q26 106 51 132T113 158Q149 158 174 132T199 71Q199 36 174 11T113 -15ZM113 265Q76 265 51 290T26 351Q26 386 51 412T113 438Q149 438 174 412T199 351Q199 316 174
291T113 265Z" />
<glyph unicode=";" glyph-name="semicolon" horiz-adv-x="216" d="M153 163Q164 135 168 105T173 54Q173 3 149 -42T85 -119T-7 -162V-133Q13 -121 25 -98T44 -47T51 2Q51 17 47 45T30 102Q53 127 86 144T153 163ZM104 265Q67 265 42 290T17 351Q17 386 42 412T104
438Q140 438 165 412T190 351Q190 316 165 291T104 265Z" />
<glyph unicode="&lt;" glyph-name="less" horiz-adv-x="600" d="M505 426V370L174 230L505 90V34L95 209V251L505 426Z" />
<glyph unicode="=" glyph-name="equal" horiz-adv-x="600" d="M505 391H95V441H505V391ZM505 275H95V325H505V275Z" />
<glyph unicode="&gt;" glyph-name="greater" horiz-adv-x="600" d="M95 426L505 251V209L95 34V90L426 230L95 370V426Z" />
<glyph unicode="?" glyph-name="question" horiz-adv-x="395" d="M288 190Q232 186 188 196T119 235T93 309Q93 345 107 371T142 418T187 457Q218 482 242 507T267 569Q267 595 250 616T194 637Q143 637 113 598T74 500H52V653Q93 668 134 674T209 680Q305 680
353 640T402 537Q402 485 373 450T305 385Q274 361 248 337T222 282Q222 256 242 237T288 218V190ZM203 -15Q166 -15 141 10T116 71Q116 106 141 132T203 158Q239 158 264 132T289 71Q289 36 264 11T203 -15Z" />
<glyph unicode="@" glyph-name="at" horiz-adv-x="884" d="M364 54Q324 54 296 80T267 171Q267 229 290 281T349 373T429 437T512 460Q529 460 542 456T567 447L672 460Q661 340 657 270T653 173Q653 155 656 140T673 124Q682 124 701 138T742 181T778 251T793
346Q793 429 755 483T653 563T515 590Q433 590 370 563T265 487T200 376T178 242Q178 195 190 146T230 53T309 -23T436 -70T621 -75V-110Q483 -134 378 -117T202 -51T95 69T58 223Q58 304 91 377T184 507T327 597T509 630Q603 630 677 597T794 502T838 349Q838
294 820 241T765 146T675 79T550 54Q539 69 535 96T533 155T539 217H537Q497 133 456 94T364 54ZM425 159Q444 159 464 178T503 230T533 300T545 374Q545 397 539 408T514 420Q487 420 465 397T428 340T405 270T397 208Q397 179 406 169T425 159Z" />
<glyph unicode="A" glyph-name="A" horiz-adv-x="683" d="M597 100Q611 66 620 50T641 30T668 23V0H389V23Q429 25 433 47T426 100L376 230Q370 225 361 224T340 222H227Q206 222 195 217T176 192L140 100Q127 67 142 46T201 23V0H19V23Q41 25 56 45T85 100L277
586Q288 612 296 637T312 688H370Q377 662 386 637T405 586L597 100ZM335 265Q349 265 353 269T352 289L283 460H281L203 261Q208 264 215 264T231 265H335Z" />
<glyph unicode="B" glyph-name="B" horiz-adv-x="721" d="M58 0V23Q87 25 100 38T113 100V565Q113 614 99 627T43 642V665H113Q169 665 211 666T294 669T387 670Q506 670 563 632T620 531Q620 474 583 436T480 384V382Q572 372 622 328T673 209Q673 152 643 105T551
29T391 0H58ZM273 370Q286 379 297 381T325 385Q384 390 417 426T450 521Q450 561 435 584T396 617T346 627Q303 627 288 616T273 565V370ZM332 43Q395 43 432 67T486 128T503 208Q503 279 461 311T355 343Q315 343 294 330T273 284V100Q273 65 284 54T332 43Z"
/>
<glyph unicode="C" glyph-name="C" horiz-adv-x="706" d="M417 -15Q312 -15 231 27T104 145T58 323Q58 406 88 471T170 584T291 655T438 680Q497 680 551 669T637 643V485H614Q594 546 566 578T504 624T431 637Q238 637 238 357Q238 265 257 190T318 72T425 28Q478
28 521 54T594 125T638 220H661L653 68Q620 32 560 9T417 -15Z" />
<glyph unicode="D" glyph-name="D" horiz-adv-x="791" d="M58 0V23Q87 25 100 38T113 100V565Q113 614 99 627T43 642V665H113Q168 665 225 667T343 670Q457 670 545 639T683 538T733 353Q733 261 700 194T612 84T490 21T355 0H58ZM333 43Q410 43 458 81T530 187T553
338Q553 441 526 504T451 597T343 627Q303 627 288 616T273 565V100Q273 65 284 54T333 43Z" />
<glyph unicode="E" glyph-name="E" horiz-adv-x="630" d="M58 0V23Q87 25 100 38T113 100V565Q113 614 99 627T43 642V665H534V525H511Q509 568 482 595T397 622H317Q296 622 285 611T273 565V368Q281 374 292 376T320 378H417Q447 378 467 395T488 442H511V272H488Q487
309 467 322T417 335H322Q295 335 284 326T273 291V100Q273 65 288 54T349 43H444Q504 43 539 79T578 165H601L593 0H58Z" />
<glyph unicode="F" glyph-name="F" horiz-adv-x="572" d="M58 0V23Q87 25 100 38T113 100V565Q113 614 99 627T43 642V665H524V525H501Q499 568 472 595T387 622H317Q296 622 285 611T273 565V353Q281 359 292 361T320 363H417Q447 363 467 380T488 427H511V257H488Q487
294 467 307T417 320H322Q295 320 284 311T273 276V100Q273 68 279 52T303 30T353 23V0H58Z" />
<glyph unicode="G" glyph-name="G" horiz-adv-x="740" d="M392 -15Q298 -15 222 26T102 144T58 321Q58 408 88 475T170 587T291 656T438 680Q491 680 545 669T637 643V490H614Q594 548 566 579T504 624T432 637Q329 637 284 565T238 359Q238 262 259 187T321 70T420
28Q443 28 470 33T513 64Q524 82 525 109T527 171Q527 227 522 252T500 285T452 295V318H702V295Q688 294 683 284T677 248V190Q677 163 678 139T685 89Q669 73 629 49T529 5T392 -15Z" />
<glyph unicode="H" glyph-name="H" horiz-adv-x="831" d="M58 0V23Q87 25 100 38T113 100V565Q113 614 99 627T43 642V665H328V642Q299 641 286 628T273 565V388Q281 394 292 396T320 398H509Q536 398 547 407T558 443V565Q558 614 544 627T488 642V665H773V642Q744
641 731 628T718 565V100Q718 51 733 38T788 23V0H503V23Q532 25 545 38T558 100V366Q550 359 538 357T511 355H322Q295 355 284 346T273 311V100Q273 51 288 38T343 23V0H58Z" />
<glyph unicode="I" glyph-name="I" horiz-adv-x="396" d="M63 0V23Q92 25 105 38T118 100V565Q118 614 104 627T48 642V665H333V642Q304 641 291 628T278 565V100Q278 51 293 38T348 23V0H63Z" />
<glyph unicode="J" glyph-name="J" horiz-adv-x="380" d="M50 -225V-202Q76 -192 89 -171T106 -109T110 0V565Q110 614 96 627T40 642V665H325V642Q296 641 283 628T270 565V0Q270 -72 238 -122T155 -199T50 -225Z" />
<glyph unicode="K" glyph-name="K" horiz-adv-x="758" d="M652 -15Q604 -15 572 0T517 39T475 91L329 314Q318 331 312 335T296 340Q286 340 280 332T273 306V100Q273 51 288 38T343 23V0H58V23Q87 25 100 38T113 100V565Q113 614 99 627T43 642V665H328V642Q299
641 286 628T273 565V380H275L499 565Q516 579 525 590T534 612Q534 639 475 642V665H702V642Q672 637 647 621T593 580L448 460Q440 453 440 446T448 427L657 103Q686 57 710 40T753 23V0Q733 -7 706 -11T652 -15Z" />
<glyph unicode="L" glyph-name="L" horiz-adv-x="577" d="M58 0V23Q87 25 100 38T113 100V565Q113 614 99 627T43 642V665H328V642Q299 641 286 628T273 565V100Q273 65 288 54T349 43H414Q459 43 485 59T523 104T538 165H561L553 0H58Z" />
<glyph unicode="M" glyph-name="M" horiz-adv-x="960" d="M405 -8Q397 15 386 39T355 104L175 480H173L155 100Q154 66 171 46T233 23V0H48V23Q77 25 89 45T103 100L124 565Q126 600 120 615T97 634T54 642V665H268Q276 639 286 616T310 565L482 205H484L644 565Q667
616 679 665H891V642Q872 641 859 636T841 616T836 565L857 100Q859 68 865 52T887 31T927 23V0H642V23Q674 25 686 38T697 100L680 509H678L497 104Q478 62 470 39T455 -8H405Z" />
<glyph unicode="N" glyph-name="N" horiz-adv-x="788" d="M644 -8Q629 8 613 23T562 70L168 430H166V100Q166 66 183 46T244 23V0H59V23Q88 25 101 45T114 100V565Q114 614 100 627T44 642V665H164Q179 646 196 631T235 595L633 235H635V565Q635 599 618 620T557
642V665H742V642Q713 641 700 620T687 565V100Q687 72 687 47T689 -8H644Z" />
<glyph unicode="O" glyph-name="O" horiz-adv-x="795" d="M398 680Q469 680 530 656T638 587T711 477T737 334Q737 255 711 191T639 81T530 10T397 -15Q327 -15 266 9T157 78T84 188T58 331Q58 410 84 474T156 584T265 655T398 680ZM418 28Q470 28 500 62T543
158T557 300Q557 463 508 550T377 637Q326 637 296 603T252 508T238 365Q238 202 287 115T418 28Z" />
<glyph unicode="P" glyph-name="P" horiz-adv-x="663" d="M58 0V23Q87 25 100 38T113 100V565Q113 614 99 627T43 642V665H113Q186 665 250 667T346 670Q450 670 510 647T597 587T624 504Q624 452 591 405T485 333T293 316V351Q347 349 382 370T433 428T450 505Q450
560 419 593T333 627Q300 627 287 616T273 565V100Q273 68 279 52T303 30T353 23V0H58Z" />
<glyph unicode="Q" glyph-name="Q" horiz-adv-x="795" d="M398 680Q469 680 530 656T638 587T711 477T737 334Q737 253 710 188T634 77T522 7Q564 -42 624 -85T756 -161T910 -214T1075 -233Q1129 -233 1199 -223T1344 -184T1486 -101L1512 -127Q1437 -195 1351
-235T1174 -292T995 -308Q886 -307 788 -282T606 -216T454 -121T336 -10Q256 3 194 48T95 165T58 331Q58 410 84 474T156 584T265 655T398 680ZM418 28Q470 28 500 62T543 158T557 300Q557 463 508 550T377 637Q326 637 296 603T252 508T238 365Q238 202 287 115T418
28Z" />
<glyph unicode="R" glyph-name="R" horiz-adv-x="728" d="M642 -15Q597 -15 565 -1T511 38T470 91L330 309Q320 326 312 330T293 335V370Q353 374 386 394T432 443T445 505Q445 566 411 596T333 627Q300 627 287 616T273 565V100Q273 51 288 38T343 23V0H58V23Q87
25 100 38T113 100V565Q113 614 99 627T43 642V665H113Q188 665 249 667T353 670Q452 670 510 652T594 600T620 525Q620 485 601 452T550 397T481 365V363L647 103Q676 57 700 40T743 23V0Q723 -7 696 -11T642 -15Z" />
<glyph unicode="S" glyph-name="S" horiz-adv-x="593" d="M276 -15Q225 -15 176 -3T95 40T63 120Q63 139 70 165T98 220H121Q123 172 141 129T194 58T281 30Q322 30 346 46T381 87T392 135Q392 174 369 201T311 249T235 291T158 337T100 399T77 489Q77 579 146
629T331 680Q382 680 428 672T503 653V495H480Q464 550 440 580T386 622T325 635Q287 635 265 622T232 589T222 549Q222 516 244 492T303 447T379 405T455 355T514 288T537 191Q537 124 503 78T410 9T276 -15Z" />
<glyph unicode="T" glyph-name="T" horiz-adv-x="636" d="M33 665H603V500H580Q574 554 548 588T459 622H398V100Q398 51 413 38T468 23V0H183V23Q212 25 225 38T238 100V622H176Q115 622 89 588T56 500H33V665Z" />
<glyph unicode="U" glyph-name="U" horiz-adv-x="801" d="M304 -15Q203 -15 153 42T103 188V565Q103 614 89 627T33 642V665H318V642Q289 641 276 628T263 565V198Q263 149 283 120T354 90Q408 90 448 122T510 208T533 322V565Q533 614 519 627T463 642V665H743V642Q714
641 701 628T688 565V90Q688 49 703 37T758 23V0H555Q549 16 546 38T543 100V183H541Q510 88 452 37T304 -15Z" />
<glyph unicode="V" glyph-name="V" horiz-adv-x="646" d="M295 -8Q288 18 284 35T268 79L75 565Q62 599 52 615T32 636T5 642V665H287V642Q247 640 242 619T249 565L382 224H384L508 565Q521 599 506 619T447 642V665H630V642Q610 640 593 620T562 565L386 79Q376
52 372 35T363 -8H295Z" />
<glyph unicode="W" glyph-name="W" horiz-adv-x="1002" d="M234 -8Q230 18 226 35T214 79L76 565Q66 600 58 615T40 636T14 642V665H296L295 642Q256 640 246 619T246 565L338 250H340L520 673H590Q599 645 607 619T629 565L769 250H773L871 565Q882 599 865 619T800
642L801 665H998V642Q974 640 957 620T929 565L785 79Q778 53 774 36T765 -8H695Q689 18 683 35T666 79L500 460H497L333 79Q322 52 317 35T305 -8H234Z" />
<glyph unicode="X" glyph-name="X" horiz-adv-x="667" d="M3 0V23Q35 25 59 45T102 100L222 329Q229 343 232 354T225 381L108 565Q87 598 76 614T57 635T36 642V665H321V642Q285 640 279 619T293 565L383 423H385L469 565Q489 599 479 619T432 642V665H603V642Q587
640 567 620T526 565L432 402Q425 389 424 376T430 349L588 100Q609 67 621 51T643 29T664 23V0H370V23Q410 25 416 47T403 100L273 305H271L162 100Q144 66 161 46T223 23V0H3Z" />
<glyph unicode="Y" glyph-name="Y" horiz-adv-x="634" d="M428 665H615V642Q593 640 575 619T539 565L416 337Q408 321 403 308T397 269V100Q397 51 412 38T467 23V0H182V23Q211 25 224 38T237 100V269Q237 295 233 308T220 337L91 565Q72 599 60 615T35 636T5
642V665H301V642Q257 640 255 619T270 565L374 374H376L480 565Q498 598 485 619T428 642V665Z" />
<glyph unicode="Z" glyph-name="Z" horiz-adv-x="669" d="M48 0V23Q68 47 84 75L402 620V622L227 615Q125 611 119 500H97V665H603V642Q584 617 568 590L248 44V42L453 50Q521 53 552 87T588 165H611L603 0H48Z" />
<glyph unicode="[" glyph-name="bracketleft" horiz-adv-x="316" d="M303 -180H93V740H303V717Q269 716 251 712T225 691T218 640V-80Q218 -115 225 -131T250 -151T303 -157V-180Z" />
<glyph unicode="\" glyph-name="backslash" horiz-adv-x="381" d="M55 790L381 -150H326L0 790H55Z" />
<glyph unicode="]" glyph-name="bracketright" horiz-adv-x="316" d="M13 740H223V-180H13V-157Q47 -156 65 -152T91 -131T98 -80V640Q98 675 91 691T66 711T13 717V740Z" />
<glyph unicode="^" glyph-name="asciicircum" horiz-adv-x="488" d="M440 255H384L244 591L104 255H48L223 665H265L440 255Z" />
<glyph unicode="_" glyph-name="underscore" horiz-adv-x="395" d="M395 -50H0V0H395V-50Z" />
<glyph unicode="`" glyph-name="grave" horiz-adv-x="174" d="M104 770Q111 718 127 665T174 564L155 555Q123 575 90 603T28 665T-20 728Q-4 741 19 750T65 765T104 770Z" />
<glyph unicode="a" glyph-name="a" horiz-adv-x="534" d="M146 -15Q91 -15 65 18T38 94Q38 160 98 201T286 276V329Q286 376 267 396T212 417Q164 417 133 381T89 284H66V428Q100 445 154 460T273 475Q446 475 446 341V123Q446 100 452 88T476 75Q486 75 498 79T525
97L541 81Q519 35 483 13T401 -10Q352 -10 326 9T288 66H286Q263 26 225 6T146 -15ZM224 75Q244 75 259 84T286 106V236Q240 223 217 202T186 160T178 125Q178 104 190 90T224 75Z" />
<glyph unicode="b" glyph-name="b" horiz-adv-x="595" d="M384 475Q432 475 473 448T540 369T565 246Q565 174 540 125T475 44T386 -1T292 -15Q240 -15 210 -8T155 9L75 -10V649Q75 664 70 669T53 674Q45 674 36 672T15 666L5 689L223 790L229 784Q228 769 227
738T225 658V380Q245 421 286 448T384 475ZM301 33Q345 33 375 79T405 203Q405 290 375 332T301 375Q282 375 262 368T225 343V77Q253 33 301 33Z" />
<glyph unicode="c" glyph-name="c" horiz-adv-x="481" d="M255 -15Q190 -15 139 14T59 96T30 222Q30 287 54 334T118 413T205 459T299 475Q334 475 375 468T440 443V290H417Q404 366 369 399T294 432Q249 432 220 388T190 266Q190 206 208 170T255 117T320 100Q343
100 377 110T441 149L457 133Q431 70 384 28T255 -15Z" />
<glyph unicode="d" glyph-name="d" horiz-adv-x="603" d="M570 99L580 76L373 -21L367 -15Q369 -6 371 23T373 82H371Q352 41 311 13T211 -15Q163 -15 122 12T56 91T30 214Q30 286 55 335T120 416T209 461T303 475Q323 475 340 474T370 471V649Q370 664 365 669T348
674Q331 674 310 666L300 689L518 790L524 784Q523 769 522 738T520 658V120Q520 105 526 100T542 95Q554 95 570 99ZM294 85Q313 85 333 93T370 117V383Q342 427 294 427Q250 427 220 381T190 257Q190 170 220 128T294 85Z" />
<glyph unicode="e" glyph-name="e" horiz-adv-x="504" d="M274 -15Q206 -15 151 14T63 97T30 225Q30 305 66 361T161 446T289 475Q381 475 428 426T476 296L181 259Q187 174 231 137T333 100Q362 100 399 110T466 149L482 133Q454 66 406 26T274 -15ZM259 432Q225
432 204 397T180 299L325 317Q323 364 309 398T259 432Z" />
<glyph unicode="f" glyph-name="f" horiz-adv-x="347" d="M414 790Q418 768 419 738T420 679T414 626H391Q381 688 363 710T319 733Q282 733 261 690T239 543V460H369V407H279Q239 407 239 367V110Q239 73 244 55T267 30T319 23V0H44V23Q61 24 71 30T85 54T89
110V407H29V460H89V508Q89 606 132 672T248 768T414 790Z" />
<glyph unicode="g" glyph-name="g" horiz-adv-x="533" d="M197 -235Q154 -235 115 -228T50 -200T25 -141Q25 -105 48 -77T107 -34L130 -38Q121 -58 117 -76T113 -108Q113 -147 144 -168T231 -190Q282 -190 315 -174T364 -135T380 -90Q380 -74 369 -60T322 -41L119
-10Q87 -5 74 15T60 61Q60 96 81 129T140 187Q95 205 68 238T40 321Q40 370 68 405T143 460T252 479Q327 479 380 451Q412 455 432 480T453 555H476Q501 542 510 525T519 490Q519 455 492 437T421 420Q438 402 447 379T457 327Q457 278 429 243T353 188T245 169Q208
169 175 176Q160 163 160 147Q160 140 164 134T182 125L417 89Q479 79 502 50T525 -15Q525 -49 506 -87T447 -159T345 -214T197 -235ZM253 207Q285 207 301 237T317 317Q317 376 297 408T244 441Q213 441 197 411T180 331Q180 273 201 240T253 207Z" />
<glyph unicode="h" glyph-name="h" horiz-adv-x="613" d="M532 110Q532 73 537 55T555 30T592 23V0H337V23Q354 24 364 30T378 54T382 110V309Q382 338 373 356T329 375Q310 375 287 369T232 343V110Q232 73 237 55T255 30T292 23V0H37V23Q54 24 64 30T78 54T82
110V649Q82 664 77 669T60 674Q52 674 43 672T22 666L12 689L230 790L236 784Q235 769 234 738T232 658V378Q252 401 279 423T339 460T412 475Q474 475 503 446T532 351V110Z" />
<glyph unicode="i" glyph-name="i" horiz-adv-x="316" d="M233 110Q233 73 238 55T256 30T293 23V0H38V23Q55 24 65 30T79 54T83 110V340Q83 355 78 360T61 365Q53 365 44 363T23 357L13 380L231 481L237 475Q236 460 235 429T233 349V110ZM163 530Q126 530 101
555T76 616Q76 651 101 677T163 703Q199 703 224 677T249 616Q249 581 224 556T163 530Z" />
<glyph unicode="j" glyph-name="j" horiz-adv-x="310" d="M229 481L235 475Q234 460 233 429T231 349V5Q231 -60 209 -114T138 -201T7 -235V-213Q38 -194 53 -169T75 -99T81 20V340Q81 355 76 360T59 365Q51 365 42 363T21 357L11 380L229 481ZM161 530Q124 530
99 555T74 616Q74 651 99 677T161 703Q197 703 222 677T247 616Q247 581 222 556T161 530Z" />
<glyph unicode="k" glyph-name="k" horiz-adv-x="582" d="M232 110Q232 73 235 55T249 30T277 23V0H37V23Q54 24 64 30T78 54T82 110V649Q82 664 77 669T60 674Q52 674 43 672T22 666L12 689L230 790L236 784Q235 769 234 738T232 658V231H234L360 361Q374 375
381 384T388 404Q388 413 381 424T343 437V460H545V437Q515 435 490 419T446 384L388 324L501 103Q525 56 542 40T577 23V0Q544 -15 498 -15Q447 -15 411 6T356 62L279 212L232 164V110Z" />
<glyph unicode="l" glyph-name="l" horiz-adv-x="315" d="M232 110Q232 73 237 55T255 30T292 23V0H37V23Q54 24 64 30T78 54T82 110V649Q82 664 77 669T60 674Q52 674 43 672T22 666L12 689L230 790L236 784Q235 769 234 738T232 658V110Z" />
<glyph unicode="m" glyph-name="m" horiz-adv-x="894" d="M38 0V23Q55 24 65 30T79 54T83 110V340Q83 355 78 360T61 365Q49 365 33 361L23 384L231 481L237 475Q235 466 233 437T230 378H232Q250 401 275 423T332 460T403 475Q458 475 487 452T522 377Q540 400
565 422T622 460T693 475Q755 475 784 446T813 351V110Q813 73 818 55T836 30T873 23V0H618V23Q635 24 645 30T659 54T663 110V309Q663 340 652 357T610 375Q594 375 573 369T523 343V110Q523 73 528 55T546 30T583 23V0H328V23Q345 24 355 30T369 54T373 110V309Q373
340 362 357T320 375Q304 375 283 369T233 343V110Q233 73 237 55T253 30T283 23V0H38Z" />
<glyph unicode="n" glyph-name="n" horiz-adv-x="614" d="M533 110Q533 73 538 55T556 30T593 23V0H338V23Q355 24 365 30T379 54T383 110V309Q383 338 374 356T330 375Q311 375 288 369T233 343V110Q233 73 238 55T256 30T293 23V0H38V23Q55 24 65 30T79 54T83
110V340Q83 355 78 360T61 365Q49 365 33 361L23 384L231 481L237 475Q235 466 233 437T230 378H233Q253 401 280 423T340 460T413 475Q475 475 504 446T533 351V110Z" />
<glyph unicode="o" glyph-name="o" horiz-adv-x="570" d="M292 475Q365 475 420 446T508 362T540 236Q540 157 503 101T407 15T278 -15Q206 -15 150 15T62 98T30 224Q30 303 67 359T163 445T292 475ZM295 28Q332 28 356 70T380 200Q380 264 367 316T331 400T275
432Q238 432 214 390T190 260Q190 196 203 144T240 60T295 28Z" />
<glyph unicode="p" glyph-name="p" horiz-adv-x="600" d="M300 -201V-224H35V-201Q52 -200 62 -194T76 -170T80 -114V340Q80 355 75 360T58 365Q46 365 30 361L20 384L228 481L234 475Q232 466 230 437T227 378H229Q248 419 289 447T389 475Q437 475 478 448T545
369T570 246Q570 174 545 125T480 44T391 -1T297 -15Q277 -15 261 -14T230 -11V-114Q230 -151 235 -169T255 -194T300 -201ZM306 33Q350 33 380 79T410 203Q410 290 380 332T306 375Q287 375 267 368T230 343V77Q258 33 306 33Z" />
<glyph unicode="q" glyph-name="q" horiz-adv-x="586" d="M580 -121L590 -144L372 -245L366 -239Q368 -231 369 -196T370 -113V80Q351 40 310 13T211 -15Q163 -15 122 12T56 91T30 214Q30 286 55 335T120 416T209 461T303 475Q355 475 385 468T440 451L520 470V-99Q520
-129 543 -129Q552 -129 561 -127T580 -121ZM294 85Q313 85 333 93T370 117V383Q342 427 294 427Q250 427 220 381T190 257Q190 170 220 128T294 85Z" />
<glyph unicode="r" glyph-name="r" horiz-adv-x="425" d="M38 0V23Q55 24 65 30T79 54T83 110V340Q83 355 78 360T61 365Q49 365 33 361L23 384L231 481L237 475Q235 466 233 436T230 368H232Q269 424 315 449T416 470Q424 383 416 295H393Q386 340 366 352T324
364Q299 364 277 358T233 333V110Q233 73 238 55T258 30T303 23V0H38Z" />
<glyph unicode="s" glyph-name="s" horiz-adv-x="440" d="M202 -15Q126 -15 80 12T33 88Q33 107 41 128T70 170H93Q98 131 109 99T144 47T208 28Q240 28 261 42T283 86Q283 113 266 131T221 163T163 192T105 224T61 269T43 334Q43 399 95 437T238 475Q272 475
312 469T378 448V315H356Q349 366 318 399T238 432Q205 432 189 418T173 384Q173 362 190 347T235 318T292 289T350 254T394 206T412 136Q412 87 385 54T311 3T202 -15Z" />
<glyph unicode="t" glyph-name="t" horiz-adv-x="384" d="M364 102L380 86Q369 61 350 38T302 0T229 -15Q158 -15 121 27T84 135V407H24V460H84V595L239 610Q236 572 235 535T234 460H364V407H274Q234 407 234 367V155Q234 75 299 75Q337 75 364 102Z" />
<glyph unicode="u" glyph-name="u" horiz-adv-x="607" d="M573 99L583 76L375 -21L369 -15Q371 -6 373 23T376 82H373Q353 60 327 38T269 0T198 -15Q137 -15 108 15T78 109V340Q78 355 73 360T56 365Q44 365 28 361L18 384L226 481L232 475Q231 460 230 429T228
349V151Q228 123 236 104T276 85Q296 85 319 91T373 116V340Q373 355 368 360T351 365Q339 365 323 361L313 384L521 481L527 475Q526 460 525 429T523 349V120Q523 105 529 100T545 95Q557 95 573 99Z" />
<glyph unicode="v" glyph-name="v" horiz-adv-x="485" d="M224 -10Q217 16 209 35T189 79L51 360Q35 393 25 409T8 430T-11 437V460H240V437Q215 436 207 424T202 395T213 360L297 185H299L372 360Q383 386 374 410T331 437V460H490V437Q467 435 451 411T424 360L305
79Q294 52 289 34T278 -10H224Z" />
<glyph unicode="w" glyph-name="w" horiz-adv-x="744" d="M205 -10Q197 16 190 35T172 79L51 360Q37 394 28 409T11 430T-11 437V460H230V437Q210 436 205 424T202 395T213 360L285 190H287L352 339L343 360Q330 394 321 409T306 430T290 437V460H527V437Q502
436 495 424T490 395T500 360L568 190H570L632 360Q639 378 639 395T628 424T587 437V460H750V437Q727 435 711 411T684 360L576 79Q566 52 561 34T549 -10H492Q485 16 476 35T457 79L377 276L291 79Q279 52 274 34T262 -10H205Z" />
<glyph unicode="x" glyph-name="x" horiz-adv-x="541" d="M12 0V23Q31 25 52 45T95 100L177 227L84 360Q63 390 52 406T33 429T11 437V460H281V437Q260 436 251 417T267 360L325 277L381 360Q404 394 398 415T350 437V460H528V437Q502 436 480 416T435 360L354
237L450 100Q482 56 496 41T524 23V0H253V23Q267 24 278 31T289 54T267 100L206 187L149 100Q127 66 132 46T180 23V0H12Z" />
<glyph unicode="y" glyph-name="y" horiz-adv-x="493" d="M84 -235Q39 -235 21 -208T3 -146Q3 -129 7 -106T19 -60H42Q49 -97 61 -115T99 -134Q134 -134 165 -96T222 10L55 360Q40 393 30 408T12 430T-7 437V460H246V437Q221 436 213 424T208 395T219 360L299
185H301L378 360Q389 386 380 410T337 437V460H498V437Q475 435 459 411T432 360L308 79Q260 -30 225 -99T157 -202T84 -235Z" />
<glyph unicode="z" glyph-name="z" horiz-adv-x="501" d="M18 0V23Q28 33 37 45T58 75L278 418V420L160 410Q119 406 102 376T82 300H59V460H471V437Q462 427 452 414T432 385L216 42V40L350 50Q385 53 407 70T440 113T455 165H478L470 0H18Z" />
<glyph unicode="{" glyph-name="braceleft" horiz-adv-x="309" d="M306 -157V-180Q198 -184 139 -144T80 -12Q80 39 85 84T90 169Q90 225 74 250T13 278V300Q57 302 73 328T90 409Q90 449 85 490T80 575Q80 665 139 705T306 740V717Q251 715 228 682T205 575Q205
530 210 489T215 413Q215 386 210 363T184 321T112 290V288Q162 277 183 258T210 216T215 165Q215 130 210 86T205 -12Q205 -88 228 -121T306 -157Z" />
<glyph unicode="|" glyph-name="bar" horiz-adv-x="101" d="M28 790H83V-225H28V790Z" />
<glyph unicode="}" glyph-name="braceright" horiz-adv-x="319" d="M3 -157Q59 -155 81 -122T104 -12Q104 41 99 85T94 165Q94 192 99 215T125 258T197 288V290Q147 302 126 320T99 362T94 413Q94 448 99 489T104 575Q104 649 82 682T3 717V740Q111 745 170 705T229
575Q229 532 224 491T219 409Q219 354 236 328T296 300V278Q253 276 236 251T219 169Q219 129 224 84T229 -12Q229 -104 170 -144T3 -180V-157Z" />
<glyph unicode="~" glyph-name="asciitilde" horiz-adv-x="600" d="M196 239Q166 239 151 223T128 175L95 180Q101 234 131 256T199 279Q226 279 252 270T305 247T355 225T403 215Q433 215 448 231T471 279L505 274Q499 228 469 202T400 175Q373 175 347 184T294
207T244 229T196 239Z" />
<glyph unicode="&#xa0;" glyph-name="uni00A0" horiz-adv-x="270" />
<glyph unicode="&#xa1;" glyph-name="exclamdown" horiz-adv-x="225" d="M122 476Q159 476 184 451T209 390Q209 355 184 329T122 303Q86 303 61 329T36 390Q36 425 61 450T122 476ZM134 241Q138 102 152 -4T189 -204L26 -246Q26 -132 43 -11T106 241H134Z" />
<glyph unicode="&#xa2;" glyph-name="cent" horiz-adv-x="602" d="M345 -15Q324 -15 303 -13L286 -121L237 -115L255 -5Q159 19 109 89T58 251Q58 333 96 396T198 497T343 539L360 644L409 639L393 539Q433 536 468 526T538 503V365H515Q495 429 461 459T386 496L312
43Q336 28 366 28Q422 28 468 71T534 190H557L549 58Q517 22 464 4T345 -15ZM228 285Q228 234 237 181T270 88L336 494Q282 483 255 429T228 285Z" />
<glyph unicode="&#xa3;" glyph-name="sterling" horiz-adv-x="511" d="M40 0V23Q74 46 100 75T126 157Q126 190 117 215T96 267H18V310H82Q79 321 78 333T76 360Q76 422 107 465T192 532T315 555Q361 555 402 547T472 528V390H449Q427 461 390 485T311 510Q263
510 242 484T221 404Q221 375 226 353T236 310H368V267H247Q251 247 251 228Q251 186 235 161T195 123V120H354Q411 120 433 134T459 175H482L472 0H40Z" />
<glyph unicode="&#xa4;" glyph-name="currency" horiz-adv-x="674" d="M337 40Q287 40 242 57T161 104L93 36L58 71L126 139Q96 175 79 220T62 315Q62 365 79 410T126 491L58 559L93 594L161 526Q197 556 242 573T337 590Q387 590 432 573T513 526L581 594L616
559L548 491Q578 455 595 410T612 315Q612 265 595 220T548 139L616 71L581 36L513 104Q477 74 432 57T337 40ZM337 90Q398 90 447 121T527 203T557 315Q557 376 527 427T448 509T337 540Q277 540 227 509T147 427T117 315Q117 254 147 203T227 121T337 90Z" />
<glyph unicode="&#xa5;" glyph-name="yen" horiz-adv-x="566" d="M473 122H353V100Q353 51 366 38T413 23V0H153V23Q175 25 186 38T198 100V122H83V165H198V185Q198 216 192 232H83V275H168L81 425Q62 458 50 474T28 495T5 502V525H276V502Q239 500 239 478T255
425L333 289H335L419 425Q439 457 429 478T372 502V525H547V502Q528 500 512 479T476 425L385 275H473V232H361Q357 223 355 213T353 185V165H473V122Z" />
<glyph unicode="&#xa6;" glyph-name="brokenbar" horiz-adv-x="101" d="M28 790H83V475H28V790ZM28 90H83V-225H28V90Z" />
<glyph unicode="&#xa7;" glyph-name="section" horiz-adv-x="593" d="M537 -43Q537 -96 505 -137T415 -202T278 -225Q225 -225 176 -213T95 -170T63 -90Q63 -71 70 -45T98 10H121Q123 -36 140 -79T192 -151T287 -180Q331 -180 358 -165T399 -125T412 -75Q412 -36
388 -9T326 39T245 80T164 127T101 190T77 280Q77 355 128 404Q105 425 91 451T77 512Q77 560 107 598T194 658T330 680Q382 680 428 672T503 653V495H480Q455 577 414 606T320 635Q276 635 250 622T213 588T202 548Q202 515 226 491T288 447T369 405T450 355T513
287T537 190Q537 118 494 67Q514 45 525 18T537 -43ZM182 336Q182 297 205 268T267 215T348 169T431 120Q432 128 432 138Q432 183 409 214T348 270T268 316T186 362Q182 350 182 336Z" />
<glyph unicode="&#xa8;" glyph-name="dieresis" horiz-adv-x="356" d="M75 560Q42 560 20 583T-3 638Q-3 670 19 693T75 717Q108 717 130 694T153 638Q153 606 131 583T75 560ZM281 560Q248 560 226 583T203 638Q203 670 225 693T281 717Q314 717 336 694T359
638Q359 606 337 583T281 560Z" />
<glyph unicode="&#xa9;" glyph-name="copyright" horiz-adv-x="811" d="M406 -15Q334 -15 271 12T160 87T85 198T58 333Q58 405 85 467T160 578T271 653T406 680Q478 680 540 653T651 578T726 468T753 333Q753 261 726 198T651 87T541 12T406 -15ZM406 25Q469
25 524 48T621 114T686 212T710 333Q710 398 687 453T621 551T524 616T406 640Q343 640 288 617T191 551T125 454T101 333Q101 268 125 212T190 114T287 49T406 25ZM413 135Q347 135 302 160T233 228T209 324Q209 386 238 432T317 504T427 530Q462 530 492 522T550
503V405H534Q518 457 490 478T427 499Q379 499 355 460T330 349Q330 308 339 266T369 195T428 166Q468 166 501 196T548 281H564L558 187Q535 162 497 149T413 135Z" />
<glyph unicode="&#xaa;" glyph-name="ordfeminine" horiz-adv-x="309" d="M306 422L315 413Q290 361 237 361Q181 361 167 406H165Q154 384 133 373T89 361Q58 361 44 381T30 423Q30 461 64 483T165 523V550Q165 579 155 589T127 600Q101 600 83 580T58 525H45V603Q64
613 96 621T166 630Q215 630 240 613T266 555V438Q266 425 269 419T282 412Q287 412 293 414T306 422ZM165 430V500Q134 490 125 471T116 442Q116 432 121 424T139 416Q149 416 155 421T165 430Z" />
<glyph unicode="&#xab;" glyph-name="guillemotleft" horiz-adv-x="403" d="M140 259Q140 252 143 246T150 235L247 84L230 68L15 248V270L230 450L247 434L150 283Q147 278 144 272T140 259ZM323 259Q323 252 325 246T330 235L388 114L372 98L213 248V270L372
420L388 404L330 283Q328 278 326 272T323 259Z" />
<glyph unicode="&#xac;" glyph-name="logicalnot" horiz-adv-x="600" d="M520 350V150H470V300H90V350H520Z" />
<glyph unicode="&#xad;" glyph-name="uni00AD" horiz-adv-x="361" d="M339 212L29 185L22 266L332 293L339 212Z" />
<glyph unicode="&#xae;" glyph-name="registered" horiz-adv-x="755" d="M378 -15Q306 -15 243 12T132 87T57 198T30 333Q30 405 57 467T132 578T243 653T378 680Q450 680 512 653T623 578T698 468T725 333Q725 261 698 198T623 87T513 12T378 -15ZM378 25Q451
25 513 57T618 143Q604 139 588 137T555 135Q507 135 484 158T441 211L382 302Q376 312 370 316T358 321V346Q403 350 420 371T437 422Q437 458 421 475T379 492Q361 492 352 484T343 448V217Q343 182 353 173T386 162V146H201V162Q217 163 225 172T233 217V448Q233
483 224 492T191 503V519H233Q285 519 325 521T388 523Q453 523 490 511T542 477T558 430Q558 391 533 371T478 341V340L559 219Q579 188 596 175T627 162V155Q653 193 667 238T682 333Q682 398 659 453T593 551T496 616T378 640Q315 640 260 617T163 551T97 454T73
333Q73 268 97 212T162 114T259 49T378 25Z" />
<glyph unicode="&#xaf;" glyph-name="overscore" horiz-adv-x="280" d="M-10 664H300V594H-10V664Z" />
<glyph unicode="&#xb0;" glyph-name="degree" horiz-adv-x="320" d="M160 407Q104 407 67 444T30 537Q30 592 67 629T160 667Q197 667 226 650T272 603T290 537Q290 500 273 471T226 425T160 407ZM160 455Q194 455 216 479T239 537Q239 571 217 595T160 619Q126
619 104 595T81 537Q81 503 103 479T160 455Z" />
<glyph unicode="&#xb1;" glyph-name="plusminus" horiz-adv-x="600" d="M275 85V265H95V315H275V495H325V315H505V265H325V85H275ZM505 -5H95V45H505V-5Z" />
<glyph unicode="&#xb2;" glyph-name="uni00B2" horiz-adv-x="310" d="M254 485H275L269 370H0V383Q4 385 13 390T33 403Q61 420 90 453T139 528T159 606Q159 629 148 646T107 663Q61 663 19 605L8 614Q31 674 67 703T155 733Q198 733 230 713T262 643Q262 582
226 535T133 455V454H196Q223 454 237 461T254 485Z" />
<glyph unicode="&#xb3;" glyph-name="uni00B3" horiz-adv-x="317" d="M192 563V562Q216 562 239 552T278 523T294 473Q294 441 273 416T216 376T135 361Q105 361 73 369T20 393Q23 429 44 462Q63 425 84 405T130 385Q161 385 176 410T191 461Q191 496 164 512T84
515V536Q138 555 157 575T176 619Q176 661 133 661Q108 661 87 651T45 616L34 626Q45 652 62 676T106 716T175 732Q218 732 245 712T273 654Q273 624 255 602T192 563Z" />
<glyph unicode="&#xb4;" glyph-name="acute" horiz-adv-x="174" d="M70 770Q86 770 109 765T155 751T194 728Q176 698 147 665T85 604T19 555L0 564Q31 611 47 664T70 770Z" />
<glyph unicode="&#xb5;" glyph-name="uni00B5" horiz-adv-x="575" d="M168 -15Q141 -15 120 -9Q131 -60 151 -111T200 -210Q179 -220 151 -226T94 -236T45 -240L48 109V460Q87 468 125 469T203 470Q200 432 199 398T198 325V151Q198 123 206 104T246 85Q264 85
285 89T333 110V115V460Q371 468 408 469T483 470V115Q483 96 493 86T517 75Q530 75 540 81T564 102L580 86Q570 61 554 38T512 0T448 -15Q397 -15 371 11T337 74Q307 42 265 14T168 -15Z" />
<glyph unicode="&#xb6;" glyph-name="paragraph" horiz-adv-x="602" d="M486 525H556V502Q516 501 501 488T486 425V0Q486 -54 466 -96T413 -167T340 -210T258 -225Q236 -225 208 -220T159 -204Q159 -185 170 -168T200 -139T237 -127Q242 -150 251 -166T280 -182Q307
-182 316 -142T326 0V151Q235 142 171 168T73 242T39 346Q39 390 61 432T133 502T265 530Q294 530 354 528T486 525Z" />
<glyph unicode="&#xb7;" glyph-name="middot" horiz-adv-x="225" d="M113 265Q76 265 51 290T26 351Q26 386 51 412T113 438Q149 438 174 412T199 351Q199 316 174 291T113 265Z" />
<glyph unicode="&#xb8;" glyph-name="cedilla" horiz-adv-x="172" d="M96 -43Q143 -55 165 -81T188 -142Q188 -172 173 -193T133 -224T81 -235Q59 -235 36 -227T-1 -198L10 -182Q48 -196 70 -190T93 -162Q93 -148 82 -136T43 -119L67 13H106L96 -43Z" />
<glyph unicode="&#xb9;" glyph-name="uni00B9" horiz-adv-x="314" d="M199 440Q199 409 207 401T252 391V370H38V391Q75 392 84 400T93 440V657L42 628L28 651L168 733H203Q202 723 201 713T199 691V440Z" />
<glyph unicode="&#xba;" glyph-name="ordmasculine" horiz-adv-x="325" d="M166 630Q229 630 268 595T307 499Q307 457 287 426T233 378T159 361Q95 361 57 397T18 493Q18 536 38 566T92 613T166 630ZM168 385Q184 385 196 408T208 478Q208 531 194 569T157 607Q141
607 130 584T118 513Q118 461 132 423T168 385Z" />
<glyph unicode="&#xbb;" glyph-name="guillemotright" horiz-adv-x="403" d="M263 259Q263 266 260 272T253 283L156 434L173 450L388 270V248L173 68L156 84L253 235Q256 240 259 246T263 259ZM80 259Q80 266 78 272T73 283L15 404L31 420L190 270V248L31 98L15
114L73 235Q75 240 77 246T80 259Z" />
<glyph unicode="&#xbc;" glyph-name="onequarter" horiz-adv-x="706" d="M199 636Q199 605 207 597T252 587V566H38V587Q75 588 84 596T93 636V853L42 824L28 847L168 929H203Q202 919 201 909T199 887V636ZM592 697L632 675L184 -42L144 -20L592 697ZM541 242L461
144H543V242H541ZM539 0Q539 17 540 33T542 67H372V79Q380 87 386 93T397 106L582 335Q593 349 602 363H637V144H673V67H652Q637 67 637 43V0H539Z" />
<glyph unicode="&#xbd;" glyph-name="onehalf" horiz-adv-x="752" d="M199 636Q199 605 207 597T252 587V566H38V587Q75 588 84 596T93 636V853L42 824L28 847L168 929H203Q202 919 201 909T199 887V636ZM592 697L632 675L184 -42L144 -20L592 697ZM696 115H717L711
0H442V13Q446 15 455 20T475 33Q503 50 532 83T581 158T601 236Q601 259 590 276T549 293Q503 293 461 235L450 244Q473 304 509 333T597 363Q640 363 672 343T704 273Q704 212 668 165T575 85V84H638Q665 84 679 91T696 115Z" />
<glyph unicode="&#xbe;" glyph-name="threequarters" horiz-adv-x="689" d="M192 759V758Q216 758 239 748T278 719T294 669Q294 637 273 612T216 572T135 557Q105 557 73 565T20 589Q23 625 44 658Q63 621 84 601T130 581Q161 581 176 606T191 657Q191 692 164
708T84 711V732Q138 751 157 771T176 815Q176 857 133 857Q108 857 87 847T45 812L34 822Q45 848 62 872T106 912T175 928Q218 928 245 908T273 850Q273 820 255 798T192 759ZM575 697L615 675L167 -42L127 -20L575 697ZM524 242L444 144H526V242H524ZM522 0Q522
17 523 33T525 67H355V79Q363 87 369 93T380 106L565 335Q576 349 585 363H620V144H656V67H635Q620 67 620 43V0H522Z" />
<glyph unicode="&#xbf;" glyph-name="questiondown" horiz-adv-x="355" d="M172 485Q209 485 234 460T259 399Q259 364 234 338T172 312Q136 312 111 338T86 399Q86 434 111 459T172 485ZM87 280Q143 285 187 274T256 235T282 161Q282 126 268 100T233 53T188
13Q157 -12 133 -37T108 -99Q108 -125 125 -146T181 -167Q232 -167 263 -128T301 -30H323V-183Q283 -198 241 -204T166 -210Q70 -210 22 -170T-27 -67Q-27 -14 2 21T70 85Q102 109 127 133T153 188Q153 214 133 233T87 252V280Z" />
<glyph unicode="&#xc0;" glyph-name="Agrave" horiz-adv-x="683" d="M597 100Q611 66 620 50T641 30T668 23V0H389V23Q429 25 433 47T426 100L376 230Q370 225 361 224T340 222H227Q206 222 195 217T176 192L140 100Q127 67 142 46T201 23V0H19V23Q41 25 56 45T85
100L277 586Q288 612 296 637T312 688H370Q377 662 386 637T405 586L597 100ZM335 265Q349 265 353 269T352 289L283 460H281L203 261Q208 264 215 264T231 265H335ZM332 880Q342 841 360 802T413 724L394 715Q340 736 292 767T209 838Q223 853 245 862T292 876T332
880Z" />
<glyph unicode="&#xc1;" glyph-name="Aacute" horiz-adv-x="683" d="M597 100Q611 66 620 50T641 30T668 23V0H389V23Q429 25 433 47T426 100L376 230Q370 225 361 224T340 222H227Q206 222 195 217T176 192L140 100Q127 67 142 46T201 23V0H19V23Q41 25 56 45T85
100L277 586Q288 612 296 637T312 688H370Q377 662 386 637T405 586L597 100ZM335 265Q349 265 353 269T352 289L283 460H281L203 261Q208 264 215 264T231 265H335ZM380 880Q397 881 420 877T466 863T503 838Q469 798 421 767T318 715L299 724Q334 763 352 802T380
880Z" />
<glyph unicode="&#xc2;" glyph-name="Acircumflex" horiz-adv-x="683" d="M597 100Q611 66 620 50T641 30T668 23V0H389V23Q429 25 433 47T426 100L376 230Q370 225 361 224T340 222H227Q206 222 195 217T176 192L140 100Q127 67 142 46T201 23V0H19V23Q41 25
56 45T85 100L277 586Q288 612 296 637T312 688H370Q377 662 386 637T405 586L597 100ZM335 265Q349 265 353 269T352 289L283 460H281L203 261Q208 264 215 264T231 265H335ZM466 715Q399 736 348 774Q297 736 230 715L211 724Q249 764 283 810T347 899H349Q379
856 413 810T485 724L466 715Z" />
<glyph unicode="&#xc3;" glyph-name="Atilde" horiz-adv-x="683" d="M597 100Q611 66 620 50T641 30T668 23V0H389V23Q429 25 433 47T426 100L376 230Q370 225 361 224T340 222H227Q206 222 195 217T176 192L140 100Q127 67 142 46T201 23V0H19V23Q41 25 56 45T85
100L277 586Q288 612 296 637T312 688H370Q377 662 386 637T405 586L597 100ZM335 265Q349 265 353 269T352 289L283 460H281L203 261Q208 264 215 264T231 265H335ZM261 769Q215 769 201 720L178 725Q186 790 209 827T277 864Q304 864 332 852T388 828T435 815Q481
815 495 864L518 859Q511 795 488 758T419 720Q392 720 364 732T309 757T261 769Z" />
<glyph unicode="&#xc4;" glyph-name="Adieresis" horiz-adv-x="683" d="M597 100Q611 66 620 50T641 30T668 23V0H389V23Q429 25 433 47T426 100L376 230Q370 225 361 224T340 222H227Q206 222 195 217T176 192L140 100Q127 67 142 46T201 23V0H19V23Q41 25 56
45T85 100L277 586Q288 612 296 637T312 688H370Q377 662 386 637T405 586L597 100ZM335 265Q349 265 353 269T352 289L283 460H281L203 261Q208 264 215 264T231 265H335ZM244 716Q209 716 185 740T161 798Q161 831 185 855T244 880Q278 880 302 856T326 798Q326
764 302 740T244 716ZM452 716Q417 716 393 740T369 798Q369 831 393 855T452 880Q486 880 510 856T534 798Q534 764 510 740T452 716Z" />
<glyph unicode="&#xc5;" glyph-name="Aring" horiz-adv-x="683" d="M597 100Q611 66 620 50T641 30T668 23V0H389V23Q429 25 433 47T426 100L376 230Q370 225 361 224T340 222H227Q206 222 195 217T176 192L140 100Q127 67 142 46T201 23V0H19V23Q41 25 56 45T85
100L277 586Q288 612 296 637T312 688H370Q377 662 386 637T405 586L597 100ZM335 265Q349 265 353 269T352 289L283 460H281L203 261Q208 264 215 264T231 265H335ZM339 653Q290 653 257 684T223 760Q223 805 256 836T339 867Q389 867 423 836T457 760Q457 715
423 684T339 653ZM340 696Q361 696 374 714T387 759Q387 785 374 804T339 824Q317 824 305 806T293 761Q293 734 305 715T340 696Z" />
<glyph unicode="&#xc6;" glyph-name="AE" horiz-adv-x="930" d="M878 165H901L893 0H378V23Q407 25 420 38T433 100V230Q427 225 417 224T396 222H273Q253 222 241 218T217 194L160 100Q139 66 150 46T205 23V0H19V23Q41 25 60 45T101 100L413 609Q388 641 323
642V665H834V525H811Q809 568 782 595T697 622H637Q616 622 605 611T593 565V368Q601 374 612 376T640 378H717Q747 378 767 395T788 442H811V272H788Q787 309 767 322T717 335H642Q615 335 604 326T593 291V100Q593 65 608 54T669 43H744Q804 43 839 79T878 165ZM433
294V545H431L257 261Q262 264 269 264T286 265H406Q421 265 427 270T433 294Z" />
<glyph unicode="&#xc7;" glyph-name="Ccedilla" horiz-adv-x="706" d="M417 -15Q312 -15 231 27T104 145T58 323Q58 406 88 471T170 584T291 655T438 680Q497 680 551 669T637 643V485H614Q594 546 566 578T504 624T431 637Q238 637 238 357Q238 265 257 190T318
72T425 28Q478 28 521 54T594 125T638 220H661L653 68Q620 32 560 9T417 -15ZM422 -43Q469 -55 491 -81T514 -142Q514 -172 499 -193T459 -224T407 -235Q385 -235 362 -227T325 -198L336 -182Q374 -196 396 -190T419 -162Q419 -148 408 -136T369 -119L393 13H432L422
-43Z" />
<glyph unicode="&#xc8;" glyph-name="Egrave" horiz-adv-x="630" d="M58 0V23Q87 25 100 38T113 100V565Q113 614 99 627T43 642V665H534V525H511Q509 568 482 595T397 622H317Q296 622 285 611T273 565V368Q281 374 292 376T320 378H417Q447 378 467 395T488
442H511V272H488Q487 309 467 322T417 335H322Q295 335 284 326T273 291V100Q273 65 288 54T349 43H444Q504 43 539 79T578 165H601L593 0H58ZM329 880Q339 841 357 802T410 724L391 715Q337 736 289 767T206 838Q220 853 242 862T289 876T329 880Z" />
<glyph unicode="&#xc9;" glyph-name="Eacute" horiz-adv-x="630" d="M58 0V23Q87 25 100 38T113 100V565Q113 614 99 627T43 642V665H534V525H511Q509 568 482 595T397 622H317Q296 622 285 611T273 565V368Q281 374 292 376T320 378H417Q447 378 467 395T488
442H511V272H488Q487 309 467 322T417 335H322Q295 335 284 326T273 291V100Q273 65 288 54T349 43H444Q504 43 539 79T578 165H601L593 0H58ZM377 880Q394 881 417 877T463 863T500 838Q466 798 418 767T315 715L296 724Q331 763 349 802T377 880Z" />
<glyph unicode="&#xca;" glyph-name="Ecircumflex" horiz-adv-x="630" d="M58 0V23Q87 25 100 38T113 100V565Q113 614 99 627T43 642V665H534V525H511Q509 568 482 595T397 622H317Q296 622 285 611T273 565V368Q281 374 292 376T320 378H417Q447 378 467 395T488
442H511V272H488Q487 309 467 322T417 335H322Q295 335 284 326T273 291V100Q273 65 288 54T349 43H444Q504 43 539 79T578 165H601L593 0H58ZM463 715Q396 736 345 774Q294 736 227 715L208 724Q246 764 280 810T344 899H346Q376 856 410 810T482 724L463 715Z"
/>
<glyph unicode="&#xcb;" glyph-name="Edieresis" horiz-adv-x="630" d="M58 0V23Q87 25 100 38T113 100V565Q113 614 99 627T43 642V665H534V525H511Q509 568 482 595T397 622H317Q296 622 285 611T273 565V368Q281 374 292 376T320 378H417Q447 378 467 395T488
442H511V272H488Q487 309 467 322T417 335H322Q295 335 284 326T273 291V100Q273 65 288 54T349 43H444Q504 43 539 79T578 165H601L593 0H58ZM241 716Q206 716 182 740T158 798Q158 831 182 855T241 880Q275 880 299 856T323 798Q323 764 299 740T241 716ZM449
716Q414 716 390 740T366 798Q366 831 390 855T449 880Q483 880 507 856T531 798Q531 764 507 740T449 716Z" />
<glyph unicode="&#xcc;" glyph-name="Igrave" horiz-adv-x="396" d="M63 0V23Q92 25 105 38T118 100V565Q118 614 104 627T48 642V665H333V642Q304 641 291 628T278 565V100Q278 51 293 38T348 23V0H63ZM182 880Q192 841 210 802T263 724L244 715Q190 736 142
767T59 838Q73 853 95 862T142 876T182 880Z" />
<glyph unicode="&#xcd;" glyph-name="Iacute" horiz-adv-x="396" d="M63 0V23Q92 25 105 38T118 100V565Q118 614 104 627T48 642V665H333V642Q304 641 291 628T278 565V100Q278 51 293 38T348 23V0H63ZM230 880Q247 881 270 877T316 863T353 838Q319 798 271
767T168 715L149 724Q184 763 202 802T230 880Z" />
<glyph unicode="&#xce;" glyph-name="Icircumflex" horiz-adv-x="396" d="M63 0V23Q92 25 105 38T118 100V565Q118 614 104 627T48 642V665H333V642Q304 641 291 628T278 565V100Q278 51 293 38T348 23V0H63ZM316 715Q249 736 198 774Q147 736 80 715L61 724Q99
764 133 810T197 899H199Q229 856 263 810T335 724L316 715Z" />
<glyph unicode="&#xcf;" glyph-name="Idieresis" horiz-adv-x="396" d="M63 0V23Q92 25 105 38T118 100V565Q118 614 104 627T48 642V665H333V642Q304 641 291 628T278 565V100Q278 51 293 38T348 23V0H63ZM94 716Q59 716 35 740T11 798Q11 831 35 855T94 880Q128
880 152 856T176 798Q176 764 152 740T94 716ZM302 716Q267 716 243 740T219 798Q219 831 243 855T302 880Q336 880 360 856T384 798Q384 764 360 740T302 716Z" />
<glyph unicode="&#xd0;" glyph-name="Eth" horiz-adv-x="791" d="M58 0V23Q87 25 100 38T113 100V565Q113 614 99 627T43 642V665H113Q168 665 225 667T343 670Q457 670 545 639T683 538T733 353Q733 261 700 194T612 84T490 21T355 0H58ZM333 43Q410 43 458 81T530
187T553 338Q553 441 526 504T451 597T343 627Q303 627 288 616T273 565V100Q273 65 284 54T333 43ZM396 340H26V383H396V340Z" />
<glyph unicode="&#xd1;" glyph-name="Ntilde" horiz-adv-x="788" d="M644 -8Q629 8 613 23T562 70L168 430H166V100Q166 66 183 46T244 23V0H59V23Q88 25 101 45T114 100V565Q114 614 100 627T44 642V665H164Q179 646 196 631T235 595L633 235H635V565Q635 599
618 620T557 642V665H742V642Q713 641 700 620T687 565V100Q687 72 687 47T689 -8H644ZM322 769Q276 769 262 720L239 725Q247 790 270 827T338 864Q365 864 393 852T449 828T496 815Q542 815 556 864L579 859Q572 795 549 758T480 720Q453 720 425 732T370 757T322
769Z" />
<glyph unicode="&#xd2;" glyph-name="Ograve" horiz-adv-x="795" d="M398 680Q469 680 530 656T638 587T711 477T737 334Q737 255 711 191T639 81T530 10T397 -15Q327 -15 266 9T157 78T84 188T58 331Q58 410 84 474T156 584T265 655T398 680ZM418 28Q470 28 500
62T543 158T557 300Q557 463 508 550T377 637Q326 637 296 603T252 508T238 365Q238 202 287 115T418 28ZM383 880Q393 841 411 802T464 724L445 715Q391 736 343 767T260 838Q274 853 296 862T343 876T383 880Z" />
<glyph unicode="&#xd3;" glyph-name="Oacute" horiz-adv-x="795" d="M398 680Q469 680 530 656T638 587T711 477T737 334Q737 255 711 191T639 81T530 10T397 -15Q327 -15 266 9T157 78T84 188T58 331Q58 410 84 474T156 584T265 655T398 680ZM418 28Q470 28 500
62T543 158T557 300Q557 463 508 550T377 637Q326 637 296 603T252 508T238 365Q238 202 287 115T418 28ZM431 880Q448 881 471 877T517 863T554 838Q520 798 472 767T369 715L350 724Q385 763 403 802T431 880Z" />
<glyph unicode="&#xd4;" glyph-name="Ocircumflex" horiz-adv-x="795" d="M398 680Q469 680 530 656T638 587T711 477T737 334Q737 255 711 191T639 81T530 10T397 -15Q327 -15 266 9T157 78T84 188T58 331Q58 410 84 474T156 584T265 655T398 680ZM418 28Q470
28 500 62T543 158T557 300Q557 463 508 550T377 637Q326 637 296 603T252 508T238 365Q238 202 287 115T418 28ZM517 715Q450 736 399 774Q348 736 281 715L262 724Q300 764 334 810T398 899H400Q430 856 464 810T536 724L517 715Z" />
<glyph unicode="&#xd5;" glyph-name="Otilde" horiz-adv-x="795" d="M398 680Q469 680 530 656T638 587T711 477T737 334Q737 255 711 191T639 81T530 10T397 -15Q327 -15 266 9T157 78T84 188T58 331Q58 410 84 474T156 584T265 655T398 680ZM418 28Q470 28 500
62T543 158T557 300Q557 463 508 550T377 637Q326 637 296 603T252 508T238 365Q238 202 287 115T418 28ZM312 769Q266 769 252 720L229 725Q237 790 260 827T328 864Q355 864 383 852T439 828T486 815Q532 815 546 864L569 859Q562 795 539 758T470 720Q443 720
415 732T360 757T312 769Z" />
<glyph unicode="&#xd6;" glyph-name="Odieresis" horiz-adv-x="795" d="M398 680Q469 680 530 656T638 587T711 477T737 334Q737 255 711 191T639 81T530 10T397 -15Q327 -15 266 9T157 78T84 188T58 331Q58 410 84 474T156 584T265 655T398 680ZM418 28Q470 28
500 62T543 158T557 300Q557 463 508 550T377 637Q326 637 296 603T252 508T238 365Q238 202 287 115T418 28ZM295 716Q260 716 236 740T212 798Q212 831 236 855T295 880Q329 880 353 856T377 798Q377 764 353 740T295 716ZM503 716Q468 716 444 740T420 798Q420
831 444 855T503 880Q537 880 561 856T585 798Q585 764 561 740T503 716Z" />
<glyph unicode="&#xd7;" glyph-name="multiply" horiz-adv-x="600" d="M495 390L335 230L494 71L460 37L301 196L141 36L107 71L266 230L106 390L141 425L301 265L460 424L495 390Z" />
<glyph unicode="&#xd8;" glyph-name="Oslash" horiz-adv-x="795" d="M398 680Q485 680 559 643L598 699L633 674L596 621Q660 577 698 504T737 334Q737 255 711 191T639 81T530 10T397 -15Q282 -15 194 48L137 -34L102 -9L161 75Q113 120 86 185T58 331Q58 410
84 474T156 584T265 655T398 680ZM238 365Q238 276 254 208L501 561Q454 637 377 637Q326 637 296 603T252 508T238 365ZM418 28Q470 28 500 62T543 158T557 300Q557 367 548 421T523 517L269 155Q317 28 418 28Z" />
<glyph unicode="&#xd9;" glyph-name="Ugrave" horiz-adv-x="801" d="M304 -15Q203 -15 153 42T103 188V565Q103 614 89 627T33 642V665H318V642Q289 641 276 628T263 565V198Q263 149 283 120T354 90Q408 90 448 122T510 208T533 322V565Q533 614 519 627T463
642V665H743V642Q714 641 701 628T688 565V90Q688 49 703 37T758 23V0H555Q549 16 546 38T543 100V183H541Q510 88 452 37T304 -15ZM376 880Q386 841 404 802T457 724L438 715Q384 736 336 767T253 838Q267 853 289 862T336 876T376 880Z" />
<glyph unicode="&#xda;" glyph-name="Uacute" horiz-adv-x="801" d="M304 -15Q203 -15 153 42T103 188V565Q103 614 89 627T33 642V665H318V642Q289 641 276 628T263 565V198Q263 149 283 120T354 90Q408 90 448 122T510 208T533 322V565Q533 614 519 627T463
642V665H743V642Q714 641 701 628T688 565V90Q688 49 703 37T758 23V0H555Q549 16 546 38T543 100V183H541Q510 88 452 37T304 -15ZM424 880Q441 881 464 877T510 863T547 838Q513 798 465 767T362 715L343 724Q378 763 396 802T424 880Z" />
<glyph unicode="&#xdb;" glyph-name="Ucircumflex" horiz-adv-x="801" d="M304 -15Q203 -15 153 42T103 188V565Q103 614 89 627T33 642V665H318V642Q289 641 276 628T263 565V198Q263 149 283 120T354 90Q408 90 448 122T510 208T533 322V565Q533 614 519 627T463
642V665H743V642Q714 641 701 628T688 565V90Q688 49 703 37T758 23V0H555Q549 16 546 38T543 100V183H541Q510 88 452 37T304 -15ZM510 715Q443 736 392 774Q341 736 274 715L255 724Q293 764 327 810T391 899H393Q423 856 457 810T529 724L510 715Z" />
<glyph unicode="&#xdc;" glyph-name="Udieresis" horiz-adv-x="801" d="M304 -15Q203 -15 153 42T103 188V565Q103 614 89 627T33 642V665H318V642Q289 641 276 628T263 565V198Q263 149 283 120T354 90Q408 90 448 122T510 208T533 322V565Q533 614 519 627T463
642V665H743V642Q714 641 701 628T688 565V90Q688 49 703 37T758 23V0H555Q549 16 546 38T543 100V183H541Q510 88 452 37T304 -15ZM288 716Q253 716 229 740T205 798Q205 831 229 855T288 880Q322 880 346 856T370 798Q370 764 346 740T288 716ZM496 716Q461 716
437 740T413 798Q413 831 437 855T496 880Q530 880 554 856T578 798Q578 764 554 740T496 716Z" />
<glyph unicode="&#xdd;" glyph-name="Yacute" horiz-adv-x="634" d="M428 665H615V642Q593 640 575 619T539 565L416 337Q408 321 403 308T397 269V100Q397 51 412 38T467 23V0H182V23Q211 25 224 38T237 100V269Q237 295 233 308T220 337L91 565Q72 599 60 615T35
636T5 642V665H301V642Q257 640 255 619T270 565L374 374H376L480 565Q498 598 485 619T428 642V665ZM390 880Q407 881 430 877T476 863T513 838Q479 798 431 767T328 715L309 724Q344 763 362 802T390 880Z" />
<glyph unicode="&#xde;" glyph-name="Thorn" horiz-adv-x="663" d="M58 0V23Q87 25 100 38T113 100V565Q113 614 99 627T43 642V665H328V642Q299 641 286 628T273 565V526Q299 528 321 529T360 530Q459 530 517 509T599 450T624 364Q624 304 590 255T482 179T292
161V196Q345 194 380 215T432 273T449 356Q449 418 419 452T326 487Q301 487 287 478T273 444V100Q273 51 288 38T343 23V0H58Z" />
<glyph unicode="&#xdf;" glyph-name="germandbls" horiz-adv-x="661" d="M29 417V460H79V498Q79 572 107 626T181 717T282 772T393 790Q473 790 517 755T561 663Q561 628 546 604T508 561T464 528T426 496T410 458Q410 432 433 409T490 362T559 308T616 240T639
151Q639 100 613 63T541 5T435 -15Q365 -15 328 12T290 86Q290 103 296 125T321 170H344Q351 109 372 69T443 28Q477 28 493 47T510 96Q510 132 491 155T442 198T384 240T335 293T315 372Q315 413 328 444T360 505T392 566T406 641Q406 659 402 680T385 717T346
733Q318 733 291 711T247 644T229 533V110Q229 73 233 55T247 30T274 23V0H34V23Q51 24 61 30T75 54T79 110V417H29Z" />
<glyph unicode="&#xe0;" glyph-name="agrave" horiz-adv-x="534" d="M146 -15Q91 -15 65 18T38 94Q38 160 98 201T286 276V329Q286 376 267 396T212 417Q164 417 133 381T89 284H66V428Q100 445 154 460T273 475Q446 475 446 341V123Q446 100 452 88T476 75Q486
75 498 79T525 97L541 81Q519 35 483 13T401 -10Q352 -10 326 9T288 66H286Q263 26 225 6T146 -15ZM224 75Q244 75 259 84T286 106V236Q240 223 217 202T186 160T178 125Q178 104 190 90T224 75ZM228 1011Q235 959 251 906T298 805L279 796Q247 816 214 844T152
906T104 969Q120 982 143 991T189 1006T228 1011Z" />
<glyph unicode="&#xe1;" glyph-name="aacute" horiz-adv-x="534" d="M146 -15Q91 -15 65 18T38 94Q38 160 98 201T286 276V329Q286 376 267 396T212 417Q164 417 133 381T89 284H66V428Q100 445 154 460T273 475Q446 475 446 341V123Q446 100 452 88T476 75Q486
75 498 79T525 97L541 81Q519 35 483 13T401 -10Q352 -10 326 9T288 66H286Q263 26 225 6T146 -15ZM224 75Q244 75 259 84T286 106V236Q240 223 217 202T186 160T178 125Q178 104 190 90T224 75ZM294 755Q310 755 333 750T379 736T418 713Q400 683 371 650T309
589T243 540L224 549Q255 596 271 649T294 755Z" />
<glyph unicode="&#xe2;" glyph-name="acircumflex" horiz-adv-x="534" d="M146 -15Q91 -15 65 18T38 94Q38 160 98 201T286 276V329Q286 376 267 396T212 417Q164 417 133 381T89 284H66V428Q100 445 154 460T273 475Q446 475 446 341V123Q446 100 452 88T476
75Q486 75 498 79T525 97L541 81Q519 35 483 13T401 -10Q352 -10 326 9T288 66H286Q263 26 225 6T146 -15ZM224 75Q244 75 259 84T286 106V236Q240 223 217 202T186 160T178 125Q178 104 190 90T224 75ZM371 520Q340 537 313 561T263 610Q240 585 213 561T155 520L136
529Q171 576 203 632T262 754H264Q290 689 322 633T390 529L371 520Z" />
<glyph unicode="&#xe3;" glyph-name="atilde" horiz-adv-x="534" d="M146 -15Q91 -15 65 18T38 94Q38 160 98 201T286 276V329Q286 376 267 396T212 417Q164 417 133 381T89 284H66V428Q100 445 154 460T273 475Q446 475 446 341V123Q446 100 452 88T476 75Q486
75 498 79T525 97L541 81Q519 35 483 13T401 -10Q352 -10 326 9T288 66H286Q263 26 225 6T146 -15ZM224 75Q244 75 259 84T286 106V236Q240 223 217 202T186 160T178 125Q178 104 190 90T224 75ZM181 845Q134 845 121 786L98 791Q106 856 129 893T197 930Q224 930
250 916T300 886T345 871Q392 871 405 930L428 925Q421 861 398 824T329 786Q302 786 276 801T226 830T181 845Z" />
<glyph unicode="&#xe4;" glyph-name="adieresis" horiz-adv-x="534" d="M146 -15Q91 -15 65 18T38 94Q38 160 98 201T286 276V329Q286 376 267 396T212 417Q164 417 133 381T89 284H66V428Q100 445 154 460T273 475Q446 475 446 341V123Q446 100 452 88T476 75Q486
75 498 79T525 97L541 81Q519 35 483 13T401 -10Q352 -10 326 9T288 66H286Q263 26 225 6T146 -15ZM224 75Q244 75 259 84T286 106V236Q240 223 217 202T186 160T178 125Q178 104 190 90T224 75ZM159 801Q126 801 104 824T81 879Q81 911 103 934T159 958Q192 958
214 935T237 879Q237 847 215 824T159 801ZM365 801Q332 801 310 824T287 879Q287 911 309 934T365 958Q398 958 420 935T443 879Q443 847 421 824T365 801Z" />
<glyph unicode="&#xe5;" glyph-name="aring" horiz-adv-x="534" d="M146 -15Q91 -15 65 18T38 94Q38 160 98 201T286 276V329Q286 376 267 396T212 417Q164 417 133 381T89 284H66V428Q100 445 154 460T273 475Q446 475 446 341V123Q446 100 452 88T476 75Q486
75 498 79T525 97L541 81Q519 35 483 13T401 -10Q352 -10 326 9T288 66H286Q263 26 225 6T146 -15ZM224 75Q244 75 259 84T286 106V236Q240 223 217 202T186 160T178 125Q178 104 190 90T224 75ZM262 528Q210 528 179 557T147 632Q147 677 178 709T265 742Q317
742 349 713T381 638Q381 593 349 561T262 528ZM265 571Q285 571 295 589T306 633Q306 662 293 680T261 699Q242 699 232 680T222 637Q222 609 234 590T265 571Z" />
<glyph unicode="&#xe6;" glyph-name="ae" horiz-adv-x="745" d="M707 149L723 133Q695 66 647 26T515 -15Q449 -15 399 12T320 88Q298 45 270 23T212 -7T158 -15Q115 -15 89 0T50 40T38 90Q38 155 104 199T286 266V329Q286 380 267 401T212 422Q164 422 133 387T89
290H66V428Q98 444 150 459T266 475Q355 475 392 438Q452 475 530 475Q622 475 669 426T717 296L428 249Q436 170 477 135T574 100Q603 100 640 110T707 149ZM505 432Q470 432 449 394T426 289L571 313Q570 361 555 396T505 432ZM225 75Q243 75 264 85T304 121Q286
166 286 224Q232 209 205 183T178 125Q178 104 190 90T225 75Z" />
<glyph unicode="&#xe7;" glyph-name="ccedilla" horiz-adv-x="481" d="M255 -15Q190 -15 139 14T59 96T30 222Q30 287 54 334T118 413T205 459T299 475Q334 475 375 468T440 443V290H417Q404 366 369 399T294 432Q249 432 220 388T190 266Q190 206 208 170T255
117T320 100Q343 100 377 110T441 149L457 133Q431 70 384 28T255 -15ZM281 -43Q328 -55 350 -81T373 -142Q373 -172 358 -193T318 -224T266 -235Q244 -235 221 -227T184 -198L195 -182Q233 -196 255 -190T278 -162Q278 -148 267 -136T228 -119L252 13H291L281
-43Z" />
<glyph unicode="&#xe8;" glyph-name="egrave" horiz-adv-x="504" d="M274 -15Q206 -15 151 14T63 97T30 225Q30 305 66 361T161 446T289 475Q381 475 428 426T476 296L181 259Q187 174 231 137T333 100Q362 100 399 110T466 149L482 133Q454 66 406 26T274 -15ZM259
432Q225 432 204 397T180 299L325 317Q323 364 309 398T259 432ZM218 1011Q225 959 241 906T288 805L269 796Q237 816 204 844T142 906T94 969Q110 982 133 991T179 1006T218 1011Z" />
<glyph unicode="&#xe9;" glyph-name="eacute" horiz-adv-x="504" d="M274 -15Q206 -15 151 14T63 97T30 225Q30 305 66 361T161 446T289 475Q381 475 428 426T476 296L181 259Q187 174 231 137T333 100Q362 100 399 110T466 149L482 133Q454 66 406 26T274 -15ZM259
432Q225 432 204 397T180 299L325 317Q323 364 309 398T259 432ZM284 755Q300 755 323 750T369 736T408 713Q390 683 361 650T299 589T233 540L214 549Q245 596 261 649T284 755Z" />
<glyph unicode="&#xea;" glyph-name="ecircumflex" horiz-adv-x="504" d="M274 -15Q206 -15 151 14T63 97T30 225Q30 305 66 361T161 446T289 475Q381 475 428 426T476 296L181 259Q187 174 231 137T333 100Q362 100 399 110T466 149L482 133Q454 66 406 26T274
-15ZM259 432Q225 432 204 397T180 299L325 317Q323 364 309 398T259 432ZM361 776Q330 793 303 817T253 866Q230 841 203 817T145 776L126 785Q161 832 193 888T252 1010H254Q280 945 312 889T380 785L361 776Z" />
<glyph unicode="&#xeb;" glyph-name="edieresis" horiz-adv-x="504" d="M274 -15Q206 -15 151 14T63 97T30 225Q30 305 66 361T161 446T289 475Q381 475 428 426T476 296L181 259Q187 174 231 137T333 100Q362 100 399 110T466 149L482 133Q454 66 406 26T274
-15ZM259 432Q225 432 204 397T180 299L325 317Q323 364 309 398T259 432ZM149 801Q116 801 94 824T71 879Q71 911 93 934T149 958Q182 958 204 935T227 879Q227 847 205 824T149 801ZM355 801Q322 801 300 824T277 879Q277 911 299 934T355 958Q388 958 410 935T433
879Q433 847 411 824T355 801Z" />
<glyph unicode="&#xec;" glyph-name="igrave" horiz-adv-x="316" d="M233 110Q233 73 238 55T256 30T293 23V0H38V23Q55 24 65 30T79 54T83 110V340Q83 355 78 360T61 365Q53 365 44 363T23 357L13 380L231 481L237 475Q236 460 235 429T233 349V110ZM128 1011Q135
959 151 906T198 805L179 796Q147 816 114 844T52 906T4 969Q20 982 43 991T89 1006T128 1011Z" />
<glyph unicode="&#xed;" glyph-name="iacute" horiz-adv-x="316" d="M233 110Q233 73 238 55T256 30T293 23V0H38V23Q55 24 65 30T79 54T83 110V340Q83 355 78 360T61 365Q53 365 44 363T23 357L13 380L231 481L237 475Q236 460 235 429T233 349V110ZM194 1011Q210
1011 233 1006T279 992T318 969Q300 939 271 906T209 845T143 796L124 805Q155 852 171 905T194 1011Z" />
<glyph unicode="&#xee;" glyph-name="icircumflex" horiz-adv-x="316" d="M233 110Q233 73 238 55T256 30T293 23V0H38V23Q55 24 65 30T79 54T83 110V340Q83 355 78 360T61 365Q53 365 44 363T23 357L13 380L231 481L237 475Q236 460 235 429T233 349V110ZM271
776Q240 793 213 817T163 866Q140 841 113 817T55 776L36 785Q71 832 103 888T162 1010H164Q190 945 222 889T290 785L271 776Z" />
<glyph unicode="&#xef;" glyph-name="idieresis" horiz-adv-x="316" d="M233 110Q233 73 238 55T256 30T293 23V0H38V23Q55 24 65 30T79 54T83 110V340Q83 355 78 360T61 365Q53 365 44 363T23 357L13 380L231 481L237 475Q236 460 235 429T233 349V110ZM315 801Q282
801 260 824T237 879Q237 911 259 934T315 958Q348 958 370 935T393 879Q393 847 371 824T315 801ZM521 801Q488 801 466 824T443 879Q443 911 465 934T521 958Q554 958 576 935T599 879Q599 847 577 824T521 801Z" />
<glyph unicode="&#xf0;" glyph-name="eth" horiz-adv-x="570" d="M281 -15Q207 -15 150 14T62 95T30 213Q30 288 62 342T150 425T275 455Q306 455 326 451T365 439H367Q362 484 345 533T292 628L193 545L164 578L262 660Q236 686 202 708T125 747L141 790Q195
774 239 754T321 710L417 790L446 757L358 683Q429 628 468 560T524 419T540 273Q540 169 504 106T408 14T281 -15ZM291 28Q330 28 357 68T385 206Q385 258 376 305T344 382T284 412Q245 412 218 372T190 234Q190 183 199 136T231 58T291 28Z" />
<glyph unicode="&#xf1;" glyph-name="ntilde" horiz-adv-x="614" d="M533 110Q533 73 538 55T556 30T593 23V0H338V23Q355 24 365 30T379 54T383 110V309Q383 338 374 356T330 375Q311 375 288 369T233 343V110Q233 73 238 55T256 30T293 23V0H38V23Q55 24 65
30T79 54T83 110V340Q83 355 78 360T61 365Q49 365 33 361L23 384L231 481L237 475Q235 466 233 437T230 378H233Q253 401 280 423T340 460T413 475Q475 475 504 446T533 351V110ZM241 589Q194 589 181 530L158 535Q166 600 189 637T257 674Q284 674 310 660T360
630T405 615Q452 615 465 674L488 669Q481 605 458 568T389 530Q362 530 336 545T286 574T241 589Z" />
<glyph unicode="&#xf2;" glyph-name="ograve" horiz-adv-x="570" d="M292 475Q365 475 420 446T508 362T540 236Q540 157 503 101T407 15T278 -15Q206 -15 150 15T62 98T30 224Q30 303 67 359T163 445T292 475ZM295 28Q332 28 356 70T380 200Q380 264 367 316T331
400T275 432Q238 432 214 390T190 260Q190 196 203 144T240 60T295 28ZM250 755Q257 703 273 650T320 549L301 540Q269 560 236 588T174 650T126 713Q142 726 165 735T211 750T250 755Z" />
<glyph unicode="&#xf3;" glyph-name="oacute" horiz-adv-x="570" d="M292 475Q365 475 420 446T508 362T540 236Q540 157 503 101T407 15T278 -15Q206 -15 150 15T62 98T30 224Q30 303 67 359T163 445T292 475ZM295 28Q332 28 356 70T380 200Q380 264 367 316T331
400T275 432Q238 432 214 390T190 260Q190 196 203 144T240 60T295 28ZM316 755Q332 755 355 750T401 736T440 713Q422 683 393 650T331 589T265 540L246 549Q277 596 293 649T316 755Z" />
<glyph unicode="&#xf4;" glyph-name="ocircumflex" horiz-adv-x="570" d="M292 475Q365 475 420 446T508 362T540 236Q540 157 503 101T407 15T278 -15Q206 -15 150 15T62 98T30 224Q30 303 67 359T163 445T292 475ZM295 28Q332 28 356 70T380 200Q380 264 367
316T331 400T275 432Q238 432 214 390T190 260Q190 196 203 144T240 60T295 28ZM393 520Q362 537 335 561T285 610Q262 585 235 561T177 520L158 529Q193 576 225 632T284 754H286Q312 689 344 633T412 529L393 520Z" />
<glyph unicode="&#xf5;" glyph-name="otilde" horiz-adv-x="570" d="M292 475Q365 475 420 446T508 362T540 236Q540 157 503 101T407 15T278 -15Q206 -15 150 15T62 98T30 224Q30 303 67 359T163 445T292 475ZM295 28Q332 28 356 70T380 200Q380 264 367 316T331
400T275 432Q238 432 214 390T190 260Q190 196 203 144T240 60T295 28ZM203 845Q156 845 143 786L120 791Q128 856 151 893T219 930Q246 930 272 916T322 886T367 871Q414 871 427 930L450 925Q443 861 420 824T351 786Q324 786 298 801T248 830T203 845Z" />
<glyph unicode="&#xf6;" glyph-name="odieresis" horiz-adv-x="570" d="M292 475Q365 475 420 446T508 362T540 236Q540 157 503 101T407 15T278 -15Q206 -15 150 15T62 98T30 224Q30 303 67 359T163 445T292 475ZM295 28Q332 28 356 70T380 200Q380 264 367 316T331
400T275 432Q238 432 214 390T190 260Q190 196 203 144T240 60T295 28ZM181 801Q148 801 126 824T103 879Q103 911 125 934T181 958Q214 958 236 935T259 879Q259 847 237 824T181 801ZM387 801Q354 801 332 824T309 879Q309 911 331 934T387 958Q420 958 442 935T465
879Q465 847 443 824T387 801Z" />
<glyph unicode="&#xf7;" glyph-name="divide" horiz-adv-x="600" d="M300 301Q270 301 249 322T228 372Q228 401 249 422T300 444Q330 444 350 423T371 372Q371 343 351 322T300 301ZM505 205H95V255H505V205ZM300 24Q270 24 249 45T228 95Q228 124 249 145T300
167Q330 167 350 146T371 95Q371 66 351 45T300 24Z" />
<glyph unicode="&#xf8;" glyph-name="oslash" horiz-adv-x="570" d="M292 475Q359 475 413 449L456 511L488 489L446 429Q490 398 515 349T540 236Q540 157 503 101T407 15T278 -15Q209 -15 154 12L110 -51L78 -29L121 33Q78 64 54 113T30 224Q30 303 66 359T163
445T292 475ZM190 260Q190 199 202 148L352 362Q338 395 319 413T275 432Q238 432 214 390T190 260ZM295 28Q332 28 356 70T380 200Q380 263 367 316L217 101Q230 67 250 48T295 28Z" />
<glyph unicode="&#xf9;" glyph-name="ugrave" horiz-adv-x="607" d="M573 99L583 76L375 -21L369 -15Q371 -6 373 23T376 82H373Q353 60 327 38T269 0T198 -15Q137 -15 108 15T78 109V340Q78 355 73 360T56 365Q44 365 28 361L18 384L226 481L232 475Q231 460
230 429T228 349V151Q228 123 236 104T276 85Q296 85 319 91T373 116V340Q373 355 368 360T351 365Q339 365 323 361L313 384L521 481L527 475Q526 460 525 429T523 349V120Q523 105 529 100T545 95Q557 95 573 99ZM269 755Q276 703 292 650T339 549L320 540Q288
560 255 588T193 650T145 713Q161 726 184 735T230 750T269 755Z" />
<glyph unicode="&#xfa;" glyph-name="uacute" horiz-adv-x="607" d="M573 99L583 76L375 -21L369 -15Q371 -6 373 23T376 82H373Q353 60 327 38T269 0T198 -15Q137 -15 108 15T78 109V340Q78 355 73 360T56 365Q44 365 28 361L18 384L226 481L232 475Q231 460
230 429T228 349V151Q228 123 236 104T276 85Q296 85 319 91T373 116V340Q373 355 368 360T351 365Q339 365 323 361L313 384L521 481L527 475Q526 460 525 429T523 349V120Q523 105 529 100T545 95Q557 95 573 99ZM335 755Q351 755 374 750T420 736T459 713Q441
683 412 650T350 589T284 540L265 549Q296 596 312 649T335 755Z" />
<glyph unicode="&#xfb;" glyph-name="ucircumflex" horiz-adv-x="607" d="M573 99L583 76L375 -21L369 -15Q371 -6 373 23T376 82H373Q353 60 327 38T269 0T198 -15Q137 -15 108 15T78 109V340Q78 355 73 360T56 365Q44 365 28 361L18 384L226 481L232 475Q231
460 230 429T228 349V151Q228 123 236 104T276 85Q296 85 319 91T373 116V340Q373 355 368 360T351 365Q339 365 323 361L313 384L521 481L527 475Q526 460 525 429T523 349V120Q523 105 529 100T545 95Q557 95 573 99ZM412 520Q381 537 354 561T304 610Q281 585
254 561T196 520L177 529Q212 576 244 632T303 754H305Q331 689 363 633T431 529L412 520Z" />
<glyph unicode="&#xfc;" glyph-name="udieresis" horiz-adv-x="607" d="M573 99L583 76L375 -21L369 -15Q371 -6 373 23T376 82H373Q353 60 327 38T269 0T198 -15Q137 -15 108 15T78 109V340Q78 355 73 360T56 365Q44 365 28 361L18 384L226 481L232 475Q231 460
230 429T228 349V151Q228 123 236 104T276 85Q296 85 319 91T373 116V340Q373 355 368 360T351 365Q339 365 323 361L313 384L521 481L527 475Q526 460 525 429T523 349V120Q523 105 529 100T545 95Q557 95 573 99ZM200 801Q167 801 145 824T122 879Q122 911 144
934T200 958Q233 958 255 935T278 879Q278 847 256 824T200 801ZM406 801Q373 801 351 824T328 879Q328 911 350 934T406 958Q439 958 461 935T484 879Q484 847 462 824T406 801Z" />
<glyph unicode="&#xfd;" glyph-name="yacute" horiz-adv-x="493" d="M84 -235Q39 -235 21 -208T3 -146Q3 -129 7 -106T19 -60H42Q49 -97 61 -115T99 -134Q134 -134 165 -96T222 10L55 360Q40 393 30 408T12 430T-7 437V460H246V437Q221 436 213 424T208 395T219
360L299 185H301L378 360Q389 386 380 410T337 437V460H498V437Q475 435 459 411T432 360L308 79Q260 -30 225 -99T157 -202T84 -235ZM306 755Q322 755 345 750T391 736T430 713Q412 683 383 650T321 589T255 540L236 549Q267 596 283 649T306 755Z" />
<glyph unicode="&#xfe;" glyph-name="thorn" horiz-adv-x="600" d="M297 -15Q277 -15 261 -14T230 -11V-115Q230 -152 235 -170T255 -195T300 -202V-225H35V-202Q52 -201 62 -195T76 -171T80 -115V649Q80 664 75 669T58 674Q50 674 41 672T20 666L10 689L228 790L234
784Q233 769 232 738T230 658V380Q250 421 291 448T389 475Q437 475 478 448T545 369T570 246Q570 174 545 125T480 44T391 -1T297 -15ZM306 375Q287 375 267 368T230 343V77Q258 33 306 33Q350 33 380 79T410 203Q410 290 380 332T306 375Z" />
<glyph unicode="&#xff;" glyph-name="ydieresis" horiz-adv-x="493" d="M84 -235Q39 -235 21 -208T3 -146Q3 -129 7 -106T19 -60H42Q49 -97 61 -115T99 -134Q134 -134 165 -96T222 10L55 360Q40 393 30 408T12 430T-7 437V460H246V437Q221 436 213 424T208 395T219
360L299 185H301L378 360Q389 386 380 410T337 437V460H498V437Q475 435 459 411T432 360L308 79Q260 -30 225 -99T157 -202T84 -235ZM171 801Q138 801 116 824T93 879Q93 911 115 934T171 958Q204 958 226 935T249 879Q249 847 227 824T171 801ZM377 801Q344 801
322 824T299 879Q299 911 321 934T377 958Q410 958 432 935T455 879Q455 847 433 824T377 801Z" />
<glyph unicode="&#x2013;" glyph-name="endash" horiz-adv-x="500" d="M500 210H0V260H500V210Z" />
<glyph unicode="&#x2014;" glyph-name="emdash" horiz-adv-x="825" d="M825 210H0V260H825V210Z" />
<glyph unicode="&#x2018;" glyph-name="quoteleft" horiz-adv-x="205" d="M20 365Q9 393 5 424T0 474Q0 525 24 570T89 647T180 690V661Q161 649 148 626T129 575T122 526Q122 511 126 483T143 426Q120 401 87 384T20 365Z" />
<glyph unicode="&#x2019;" glyph-name="quoteright" horiz-adv-x="205" d="M185 690Q196 662 200 632T205 581Q205 530 181 485T117 408T25 365V394Q45 406 57 429T76 480T83 529Q83 544 79 572T62 629Q85 654 118 671T185 690Z" />
<glyph unicode="&#x201a;" glyph-name="quotesinglbase" horiz-adv-x="199" d="M153 163Q164 135 168 105T173 54Q173 3 149 -42T85 -119T-7 -162V-133Q13 -121 25 -98T44 -47T51 2Q51 17 47 45T30 102Q53 127 86 144T153 163Z" />
<glyph unicode="&#x201c;" glyph-name="quotedblleft" horiz-adv-x="394" d="M241 365Q230 393 226 424T221 474Q221 525 245 570T310 647T401 690V661Q382 649 369 626T350 575T343 526Q343 511 347 483T364 426Q341 401 308 384T241 365ZM46 365Q35 393 31 424T26
474Q26 525 50 570T115 647T206 690V661Q187 649 174 626T155 575T148 526Q148 511 152 483T169 426Q146 401 113 384T46 365Z" />
<glyph unicode="&#x201d;" glyph-name="quotedblright" horiz-adv-x="394" d="M153 690Q164 662 168 632T173 581Q173 530 149 485T85 408T-7 365V394Q13 406 25 429T44 480T51 529Q51 544 47 572T30 629Q53 654 86 671T153 690ZM348 690Q359 662 363 632T368
581Q368 530 344 485T280 408T188 365V394Q208 406 220 429T239 480T246 529Q246 544 242 572T225 629Q248 654 281 671T348 690Z" />
<glyph unicode="&#x201e;" glyph-name="quotedblbase" horiz-adv-x="394" d="M153 163Q164 135 168 105T173 54Q173 3 149 -42T85 -119T-7 -162V-133Q13 -121 25 -98T44 -47T51 2Q51 17 47 45T30 102Q53 127 86 144T153 163ZM348 163Q359 135 363 105T368 54Q368
3 344 -42T280 -119T188 -162V-133Q208 -121 220 -98T239 -47T246 2Q246 17 242 45T225 102Q248 127 281 144T348 163Z" />
<glyph unicode="&#x2022;" glyph-name="bullet" horiz-adv-x="338" d="M170 235Q131 235 99 254T49 304T30 373Q30 411 48 443T99 494T170 513Q209 513 240 494T289 443T308 373Q308 335 290 304T240 254T170 235Z" />
<glyph unicode="&#x2039;" glyph-name="guilsinglleft" horiz-adv-x="262" d="M140 259Q140 252 143 246T150 235L247 84L230 68L15 248V270L230 450L247 434L150 283Q147 278 144 272T140 259Z" />
<glyph unicode="&#x203a;" glyph-name="guilsinglright" horiz-adv-x="262" d="M122 259Q122 266 119 272T112 283L15 434L32 450L247 270V248L32 68L15 84L112 235Q115 240 118 246T122 259Z" />
</font>
</defs>
</svg>
