<?xml version="1.0" standalone="no"?>
<!DOCTYPE svg PUBLIC "-//W3C//DTD SVG 1.1//EN" "http://www.w3.org/Graphics/SVG/1.1/DTD/svg11.dtd">
<svg xmlns="http://www.w3.org/2000/svg">
<defs >
<font id="BonaNova" horiz-adv-x="515" ><font-face
    font-family="Bona Nova"
    units-per-em="1000"
    panose-1="0 0 0 0 0 0 0 0 0 0"
    ascent="932"
    descent="-268"
    alphabetic="0" />
<glyph unicode=" " glyph-name="space" horiz-adv-x="230" />
<glyph unicode="!" glyph-name="exclam" horiz-adv-x="190" d="M106 200Q114 288 117 374T119 535T110 665L183 707Q190 593 174 462T134 200H106ZM80 -15Q64 -15 56 -6T48 18Q48 41 67 60T110 79Q127 79 134 70T142 46Q142 21 123 3T80 -15Z" />
<glyph unicode="&quot;" glyph-name="quotedbl" horiz-adv-x="262" d="M188 440Q185 477 184 520T182 606T180 680Q217 687 252 680Q248 648 242 606T228 521T211 440H188ZM68 440Q65 477 64 520T62 606T60 680Q97 687 132 680Q128 648 122 606T108 521T91 440H68Z" />
<glyph unicode="#" glyph-name="numbersign" horiz-adv-x="602" d="M504 200L490 150H401L361 0H311L351 150H181L141 0H91L131 150H40L54 200H144L201 415H111L124 465H214L254 615H304L264 465H434L474 615H524L484 465H574L561 415H471L414 200H504ZM194 200H364L421
415H251L194 200Z" />
<glyph unicode="$" glyph-name="dollar" horiz-adv-x="443" d="M131 -114L96 -109L118 -8Q82 1 57 22T31 77Q31 94 40 110L80 189L100 180Q91 161 88 143T84 113Q84 89 96 72T129 44L180 278Q133 309 108 329T72 367T62 409Q62 446 84 475T146 521T236 540L258
641L293 636L272 539Q299 536 322 529T363 513L355 400H332Q332 435 315 462T264 500L227 331Q292 288 325 263T370 218T382 172Q382 128 357 85T286 13T178 -15Q165 -15 153 -14L131 -114ZM113 431Q113 413 131 398T196 352L229 505H226Q173 505 143 481T113 431ZM330
141Q330 168 299 194T211 258L163 33Q180 29 200 29Q246 29 274 48T316 93T330 141Z" />
<glyph unicode="%" glyph-name="percent" horiz-adv-x="772" d="M201 -25L173 -10L583 569L612 554L201 -25ZM185 215Q138 215 102 253T65 363Q65 420 86 460T140 522T210 543Q258 543 294 505T330 395Q330 338 309 298T255 237T185 215ZM191 240Q224 240 245
278T266 397Q266 449 252 483T204 518Q171 518 150 480T129 361Q129 309 143 275T191 240ZM569 -15Q522 -15 486 23T449 133Q449 190 470 230T524 292T594 313Q642 313 678 275T714 165Q714 108 693 68T639 6T569 -15ZM575 10Q608 10 629 48T650 167Q650 219 636
253T588 288Q555 288 534 250T513 131Q513 79 527 45T575 10Z" />
<glyph unicode="&amp;" glyph-name="ampersand" horiz-adv-x="767" d="M336 -20Q271 -20 217 3T123 66T62 160T40 272Q40 334 63 388T127 483T220 547T331 570Q361 570 381 564T413 549Q452 586 477 634T492 740Q522 755 552 740Q552 694 532 653T484 578T429
524L94 248Q105 184 142 139T234 69T351 45Q414 45 468 71T555 147T588 269Q588 293 584 322T566 375Q543 365 523 358T492 345Q454 329 435 312T416 263Q416 225 452 212L444 191Q406 198 384 214T362 261Q362 293 386 317T455 361Q469 367 495 377T553 400T612
424T656 444Q687 459 700 474T713 510Q713 524 707 539T680 567L694 585L773 535Q766 494 744 472T687 430Q667 419 643 408T595 387Q606 365 613 336T620 269Q620 186 583 121T481 18T336 -20ZM90 296Q90 288 90 281L355 500Q334 519 285 519Q231 519 187 492T116
414T90 296Z" />
<glyph unicode="&apos;" glyph-name="quotesingle" horiz-adv-x="142" d="M68 440Q65 477 64 520T62 606T60 680Q97 687 132 680Q128 648 122 606T108 521T91 440H68Z" />
<glyph unicode="(" glyph-name="parenleft" horiz-adv-x="259" d="M266 740Q181 632 141 514T100 240Q100 164 111 87T145 -61T202 -185L176 -199Q109 -105 75 11T40 249Q40 398 92 518T242 754L266 740Z" />
<glyph unicode=")" glyph-name="parenright" horiz-adv-x="268" d="M1 -185Q86 -77 126 42T167 315Q167 391 156 468T123 616T65 740L91 754Q159 660 193 544T227 306Q227 157 175 37T25 -199L1 -185Z" />
<glyph unicode="*" glyph-name="asterisk" horiz-adv-x="436" d="M396 588L254 529L322 400L303 387L212 499L105 387L88 400L174 529L40 588L49 609L192 576L217 725H239L242 576L391 609L396 588Z" />
<glyph unicode="+" glyph-name="plus" horiz-adv-x="550" d="M99 205L101 245H256L267 400H307L296 245H451L449 205H294L283 50H243L254 205H99Z" />
<glyph unicode="," glyph-name="comma" horiz-adv-x="176" d="M15 -152V-129Q37 -112 50 -76T63 -6Q63 7 61 22T52 50Q60 62 78 74T115 90Q122 74 124 58T126 29Q126 -19 109 -59T66 -123T15 -152Z" />
<glyph unicode="-" glyph-name="hyphen" horiz-adv-x="301" d="M277 229L27 207L24 259L273 281L277 229Z" />
<glyph unicode="." glyph-name="period" horiz-adv-x="190" d="M80 -15Q64 -15 56 -6T48 18Q48 41 67 60T110 79Q127 79 134 70T142 46Q142 21 123 3T80 -15Z" />
<glyph unicode="/" glyph-name="slash" horiz-adv-x="363" d="M326 790H363L37 -150H0L326 790Z" />
<glyph unicode="0" glyph-name="zero" horiz-adv-x="457" d="M188 -15Q143 -15 113 9T67 75T51 168Q51 224 68 275T116 368T185 432T268 456Q315 456 345 430T390 360T405 267Q405 210 388 159T340 69T270 8T188 -15ZM200 52Q237 52 275 76T338 146T364 250Q364
318 331 353T255 389Q217 389 180 363T118 290T93 186Q93 119 126 86T200 52Z" />
<glyph unicode="1" glyph-name="one" horiz-adv-x="376" d="M53 0V23Q97 24 119 28T151 49T162 100L180 366L83 283L63 305L230 450H258Q249 413 246 374L227 100Q225 65 231 49T259 29T323 23V0H53Z" />
<glyph unicode="2" glyph-name="two" horiz-adv-x="454" d="M23 0V23Q37 30 54 39T87 60Q124 85 161 117T230 185T280 259T299 334Q299 364 283 384T225 405Q190 405 160 387T93 329L77 345Q118 399 158 427T253 455Q305 455 334 430T364 353Q364 297 333 248T252
153T143 63V60H308Q335 60 356 71T400 104L416 88L364 33Q350 17 333 9T286 0H23Z" />
<glyph unicode="3" glyph-name="three" horiz-adv-x="443" d="M129 -240Q95 -240 59 -229T-13 -190Q-1 -154 32 -136Q63 -170 90 -187T155 -205Q203 -205 240 -180T298 -113T320 -19Q320 70 257 98T90 93V123Q162 148 203 184T261 258T278 330Q278 368 259 386T205
405Q170 405 135 385T57 319L41 335Q90 397 134 426T232 455Q285 455 314 429T343 356Q343 303 308 249T210 153V150Q252 152 292 138T358 90T385 -3Q385 -66 352 -120T262 -207T129 -240Z" />
<glyph unicode="4" glyph-name="four" horiz-adv-x="473" d="M263 -240Q268 -197 273 -135T283 0H3V23Q16 36 26 49T46 75L313 422Q324 436 333 449T348 473H376L347 60H415L410 0H370Q354 0 348 -11T339 -44Q335 -87 332 -131T327 -225L263 -240ZM81 60H287L306
355H303L81 60Z" />
<glyph unicode="5" glyph-name="five" horiz-adv-x="438" d="M126 -240Q92 -240 50 -229T-27 -190Q-15 -154 18 -136Q47 -169 75 -187T139 -205Q188 -205 225 -178T284 -106T306 -12Q306 62 252 108T76 178L122 440H324Q348 440 366 441T400 445L382 380H145L121
238Q244 213 307 158T371 12Q371 -55 339 -112T251 -205T126 -240Z" />
<glyph unicode="6" glyph-name="six" horiz-adv-x="490" d="M202 -15Q155 -15 122 15T71 94T54 200Q54 297 89 379T180 526T303 633T434 690V665Q368 643 312 599T213 494T148 361T124 212Q124 164 132 120T159 48T214 20Q255 20 291 53T351 140T374 258Q374 310
357 334T304 358Q276 358 252 344T203 300L181 308Q204 350 247 381T337 413Q388 413 413 378T439 278Q439 219 419 166T366 73T290 9T202 -15Z" />
<glyph unicode="7" glyph-name="seven" horiz-adv-x="441" d="M26 -225Q58 -168 97 -100T176 39T253 176T317 295T357 380H131Q104 380 85 371T40 337L23 353L83 417Q97 432 110 436T148 440H438V418Q428 405 404 366T349 271T282 148T213 14T151 -115T106 -225H26Z" />
<glyph unicode="8" glyph-name="eight" horiz-adv-x="485" d="M189 -15Q152 -15 120 -1T67 43T47 115Q47 160 72 202T136 287T215 371Q170 408 146 433T121 493Q121 523 139 556T189 617T258 662T337 680Q383 680 407 661T432 605Q432 571 411 536T358 466T292
400Q352 349 381 318T420 264T430 219Q430 174 410 132T355 57T277 5T189 -15ZM176 523Q176 499 198 480T267 421Q295 448 320 477T361 535T377 589Q377 611 363 628T315 645Q286 645 254 627T199 580T176 523ZM90 126Q90 92 106 71T147 39T197 28Q240 28 278 52T341
115T365 195Q365 215 356 233T320 279T240 350Q203 314 169 278T112 203T90 126Z" />
<glyph unicode="9" glyph-name="nine" horiz-adv-x="490" d="M56 -250V-225Q122 -203 178 -159T277 -54T342 79T366 228Q366 276 358 320T328 392T266 420Q225 420 191 389T137 306T116 192Q116 138 133 104T186 70Q215 70 239 85T287 128L309 120Q286 78 246
47T158 15Q103 15 77 60T51 171Q51 230 69 281T119 371T192 433T278 455Q331 455 366 425T418 347T436 240Q436 143 401 61T310 -86T187 -193T56 -250Z" />
<glyph unicode=":" glyph-name="colon" horiz-adv-x="193" d="M80 -15Q64 -15 56 -6T48 18Q48 41 67 60T110 79Q127 79 134 70T142 46Q142 21 123 3T80 -15ZM103 320Q87 320 79 329T71 353Q71 376 90 395T133 414Q150 414 157 405T165 381Q165 356 146 338T103 320Z" />
<glyph unicode=";" glyph-name="semicolon" horiz-adv-x="193" d="M15 -152V-129Q37 -112 50 -76T63 -6Q63 7 61 22T52 50Q60 62 78 74T115 90Q122 74 124 58T126 29Q126 -19 109 -59T66 -123T15 -152ZM103 320Q87 320 79 329T71 353Q71 376 90 395T133 414Q150
414 157 405T165 381Q165 356 146 338T103 320Z" />
<glyph unicode="&lt;" glyph-name="less" horiz-adv-x="539" d="M426 49L87 209L89 241L450 401L447 355L150 225L429 95L426 49Z" />
<glyph unicode="=" glyph-name="equal" horiz-adv-x="540" d="M98 275L101 315H451L448 275H98ZM89 135L92 175H442L439 135H89Z" />
<glyph unicode="&gt;" glyph-name="greater" horiz-adv-x="540" d="M90 49L93 95L390 225L111 355L114 401L453 241L451 209L90 49Z" />
<glyph unicode="?" glyph-name="question" horiz-adv-x="330" d="M224 195Q184 192 150 200T94 230T72 288Q72 326 99 354T183 425Q223 456 244 472T272 499T280 522Q280 547 263 567T219 600T163 613Q129 613 115 598T101 565Q101 557 104 548T112 526L91 516Q80
534 75 553T69 589Q69 609 76 630T102 665T152 680Q194 680 231 654T291 585T315 497Q315 470 305 452T273 415T212 366Q178 340 159 324T132 296T124 271Q124 243 153 231T224 220V195ZM130 -15Q114 -15 106 -6T98 18Q98 41 117 60T160 79Q177 79 184 70T192 46Q192
21 173 3T130 -15Z" />
<glyph unicode="@" glyph-name="at" horiz-adv-x="801" d="M299 50Q259 50 238 82T216 159Q216 205 236 256T291 353T365 426T446 455Q465 455 478 449T502 432L561 455Q550 335 546 255T542 146Q542 132 546 116T572 100Q598 100 626 118T678 169T717 245T732
340Q732 415 698 472T600 562T448 595Q361 595 295 564T185 480T119 364T97 235Q97 187 110 136T154 37T235 -44T361 -91T538 -90V-115Q407 -139 313 -118T157 -44T67 78T37 225Q37 299 64 370T143 499T272 591T445 625Q546 625 618 588T728 488T767 344Q767 289
749 237T695 142T610 75T495 50Q476 75 477 124T486 232H484Q443 147 395 99T299 50ZM323 115Q347 115 375 139T430 200T473 281T490 362Q490 383 481 404T440 425Q408 425 379 402T328 341T294 263T281 185Q281 155 291 135T323 115Z" />
<glyph unicode="A" glyph-name="A" horiz-adv-x="587" d="M489 100Q498 65 507 49T532 29T574 23V0H381V23Q405 24 415 28T425 49T416 100L371 283Q364 278 355 277T336 275H204Q184 275 173 271T153 248L87 100Q72 66 72 50T89 29T141 23V0H-27V23Q-15 24 -5
28T17 49T45 100L263 586Q275 612 286 637T307 688H350Q355 662 360 637T372 586L489 100ZM341 305Q354 305 359 309T360 330L301 576H299L177 302Q183 304 190 304T204 305H341Z" />
<glyph unicode="B" glyph-name="B" horiz-adv-x="604" d="M40 0V23Q59 24 68 28T82 49T89 100L121 565Q124 600 119 615T97 636T50 642V665H129Q194 665 231 667T304 670Q411 670 456 639T502 551Q502 504 479 472T420 419T348 384V382Q406 380 454 362T532 310T562
224Q562 186 545 147T493 74T405 21T279 0H40ZM178 367Q193 381 231 385Q264 389 297 397T359 421T404 465T422 535Q422 571 409 591T374 622T329 634T286 637Q231 637 213 623T191 565L178 367ZM250 33Q324 33 370 50T440 96T473 154T482 212Q482 269 454 301T377
347T268 358Q221 357 198 345T173 299L159 100Q156 54 177 44T250 33Z" />
<glyph unicode="C" glyph-name="C" horiz-adv-x="697" d="M360 -15Q297 -15 240 6T139 68T69 168T43 304Q43 376 68 443T142 564T266 648T440 680Q490 680 545 671T654 643L644 485H621Q621 532 602 563T553 612T488 639T419 647Q349 647 294 618T201 540T143
429T123 300Q123 212 155 149T242 52T364 18Q416 18 459 36T535 84T591 150T624 220H647L633 108Q625 100 604 81T548 39T467 1T360 -15Z" />
<glyph unicode="D" glyph-name="D" horiz-adv-x="707" d="M40 0V23Q59 24 68 28T82 49T89 100L121 565Q124 600 119 615T97 636T50 642V665H129Q176 665 222 667T303 670Q417 670 498 634T622 532T665 372Q665 288 635 220T551 102T422 27T260 0H40ZM237 33Q413
33 499 122T585 368Q585 508 511 572T281 637Q229 637 212 623T191 565L159 100Q157 69 163 55T186 37T237 33Z" />
<glyph unicode="E" glyph-name="E" horiz-adv-x="564" d="M40 0V23Q59 24 68 28T82 49T89 100L121 565Q124 600 119 615T97 636T50 642V665H498L489 525H466Q466 560 460 584T431 622T360 635H240Q221 635 211 631T198 613T191 565L178 378Q186 384 198 386T225
388H370Q430 388 438 455H461L449 285H426Q426 329 416 343T370 358H225Q197 358 186 349T173 311L160 100Q158 68 163 53T185 34T231 30H374Q424 30 453 46T498 91T518 155H541L522 0H40Z" />
<glyph unicode="F" glyph-name="F" horiz-adv-x="511" d="M40 0V23Q59 24 68 28T82 49T89 100L121 565Q124 600 119 615T97 636T50 642V665H478L469 525H446Q446 560 440 584T411 622T341 635H240Q221 635 211 631T197 613T191 565L177 358Q185 364 197 366T224
368H360Q420 368 428 435H451L439 265H416Q416 309 406 323T360 338H224Q196 338 185 329T172 291L159 100Q157 65 163 49T189 29T250 23V0H40Z" />
<glyph unicode="G" glyph-name="G" horiz-adv-x="698" d="M364 -15Q300 -15 242 6T139 68T69 168T43 304Q43 376 67 443T141 564T262 648T431 680Q480 680 536 671T644 643L634 490H611Q611 538 591 569T540 617T475 640T412 647Q344 647 291 618T200 540T143
428T123 300Q123 212 153 149T239 52T367 18Q435 18 483 43T544 99Q551 114 553 132T557 190Q559 239 552 260T519 288T442 295V318H665V295Q643 294 636 284T626 248L622 190Q620 158 620 137T624 89Q606 72 570 48T483 4T364 -15Z" />
<glyph unicode="H" glyph-name="H" horiz-adv-x="707" d="M40 0V23Q59 24 68 28T82 49T89 100L121 565Q124 600 119 615T97 636T50 642V665H240V642Q221 641 212 636T198 616T191 565L179 390Q187 396 199 398T226 400H488Q516 400 527 409T540 450L548 565Q551
600 546 615T524 636T477 642V665H667V642Q648 641 639 636T625 616T618 565L586 100Q584 65 589 49T610 29T657 23V0H467V23Q486 24 495 28T509 49T516 100L536 383Q528 376 516 373T488 370H226Q198 370 187 361T174 323L159 100Q157 65 162 49T183 29T230 23V0H40Z"
/>
<glyph unicode="I" glyph-name="I" horiz-adv-x="284" d="M42 0V23Q61 24 70 28T84 49T91 100L123 565Q126 600 121 615T99 636T52 642V665H242V642Q223 641 214 636T200 616T193 565L161 100Q159 65 164 49T185 29T232 23V0H42Z" />
<glyph unicode="J" glyph-name="J" horiz-adv-x="240" d="M-14 -225V-202Q21 -197 40 -176T69 -112T84 0L123 565Q126 600 121 615T99 636T52 642V665H242V642Q223 641 214 636T200 616T193 565L153 -15Q146 -116 99 -170T-14 -225Z" />
<glyph unicode="K" glyph-name="K" horiz-adv-x="603" d="M568 -4Q532 -4 509 6T469 34T436 71L230 344Q219 359 212 364T198 370Q190 370 184 362T175 336L159 100Q157 65 162 49T183 29T230 23V0H40V23Q59 24 68 28T82 49T89 100L121 565Q124 600 119 615T97
636T50 642V665H240V642Q221 641 212 636T198 616T191 565L179 397H181L370 573Q395 596 404 606T413 627Q413 634 405 637T370 642V665H555V642Q518 640 495 629T443 590L276 434Q268 427 268 420T276 402L500 103Q526 69 542 52T573 29T613 23V0Q600 -2 589 -3T568
-4Z" />
<glyph unicode="L" glyph-name="L" horiz-adv-x="504" d="M40 0V23Q59 24 68 28T82 49T89 100L121 565Q124 600 119 615T97 636T50 642V665H240V642Q221 641 212 636T198 616T191 565L159 100Q157 68 162 53T183 34T230 30H324Q374 30 403 46T448 91T468 155H491L472
0H40Z" />
<glyph unicode="M" glyph-name="M" horiz-adv-x="872" d="M362 -8Q355 15 346 38T321 104L157 535H155L111 100Q107 65 112 49T139 29T200 23V0H20V23Q38 24 47 28T60 49T69 100L121 565Q125 600 120 615T99 636T50 642V665H193Q199 639 207 616T225 565L405 89H407L636
565Q648 591 658 615T678 665H815V642Q785 641 769 636T746 616T739 565V100Q739 65 745 49T768 29T815 23V0H625V23Q644 24 653 28T666 49T669 100V535H667L457 104Q437 62 426 39T407 -8H362Z" />
<glyph unicode="N" glyph-name="N" horiz-adv-x="681" d="M564 -8Q551 15 533 41T487 104L159 537H157L129 100Q127 65 133 49T160 29T220 23V0H40V23Q59 24 68 28T82 49T89 100L121 565Q123 602 107 621T50 642V665H165Q179 639 196 614T230 565L565 123H567L594
565Q596 600 590 615T563 636T503 642V665H683V642Q664 641 655 636T641 616T634 565L601 100Q600 72 598 47T596 -8H564Z" />
<glyph unicode="O" glyph-name="O" horiz-adv-x="744" d="M403 680Q462 680 515 659T611 597T677 497T701 362Q701 275 670 206T587 87T471 12T341 -15Q282 -15 229 6T133 68T67 168T43 303Q43 390 74 459T157 578T273 653T403 680ZM345 18Q422 18 484 60T584
180T621 364Q621 499 561 573T399 647Q323 647 260 605T160 486T123 301Q123 166 183 92T345 18Z" />
<glyph unicode="P" glyph-name="P" horiz-adv-x="525" d="M40 0V23Q59 24 68 28T82 49T89 100L121 565Q124 600 119 615T97 636T50 642V665H131Q192 665 234 667T305 670Q397 670 454 634T512 526Q512 472 477 427T373 357T201 342L203 366Q285 359 335 377T409
433T432 517Q432 564 413 590T360 626T286 637Q231 637 213 623T191 565L159 100Q157 65 163 49T189 29T250 23V0H40Z" />
<glyph unicode="Q" glyph-name="Q" horiz-adv-x="751" d="M564 -200Q525 -195 484 -176T402 -135T324 -96T256 -79Q217 -79 179 -111L163 -95Q186 -74 216 -49T283 -8V-6Q219 8 165 48T77 152T43 304Q43 390 74 459T157 578T273 653T404 680Q463 680 516 659T611
597T677 497T701 362Q701 292 678 228T610 112T506 27T370 -14Q329 -18 304 -26T258 -52V-54Q311 -49 354 -59T434 -87T503 -117T568 -131Q594 -131 608 -120T640 -79L661 -87Q647 -120 622 -151T564 -200ZM345 18Q422 18 484 60T584 180T621 364Q621 499 561 573T399
647Q323 647 260 605T160 486T123 301Q123 166 183 92T345 18Z" />
<glyph unicode="R" glyph-name="R" horiz-adv-x="604" d="M575 -4Q539 -4 516 6T476 34T443 71L237 334Q226 349 220 354T202 360L204 384Q304 374 365 408T427 523Q427 589 387 613T286 637Q231 637 213 623T191 565L159 100Q157 65 162 49T183 29T230 23V0H40V23Q59
24 68 28T82 49T89 100L121 565Q124 600 119 615T97 636T50 642V665H131Q174 665 204 666T259 669T313 670Q405 670 456 633T507 533Q507 487 481 450T411 389T311 358V356L507 103Q533 70 549 53T580 29T619 23V0Q607 -2 596 -3T575 -4Z" />
<glyph unicode="S" glyph-name="S" horiz-adv-x="513" d="M209 -15Q167 -15 127 -2T60 37T33 98Q33 114 42 130L89 210L109 201Q91 162 91 134Q91 104 113 82T169 47T239 35Q319 35 357 75T396 181Q396 212 379 235T329 283T245 338Q179 380 143 408T92 460T77
510Q77 550 105 589T185 654T306 680Q346 680 387 672T451 653L442 510H419Q419 570 389 607T292 645Q247 645 212 629T155 589T134 539Q134 504 177 474T288 402Q349 364 385 337T438 282T455 215Q455 150 425 98T339 15T209 -15Z" />
<glyph unicode="T" glyph-name="T" horiz-adv-x="574" d="M131 0V23Q165 24 183 28T210 49T220 100L257 635H176Q110 635 83 599T51 510H28L38 665H546L536 510H513Q513 545 505 573T473 618T401 635H327L290 100Q288 65 293 49T312 29T351 23V0H131Z" />
<glyph unicode="U" glyph-name="U" horiz-adv-x="721" d="M246 -15Q155 -15 121 31T92 158L120 565Q123 600 118 615T96 636T50 642V665H239V642Q220 641 211 636T197 616T190 565L163 175Q161 137 168 104T197 50T264 30Q312 30 360 53T448 118T513 211T543 322L560
565Q563 600 558 615T536 636T489 642V665H674V642Q655 641 646 636T632 616T625 565L593 100Q591 65 596 49T617 29T664 23V0H534Q529 16 528 38T528 100L533 175H531Q500 117 454 74T355 8T246 -15Z" />
<glyph unicode="V" glyph-name="V" horiz-adv-x="585" d="M240 -8Q236 18 231 39T220 79L91 565Q82 600 73 615T48 636T5 642V665H194V642Q174 641 164 636T154 616T164 565L286 115H288L468 565Q482 600 481 615T461 636T404 642V665H582V642Q568 641 557 636T535
616T510 565L313 79Q297 42 283 -8H240Z" />
<glyph unicode="W" glyph-name="W" horiz-adv-x="846" d="M155 -8Q153 18 151 39T146 79L86 565Q82 600 75 615T55 636T23 642V665H223V642Q190 641 175 636T157 616T158 565L211 137H213L425 673H468Q475 645 482 618T498 563L624 137H625L732 565Q741 600 738
615T716 636T663 642V665H841V642Q825 641 813 636T792 616T774 565L646 79Q641 60 637 39T628 -8H585Q576 42 565 79L423 560H421L226 79Q217 57 211 38T198 -8H155Z" />
<glyph unicode="X" glyph-name="X" horiz-adv-x="597" d="M3 0V23Q25 24 40 28T70 49T107 100L253 326Q263 341 266 352T262 380L178 565Q163 600 150 615T121 636T77 642V665H282V642Q262 641 251 636T241 616T257 565L325 414H327L424 565Q447 600 449 615T438
636T393 642V665H574V642Q554 641 539 636T509 616T470 565L363 405Q354 392 352 377T356 348L469 100Q485 65 497 49T526 29T569 23V0H365V23Q385 24 395 28T406 49T389 100L293 315H291L154 100Q132 65 130 49T144 29T195 23V0H3Z" />
<glyph unicode="Y" glyph-name="Y" horiz-adv-x="516" d="M100 0V23Q134 24 152 28T179 49T189 100L202 287Q204 307 200 323T189 355L101 565Q87 600 75 615T47 636T5 642V665H200V642Q177 641 167 636T158 616T176 565L260 370H262L386 565Q408 600 410 615T397
636T345 642V665H513V642Q498 641 489 636T467 616T432 565L296 355Q286 339 280 327T272 287L259 100Q257 65 262 49T281 29T320 23V0H100Z" />
<glyph unicode="Z" glyph-name="Z" horiz-adv-x="563" d="M13 0V23Q24 35 34 48T53 75L425 633V635L193 628Q156 627 134 611T102 568T87 510H64L74 665H520V642Q509 629 499 616T481 589L110 32V30L341 38Q391 40 420 56T465 98T485 155H508L489 0H13Z" />
<glyph unicode="[" glyph-name="bracketleft" horiz-adv-x="321" d="M94 -180L159 740H326V717Q278 716 254 712T221 691T209 640L158 -80Q156 -115 163 -131T195 -151T269 -157V-180H94Z" />
<glyph unicode="\" glyph-name="backslash" horiz-adv-x="363" d="M326 -150L0 790H37L363 -150H326Z" />
<glyph unicode="]" glyph-name="bracketright" horiz-adv-x="321" d="M3 -180V-157Q52 -156 76 -152T109 -131T120 -80L171 640Q174 675 166 691T134 711T60 717V740H235L170 -180H3Z" />
<glyph unicode="^" glyph-name="asciicircum" horiz-adv-x="410" d="M28 315L211 665H244L380 315H334L224 602L74 315H28Z" />
<glyph unicode="_" glyph-name="underscore" horiz-adv-x="375" d="M375 -30H0V0H375V-30Z" />
<glyph unicode="`" glyph-name="grave" horiz-adv-x="149" d="M57 749Q67 706 90 659T149 575L139 555Q94 584 53 630T-10 721Q1 735 21 742T57 749Z" />
<glyph unicode="a" glyph-name="a" horiz-adv-x="512" d="M129 -15Q82 -15 61 21T40 106Q40 149 55 197T98 290T159 373T232 433T307 455Q329 455 344 447T372 428L431 455Q415 307 409 216T403 98Q403 87 406 77T419 66Q429 66 445 77T480 108L497 92Q468 60
429 31T356 -15Q337 10 337 60Q337 92 340 121T350 203H348Q299 103 242 44T129 -15ZM159 50Q181 50 207 69T260 121T308 193T343 274T356 350Q356 366 352 383T336 413T300 425Q262 425 228 397T168 323T126 228T110 134Q110 95 121 73T159 50Z" />
<glyph unicode="b" glyph-name="b" horiz-adv-x="488" d="M62 -15Q67 36 73 107T87 259T100 418T109 564T113 676Q113 696 104 696Q94 696 75 677T30 628L13 644Q31 667 57 696T112 752T166 790Q172 777 175 757T178 711Q178 657 174 589T162 444T147 290H149Q187
361 240 408T348 455Q394 455 421 420T449 322Q449 267 428 208T372 99T292 17T202 -15Q181 -15 161 -8T127 15L62 -15ZM208 15Q244 15 275 41T329 109T366 201T379 295Q379 338 365 366T319 395Q290 395 258 372T199 310T154 223T136 124Q136 97 142 72T165 31T208
15Z" />
<glyph unicode="c" glyph-name="c" horiz-adv-x="390" d="M150 -15Q121 -15 96 -1T55 46T39 130Q39 193 61 251T121 355T202 428T290 455Q321 455 343 442T382 405L315 289L294 297Q316 343 316 370T304 408T270 420Q238 420 209 397T158 336T122 252T109 161Q109
108 128 79T183 50Q215 50 256 75T340 160L361 152Q313 68 257 27T150 -15Z" />
<glyph unicode="d" glyph-name="d" horiz-adv-x="507" d="M139 -15Q93 -15 66 20T39 118Q39 173 60 232T116 341T196 423T286 455Q315 455 334 444T364 420Q372 491 377 560T382 676Q382 696 373 696Q363 696 344 677T299 628L282 644Q300 667 326 696T381 752T435
790Q441 777 444 757T447 711Q447 664 442 603T430 474T416 338T404 209T399 99Q399 88 402 77T416 66Q426 66 441 77T476 108L493 92Q465 60 426 31T354 -15Q334 11 334 64Q334 84 335 106T339 150H337Q299 79 246 32T139 -15ZM169 45Q198 45 230 68T289 130T334
217T352 315Q352 343 345 368T323 409T279 425Q243 425 213 399T159 331T122 240T109 145Q109 102 122 74T169 45Z" />
<glyph unicode="e" glyph-name="e" horiz-adv-x="397" d="M160 -15Q133 -15 105 -1T59 46T40 134Q40 194 63 251T124 354T208 428T301 455Q346 455 360 437T375 393Q375 347 341 307T247 225T109 136Q116 93 138 72T190 50Q230 50 267 74T335 142L356 134Q334
95 302 61T233 6T160 -15ZM107 166Q107 164 107 165Q300 285 300 378Q300 398 291 406T266 415Q239 415 211 393T160 335T122 254T107 166Z" />
<glyph unicode="f" glyph-name="f" horiz-adv-x="281" d="M23 -235V-212Q58 -198 69 -149T88 0L116 410H46V440H118Q129 596 172 681T265 790Q288 771 295 737T298 664T283 593H261Q265 626 262 654T252 700T233 718Q223 718 215 694T199 610T183 440H298V410H208Q192
410 186 404T178 378L151 -15Q144 -127 107 -180T23 -235Z" />
<glyph unicode="g" glyph-name="g" horiz-adv-x="436" d="M165 -235Q122 -235 84 -224T21 -192T-3 -143Q-3 -113 24 -90T82 -50L102 -60Q83 -79 75 -96T67 -124Q67 -143 85 -158T133 -182T197 -191Q230 -191 261 -184T312 -162T332 -128Q332 -115 312 -105L103
-6Q89 1 95 18L124 97Q95 105 73 128T50 199Q50 242 70 287T123 370T198 431T284 455Q308 455 332 446T372 415Q406 425 418 515H438Q459 485 459 454Q459 424 438 410T384 394Q391 374 391 349Q391 308 374 266T326 186T257 124T177 94Q157 92 151 82T144 63Q144
53 151 48T171 36L367 -56Q378 -61 387 -70T397 -94Q397 -112 381 -136T333 -182T260 -220T165 -235ZM183 131Q215 131 241 149T285 198T313 262T323 326Q323 364 308 390T257 416Q226 416 201 398T157 351T128 288T118 222Q118 183 133 157T183 131Z" />
<glyph unicode="h" glyph-name="h" horiz-adv-x="485" d="M62 -15Q67 36 73 107T87 259T100 418T109 564T113 676Q113 696 104 696Q94 696 75 677T30 628L13 644Q31 667 57 696T112 752T166 790Q172 777 175 757T178 711Q178 657 174 589T162 444T147 290H149Q174
333 212 370T292 431T366 455Q397 455 419 427T442 322Q442 268 430 210T393 102T332 19T250 -15Q243 6 248 29T271 64Q277 59 285 55T301 50Q320 50 333 74T355 137T368 216T372 291Q372 354 359 374T325 394Q301 394 272 377T216 331T170 265Q143 213 136 151T127
0Q94 -3 62 -15Z" />
<glyph unicode="i" glyph-name="i" horiz-adv-x="288" d="M121 -15Q101 11 101 64Q101 90 104 129T113 210T121 287T125 341Q125 361 116 361Q106 361 79 340T26 291L10 307Q28 329 58 359T121 416T178 455Q184 442 187 422T190 376Q190 354 187 317T178 238T170
159T166 99Q166 88 169 77T183 66Q205 66 259 125L275 109Q258 87 231 63T175 18T121 -15ZM163 560Q147 560 139 569T131 593Q131 616 150 635T193 654Q210 654 217 645T225 621Q225 596 206 578T163 560Z" />
<glyph unicode="j" glyph-name="j" horiz-adv-x="248" d="M-28 -235V-212Q24 -207 55 -158T96 0Q98 21 101 57T108 135T115 219T121 293T123 341Q123 361 114 361Q104 361 77 340T24 291L8 307Q26 329 56 359T119 416T176 455Q182 442 185 422T188 376Q188 358
186 319T179 230T171 132T164 43T159 -15Q154 -78 131 -127T67 -205T-28 -235ZM161 560Q145 560 137 569T129 593Q129 616 148 635T191 654Q208 654 215 645T223 621Q223 596 204 578T161 560Z" />
<glyph unicode="k" glyph-name="k" horiz-adv-x="456" d="M463 23L469 0Q450 -7 434 -11T397 -15Q362 -15 331 9T258 73Q207 124 182 147T139 171Q134 130 131 85T127 0Q94 -3 62 -15Q67 36 73 107T87 259T100 418T109 564T113 676Q113 696 104 696Q94 696 75
677T30 628L13 644Q31 667 57 696T112 752T166 790Q172 777 175 757T178 711Q178 657 174 589T162 444T147 290H149Q174 330 205 368T273 430T351 455Q387 455 402 437T417 389Q417 350 394 312T328 241T228 190V188L309 106Q351 64 375 45T418 23T463 23ZM317
405Q295 405 268 385T214 332T168 263T141 194Q211 202 256 229T324 293T347 364Q347 382 341 393T317 405Z" />
<glyph unicode="l" glyph-name="l" horiz-adv-x="264" d="M97 -15Q77 11 77 64Q77 115 81 178T91 310T104 446T114 572T118 676Q118 696 109 696Q99 696 80 677T35 628L18 644Q36 667 62 696T117 752T171 790Q177 777 180 757T183 711Q183 664 179 603T169 474T157
338T146 209T142 99Q142 88 145 77T159 66Q181 66 235 125L251 109Q234 87 207 63T151 18T97 -15Z" />
<glyph unicode="m" glyph-name="m" horiz-adv-x="729" d="M76 -15Q78 6 82 43T90 126T98 214T104 292T107 341Q107 361 98 361Q84 361 49 323L33 339Q59 371 92 403T160 455Q166 442 169 422T172 376Q172 337 167 298T154 208H156Q209 317 269 380T376 455Q390
444 397 423T404 376Q404 337 399 298T386 208H388Q441 317 502 380T609 455Q623 444 630 423T637 376Q637 354 634 317T625 238T617 159T613 99Q613 88 616 77T630 66Q640 66 655 77T690 108L707 92Q679 60 640 31T568 -15Q548 11 548 64Q548 90 551 129T560 210T568
287T572 341Q572 362 569 370T558 379Q542 379 515 348T455 264Q425 215 399 152T373 0Q340 -3 308 -15Q310 6 314 43T322 126T330 214T336 292T339 341Q339 362 336 370T325 379Q309 379 282 348T222 264Q192 215 167 152T141 0Q108 -3 76 -15Z" />
<glyph unicode="n" glyph-name="n" horiz-adv-x="509" d="M76 -15Q78 6 82 43T90 126T98 214T104 292T107 341Q107 361 98 361Q84 361 49 323L33 339Q59 371 92 403T160 455Q166 442 169 422T172 376Q172 337 167 298T154 208H156Q195 278 237 331T318 416T389
455Q403 444 410 423T417 376Q417 354 414 317T405 238T397 159T393 99Q393 88 396 77T410 66Q420 66 435 77T470 108L487 92Q459 60 420 31T348 -15Q328 11 328 64Q328 90 331 129T340 210T348 287T352 341Q352 362 349 370T338 379Q322 379 292 348T226 264Q193
215 167 152T141 0Q108 -3 76 -15Z" />
<glyph unicode="o" glyph-name="o" horiz-adv-x="464" d="M164 -15Q113 -15 77 22T40 137Q40 197 63 254T123 356T207 428T299 455Q352 455 388 417T424 302Q424 241 401 184T339 82T255 11T164 -15ZM202 35Q243 35 278 66T334 150T354 263Q354 302 344 334T314
385T261 405Q220 405 186 373T131 290T110 177Q110 112 134 74T202 35Z" />
<glyph unicode="p" glyph-name="p" horiz-adv-x="506" d="M59 -240Q65 -186 72 -111T87 47T99 206T104 341Q104 361 95 361Q81 361 46 323L30 339Q56 371 89 403T157 455Q163 442 166 422T169 376Q169 337 166 290H168Q206 361 259 408T366 455Q412 455 439 420T467
322Q467 267 446 208T390 99T310 17T220 -15Q199 -15 179 -8T145 15Q138 -46 132 -111T124 -225Q90 -231 59 -240ZM226 15Q262 15 293 41T347 109T384 201T397 295Q397 338 383 366T337 395Q308 395 276 372T217 310T172 223T154 124Q154 97 160 72T183 31T226
15Z" />
<glyph unicode="q" glyph-name="q" horiz-adv-x="476" d="M334 -235Q314 -209 314 -156Q314 -121 317 -71T327 37T340 150H338Q300 79 247 32T139 -15Q93 -15 66 20T39 118Q39 173 60 232T116 341T196 423T286 455Q315 455 331 447T360 425L425 455Q420 400 414
331T402 190T390 54T382 -56T379 -121Q379 -132 382 -143T396 -154Q406 -154 421 -143T456 -112L473 -128Q445 -160 406 -189T334 -235ZM169 45Q198 45 230 68T289 130T334 217T352 314Q352 342 345 367T323 409T279 425Q243 425 213 399T159 331T122 240T109 145Q109
102 122 74T169 45Z" />
<glyph unicode="r" glyph-name="r" horiz-adv-x="357" d="M76 -15Q78 6 82 43T90 126T98 214T104 292T107 341Q107 361 98 361Q84 361 49 323L33 339Q59 371 92 403T160 455Q166 442 169 422T172 376Q172 346 169 317T160 250H162Q204 331 245 385T329 455Q347
440 350 412T350 349T337 278H314Q318 313 315 336T293 360Q281 360 262 346T212 279Q182 229 162 159T141 0Q108 -3 76 -15Z" />
<glyph unicode="s" glyph-name="s" horiz-adv-x="376" d="M146 -15Q120 -15 92 -6T44 21T25 66Q25 92 44 111T89 153L105 137Q90 123 85 113T79 93Q79 69 102 52T166 35Q213 35 244 59T275 123Q275 149 255 167T179 213Q151 227 126 242T84 275T68 317Q68 345
90 377T150 432T232 455Q267 455 298 441T351 395L304 314L284 324Q301 357 293 378T262 411T215 422Q177 422 153 399T128 340Q128 329 133 321T156 301T213 269Q259 246 283 231T316 201T325 163Q325 116 300 76T233 10T146 -15Z" />
<glyph unicode="t" glyph-name="t" horiz-adv-x="284" d="M95 -15Q85 -2 81 17T77 63Q77 98 81 155T90 279T100 410H17V440H102Q107 481 110 516T115 575L184 590Q181 562 176 523T166 440H286V410H192Q175 410 169 404T161 378Q157 322 153 269T145 172T142 102Q142
88 146 77T159 66Q181 66 235 125L251 109Q234 87 207 63T151 18T95 -15Z" />
<glyph unicode="u" glyph-name="u" horiz-adv-x="497" d="M118 -15Q83 11 83 64Q83 90 86 129T95 210T103 287T107 341Q107 361 98 361Q84 361 49 323L33 339Q59 371 92 403T160 455Q166 442 169 422T172 376Q172 354 169 317T160 238T152 159T148 99Q148 78 151
70T162 61Q178 61 204 92T265 176Q297 226 322 289T347 440Q379 452 412 455Q410 434 406 397T398 314T390 226T384 148T381 99Q381 88 384 77T398 66Q408 66 423 77T458 108L475 92Q447 60 408 31T336 -15Q316 11 316 64Q316 103 321 142T334 233H332Q278 128
222 66T118 -15Z" />
<glyph unicode="v" glyph-name="v" horiz-adv-x="438" d="M137 -15Q102 -15 93 9T83 64Q83 90 86 129T95 210T103 287T107 341Q107 361 98 361Q84 361 49 323L33 339Q59 371 92 403T160 455Q166 442 169 422T172 376Q172 354 169 317T160 238T152 159T148 99Q148
70 155 60T177 50Q210 50 245 85T305 175Q334 234 339 304T325 439Q342 447 363 451T402 455Q410 395 397 330T357 203T293 93T216 14T137 -15Z" />
<glyph unicode="w" glyph-name="w" horiz-adv-x="683" d="M118 -15Q83 11 83 64Q83 90 86 129T95 210T103 287T107 341Q107 361 98 361Q84 361 49 323L33 339Q59 371 92 403T160 455Q166 442 169 422T172 376Q172 354 169 317T160 238T152 159T148 99Q148 78 151
70T162 61Q173 61 207 91T276 176Q306 225 326 291T347 440Q379 452 412 455Q405 412 401 371T396 291Q396 248 401 205T415 127T438 70T470 48Q490 48 511 74T551 142T581 233T593 331Q593 352 588 375T565 398Q549 398 527 381T485 345L469 361Q491 386 518 411T571
453T612 470Q632 470 640 441T648 378Q648 325 634 270T597 163T546 72T493 9T445 -15Q424 -15 406 7T372 65T348 142T336 222H334Q308 163 269 114T190 31T118 -15Z" />
<glyph unicode="x" glyph-name="x" horiz-adv-x="439" d="M55 -15Q42 -15 36 0T28 40T30 93T37 145H60Q60 111 63 86T80 60Q97 60 116 80T155 132T194 198Q172 289 159 329T126 369Q114 369 98 356T63 323L47 339Q73 371 107 403T175 455Q186 444 197 416T219
350T239 275Q254 301 273 332T312 391T353 437T390 455Q403 455 407 440T409 401T402 352T392 305H369Q371 340 369 353T355 367Q337 367 308 329T249 236Q262 183 273 141T298 75T328 51Q338 51 353 61T395 97L411 81Q383 49 350 24T285 -15Q259 -2 239 47T203
156Q188 131 170 101T131 45T92 2T55 -15Z" />
<glyph unicode="y" glyph-name="y" horiz-adv-x="395" d="M30 -235Q10 -235 4 -207T1 -138T14 -58H37Q34 -103 37 -131T60 -160Q74 -160 93 -145T132 -104T164 -46T177 22Q177 51 170 94T153 176Q141 225 127 264T100 327T76 351Q67 351 54 336T28 297L9 308Q28
346 52 386T105 455Q126 436 147 392T187 292T218 178T235 75H237Q281 165 300 258T297 439Q314 447 335 451T375 455Q381 412 371 355T339 232T286 100T221 -26T151 -133T85 -207T30 -235Z" />
<glyph unicode="z" glyph-name="z" horiz-adv-x="383" d="M296 -15Q266 -15 236 -6T178 15T127 37T88 46Q63 46 51 32T35 0H10Q18 45 49 91T124 185T212 279T288 373V375Q278 371 268 370T247 368Q216 368 187 376T132 385Q116 385 105 373T72 329L51 337Q68 375
84 405T116 455Q140 455 169 448T229 434T287 426Q316 426 329 435T347 455H370Q361 412 329 367T253 276T166 184T94 92V90Q100 92 109 93T125 94Q152 94 180 85T235 65T281 55Q305 55 313 74T317 120H340Q344 104 346 87T349 53Q349 25 339 5T296 -15Z" />
<glyph unicode="{" glyph-name="braceleft" horiz-adv-x="275" d="M294 717Q232 715 201 696T161 638T151 534Q151 511 151 485T152 440Q152 379 138 343T85 290V288Q115 274 125 247T135 186Q135 137 123 82T111 -37Q111 -99 137 -127T233 -157V-180Q165 -182
126 -168T72 -122T56 -37Q56 28 68 82T80 188Q80 233 64 254T10 278V300Q61 303 79 336T97 444Q97 465 97 490T96 537Q96 611 111 657T170 723T294 740V717Z" />
<glyph unicode="|" glyph-name="bar" horiz-adv-x="195" d="M110 790H145L75 -225H40L110 790Z" />
<glyph unicode="}" glyph-name="braceright" horiz-adv-x="247" d="M183 377Q183 341 196 322T246 300V278Q203 275 186 248T169 154Q169 110 174 67T179 -17Q179 -76 163 -113T106 -166T-12 -180V-157Q68 -155 95 -121T123 -17Q123 24 118 67T113 152Q113 203
125 237T171 288L172 289V290Q146 304 138 330T129 383Q129 424 139 461T158 536T168 614Q168 661 145 687T51 715V738Q149 742 186 712T223 614Q223 573 213 536T193 460T183 377Z" />
<glyph unicode="~" glyph-name="asciitilde" horiz-adv-x="540" d="M351 170Q324 170 303 179T263 202T225 224T183 234Q156 234 140 219T115 175L92 180Q101 227 127 250T189 274Q216 274 237 265T277 242T315 220T357 210Q384 210 400 226T426 274L448 269Q439
223 413 197T351 170Z" />
<glyph unicode="&#xa0;" glyph-name="uni00A0" horiz-adv-x="230" />
<glyph unicode="&#xa1;" glyph-name="exclamdown" horiz-adv-x="190" d="M110 361Q94 361 86 370T78 394Q78 419 97 437T140 455Q157 455 164 446T172 422Q172 399 153 380T110 361ZM37 -267Q30 -153 46 -22T86 240H114Q107 153 104 67T101 -95T110 -225L37 -267Z" />
<glyph unicode="&#xa2;" glyph-name="cent" horiz-adv-x="584" d="M244 -114L209 -109L231 -7Q171 7 128 43T62 132T39 246Q39 302 59 354T118 449T213 515T343 540Q346 540 349 540L371 641L406 636L385 538Q422 535 462 526T536 503L528 375H505Q499 441 462
470T378 505L273 20Q285 18 297 18Q345 18 388 41T464 103T509 190H532L518 78Q500 57 469 36T395 0T299 -15Q282 -15 266 -13L244 -114ZM111 253Q111 203 126 158T170 78T239 29L342 507Q283 507 239 485T167 427T125 345T111 253Z" />
<glyph unicode="&#xa3;" glyph-name="sterling" horiz-adv-x="463" d="M40 0V23Q91 46 117 80T143 174Q143 205 138 227T126 270H31V300H117Q114 313 112 327T110 360Q110 422 136 463T207 524T310 545Q350 545 387 536T445 518L436 385H413Q414 419 403 447T366
494T297 512Q242 512 209 482T175 380Q175 355 178 336T187 300H331V270H196Q200 255 203 239T206 201Q206 158 193 122T150 62V60H308Q364 60 387 85T417 155H440L421 0H40Z" />
<glyph unicode="&#xa4;" glyph-name="currency" horiz-adv-x="638" d="M49 41L26 66L99 134Q72 168 57 210T42 299Q42 356 63 407T122 497L61 564L88 589L150 523Q189 554 237 572T337 590Q389 590 434 572T513 521L586 589L609 564L536 495Q563 462 578 420T593
331Q593 274 572 223T513 133L574 66L547 41L485 108Q447 76 399 58T298 40Q246 40 201 58T122 109L49 41ZM300 73Q351 73 397 93T478 149T534 231T555 329Q555 391 526 443T447 526T334 557Q283 557 237 537T156 481T101 399T80 301Q80 239 109 187T187 104T300
73Z" />
<glyph unicode="&#xa5;" glyph-name="yen" horiz-adv-x="449" d="M13 145V175H164L166 207Q168 234 161 255H22V285H148L112 360L81 425Q65 460 53 475T29 496T-5 502V525H168V502Q150 501 141 496T134 475T154 425L193 348L222 290H224L257 339L314 425Q337 459
339 474T326 495T278 502V525H436V502Q425 501 417 496T396 475T360 425L297 333L265 285H402V255H245Q241 246 238 236T234 207L232 175H393V145H229L226 100Q224 65 228 49T245 29T277 23V0H79V23Q108 24 124 28T148 49T158 100L161 145H13Z" />
<glyph unicode="&#xa6;" glyph-name="brokenbar" horiz-adv-x="195" d="M110 790H145L123 475H88L110 790ZM62 90H97L75 -225H40L62 90Z" />
<glyph unicode="&#xa7;" glyph-name="section" horiz-adv-x="513" d="M440 -6Q440 -43 423 -81T373 -152T296 -205T196 -225Q152 -225 111 -212T44 -173T18 -114Q18 -96 27 -80L74 0L94 -9Q76 -48 76 -76Q76 -106 98 -128T154 -162T225 -175Q278 -175 313 -153T366
-99T384 -41Q384 -13 366 8T311 53T220 111Q153 153 117 181T66 232T52 280Q52 318 77 356T149 418Q99 453 81 475T62 524Q62 561 90 597T170 656T290 680Q331 680 372 672T436 653L427 510H404Q404 571 374 608T274 645Q231 645 196 632T139 597T118 551Q118 532
134 515T185 475T273 420Q334 382 373 355T431 301T450 235Q450 198 434 159T386 85Q416 62 428 42T440 -6ZM263 165Q291 148 313 134T354 108Q394 153 394 203Q394 236 374 261T316 311T230 366Q202 384 182 397Q146 382 126 358T106 309Q106 272 151 240T263
165Z" />
<glyph unicode="&#xa8;" glyph-name="dieresis" horiz-adv-x="249" d="M190 580Q174 580 167 589T160 611Q160 633 178 651T219 669Q234 669 241 660T249 638Q249 614 231 597T190 580ZM30 580Q14 580 7 589T0 611Q0 633 18 651T59 669Q74 669 81 660T89 638Q89
614 71 597T30 580Z" />
<glyph unicode="&#xa9;" glyph-name="copyright" horiz-adv-x="785" d="M393 -15Q321 -15 258 12T147 87T72 198T45 333Q45 405 72 467T147 578T258 653T393 680Q465 680 527 653T638 578T713 468T740 333Q740 261 713 198T638 87T528 12T393 -15ZM393 17Q458
17 514 42T613 110T680 211T705 333Q705 398 681 454T614 555T515 623T393 648Q328 648 272 624T172 555T105 455T80 333Q80 268 104 211T172 111T271 42T393 17ZM390 135Q334 135 293 160T229 227T206 321Q206 374 231 422T304 500T422 530Q452 530 490 524T559
503L553 413H537Q534 450 517 470T474 498T422 506Q366 506 329 480T275 412T257 326Q257 282 273 244T318 183T389 159Q423 159 454 175T508 219T540 281H556L546 201Q527 179 487 157T390 135Z" />
<glyph unicode="&#xaa;" glyph-name="ordfeminine" horiz-adv-x="322" d="M95 361Q58 361 45 386T32 436Q32 478 53 521T109 592T190 621Q211 621 227 610L265 621Q258 542 255 497T252 437Q252 413 262 413Q278 413 301 436L310 426Q294 405 266 388T213 361Q207
369 205 381T203 410Q203 420 203 431T206 458H205Q186 404 155 383T95 361ZM178 595Q147 595 126 573T93 518T82 451Q82 432 88 418T115 403Q135 403 157 425T194 482T209 548Q209 566 203 580T178 595Z" />
<glyph unicode="&#xab;" glyph-name="guillemotleft" horiz-adv-x="346" d="M178 78L25 248V270L203 440L219 424L103 283Q99 278 95 272T91 257Q91 250 93 245T99 235L196 94L178 78ZM283 118L183 248V270L303 400L318 384L243 283Q240 277 237 271T234 257Q234
250 236 245T240 235L300 134L283 118Z" />
<glyph unicode="&#xac;" glyph-name="logicalnot" horiz-adv-x="540" d="M421 170L430 310H70L73 350H473L461 170H421Z" />
<glyph unicode="&#xad;" glyph-name="uni00AD" horiz-adv-x="301" d="M277 229L27 207L24 259L273 281L277 229Z" />
<glyph unicode="&#xae;" glyph-name="registered" horiz-adv-x="787" d="M402 -15Q330 -15 267 12T156 87T81 198T54 333Q54 405 81 467T156 578T267 653T402 680Q474 680 536 653T647 578T722 468T749 333Q749 261 722 198T647 87T537 12T402 -15ZM402 17Q467
17 523 42T622 110T689 211T714 333Q714 398 690 454T623 555T524 623T402 648Q337 648 281 624T181 555T114 455T89 333Q89 268 113 211T181 111T280 42T402 17ZM571 143Q534 143 515 159T479 196L381 320Q374 329 369 333T355 339L356 356Q425 349 458 371T491
433Q491 473 467 486T409 499Q375 499 363 489T348 448L332 217Q330 180 339 172T376 162V146H256V162Q271 164 276 172T284 217L300 448Q302 485 293 493T256 503V519H307Q346 519 368 521T421 523Q474 523 508 504T542 440Q542 406 515 379T428 341V339L523 219Q542
196 553 184T575 167T603 162V146Q585 143 571 143Z" />
<glyph unicode="&#xaf;" glyph-name="overscore" horiz-adv-x="243" d="M5 644H265L257 604H-3L5 644Z" />
<glyph unicode="&#xb0;" glyph-name="degree" horiz-adv-x="316" d="M162 455Q122 455 95 482T68 550Q68 586 86 615T135 661T202 679Q242 679 269 652T296 584Q296 549 277 520T228 473T162 455ZM169 496Q202 496 226 520T251 578Q251 603 236 620T194 638Q161
638 137 614T113 556Q113 531 128 514T169 496Z" />
<glyph unicode="&#xb1;" glyph-name="plusminus" horiz-adv-x="540" d="M103 235L105 275H260L271 430H311L300 275H455L453 235H298L287 80H247L258 235H103ZM86 -5L88 35H438L436 -5H86Z" />
<glyph unicode="&#xb2;" glyph-name="uni00B2" horiz-adv-x="287" d="M14 370L15 383Q20 385 29 390T47 403Q139 472 173 530T208 631Q208 655 196 670T153 686Q123 686 100 671T54 626L43 635Q69 684 101 708T179 733Q223 733 246 711T270 649Q270 600 234 546T105
423V422H195Q226 422 238 434T254 470H275L264 370H14Z" />
<glyph unicode="&#xb3;" glyph-name="uni00B3" horiz-adv-x="313" d="M127 361Q99 361 74 368T31 389Q35 403 42 414T58 434Q74 410 92 397T136 384Q176 384 196 410T216 470Q216 511 186 527T99 528L100 546Q162 568 186 593T211 646Q211 665 200 676T162 687Q114
687 73 643L63 652Q87 686 116 709T189 732Q226 732 248 714T270 664Q270 627 246 604T187 566V564Q208 564 229 555T264 528T278 480Q278 431 236 396T127 361Z" />
<glyph unicode="&#xb4;" glyph-name="acute" horiz-adv-x="149" d="M92 749Q109 750 128 743T159 721Q138 676 97 630T10 555L0 575Q36 612 59 659T92 749Z" />
<glyph unicode="&#xb5;" glyph-name="uni00B5" horiz-adv-x="486" d="M30 -240Q49 -92 62 11T82 183T95 299T102 377T108 440Q140 452 173 455Q169 410 163 358T151 254T141 163T137 99Q137 78 140 70T151 61Q167 61 193 92T254 176Q286 226 311 289T336 440Q368
452 401 455Q399 434 395 397T387 314T379 226T373 148T370 99Q370 88 373 77T387 66Q397 66 412 77T447 108L464 92Q436 60 397 31T325 -15Q305 11 305 64Q305 103 310 142T323 233H321Q285 163 251 114T178 37T88 0Q87 -27 90 -67T101 -147T116 -210Q73 -240
30 -240Z" />
<glyph unicode="&#xb6;" glyph-name="paragraph" horiz-adv-x="544" d="M438 525H536V502Q495 501 473 497T443 476T431 425L400 -15Q395 -87 369 -133T304 -202T224 -225Q205 -225 190 -221T164 -211Q166 -192 185 -173T225 -153Q231 -171 239 -177T259 -184Q291
-184 305 -141T326 0L338 171Q256 164 199 176T108 213T59 271T43 341Q43 389 67 432T142 502T266 530Q292 530 339 528T438 525Z" />
<glyph unicode="&#xb7;" glyph-name="middot" horiz-adv-x="190" d="M103 320Q87 320 79 329T71 353Q71 376 90 395T133 414Q150 414 157 405T165 381Q165 356 146 338T103 320Z" />
<glyph unicode="&#xb8;" glyph-name="cedilla" horiz-adv-x="134" d="M80 -60Q118 -68 139 -91T161 -146Q161 -179 137 -207T69 -235Q21 -235 -6 -200L4 -187Q30 -203 55 -203Q78 -203 91 -191T105 -161Q105 -142 88 -126T37 -104L72 13H101L80 -60Z" />
<glyph unicode="&#xb9;" glyph-name="uni00B9" horiz-adv-x="287" d="M56 370V391Q92 392 103 398T116 435L132 665L80 625L64 645L176 733H200Q196 712 194 691L177 435Q175 405 184 399T231 391V370H56Z" />
<glyph unicode="&#xba;" glyph-name="ordmasculine" horiz-adv-x="276" d="M97 361Q62 361 43 383T24 446Q24 489 46 529T103 595T178 621Q213 621 232 599T252 535Q252 493 230 453T172 387T97 361ZM117 388Q141 388 160 406T190 454T202 519Q202 548 192 571T158
594Q134 594 115 576T85 527T74 462Q74 432 84 410T117 388Z" />
<glyph unicode="&#xbb;" glyph-name="guillemotright" horiz-adv-x="346" d="M147 78L131 94L248 235Q253 240 256 246T260 260Q260 267 257 273T251 283L154 424L172 440L326 270V248L147 78ZM48 118L33 134L107 235Q111 241 114 247T117 261Q117 273 110 283L50
384L68 400L168 270V248L48 118Z" />
<glyph unicode="&#xbc;" glyph-name="onequarter" horiz-adv-x="672" d="M308 566V587Q344 588 355 594T368 631L384 861L332 821L316 841L428 929H452Q448 908 446 887L429 631Q427 601 436 595T483 587V566H308ZM167 -25L137 -10L584 690L614 675L167 -25ZM517
0Q520 21 522 38T526 80H348L349 93Q363 106 377 123L556 335Q563 343 568 350T577 363H602L584 128H626L623 80H596Q587 80 584 74T579 57Q576 29 576 0H517ZM413 128H530L540 278H538L413 128Z" />
<glyph unicode="&#xbd;" glyph-name="onehalf" horiz-adv-x="711" d="M308 566V587Q344 588 355 594T368 631L384 861L332 821L316 841L428 929H452Q448 908 446 887L429 631Q427 601 436 595T483 587V566H308ZM167 -25L137 -10L584 690L614 675L167 -25ZM412
0L413 13Q418 15 427 20T445 33Q537 102 571 160T606 261Q606 285 594 300T551 316Q521 316 498 301T452 256L441 265Q467 314 499 338T577 363Q621 363 644 341T668 279Q668 230 632 176T503 53V52H593Q624 52 636 64T652 100H673L662 0H412Z" />
<glyph unicode="&#xbe;" glyph-name="threequarters" horiz-adv-x="658" d="M379 557Q351 557 326 564T283 585Q287 599 294 610T310 630Q326 606 344 593T388 580Q428 580 448 606T468 666Q468 707 438 723T351 724L352 742Q414 764 438 789T463 842Q463 861
452 872T414 883Q366 883 325 839L315 848Q339 882 368 905T441 928Q478 928 500 910T522 860Q522 823 498 800T439 762V760Q460 760 481 751T516 724T530 676Q530 627 488 592T379 557ZM153 -25L123 -10L570 690L600 675L153 -25ZM503 0Q506 21 508 38T512 80H334L335
93Q349 106 363 123L542 335Q549 343 554 350T563 363H588L570 128H612L609 80H582Q573 80 570 74T565 57Q562 29 562 0H503ZM399 128H516L526 278H524L399 128Z" />
<glyph unicode="&#xbf;" glyph-name="questiondown" horiz-adv-x="310" d="M175 361Q159 361 151 370T143 394Q143 419 162 437T205 455Q222 455 229 446T237 422Q237 399 218 380T175 361ZM183 -240Q141 -240 104 -214T44 -145T20 -57Q20 -30 30 -12T62 25T123
74Q157 101 176 117T203 144T211 169Q211 198 182 210T111 220V245Q151 248 185 240T241 210T263 152Q263 114 236 86T152 15Q112 -15 91 -31T63 -58T55 -82Q55 -106 72 -127T116 -160T172 -173Q207 -173 220 -157T234 -125Q234 -117 231 -108T223 -86L244 -76Q255
-94 260 -113T266 -149Q266 -168 259 -189T233 -225T183 -240Z" />
<glyph unicode="&#xc0;" glyph-name="Agrave" horiz-adv-x="587" d="M489 100Q498 65 507 49T532 29T574 23V0H381V23Q405 24 415 28T425 49T416 100L371 283Q364 278 355 277T336 275H204Q184 275 173 271T153 248L87 100Q72 66 72 50T89 29T141 23V0H-27V23Q-15
24 -5 28T17 49T45 100L263 586Q275 612 286 637T307 688H350Q355 662 360 637T372 586L489 100ZM341 305Q354 305 359 309T360 330L301 576H299L177 302Q183 304 190 304T204 305H341ZM267 869Q287 835 311 803T378 745L368 725Q313 745 270 775T199 841Q208 855
228 862T267 869Z" />
<glyph unicode="&#xc1;" glyph-name="Aacute" horiz-adv-x="587" d="M489 100Q498 65 507 49T532 29T574 23V0H381V23Q405 24 415 28T425 49T416 100L371 283Q364 278 355 277T336 275H204Q184 275 173 271T153 248L87 100Q72 66 72 50T89 29T141 23V0H-27V23Q-15
24 -5 28T17 49T45 100L263 586Q275 612 286 637T307 688H350Q355 662 360 637T372 586L489 100ZM341 305Q354 305 359 309T360 330L301 576H299L177 302Q183 304 190 304T204 305H341ZM391 869Q410 870 429 863T458 841Q430 806 388 776T289 725L279 745Q321 771
346 803T391 869Z" />
<glyph unicode="&#xc2;" glyph-name="Acircumflex" horiz-adv-x="587" d="M489 100Q498 65 507 49T532 29T574 23V0H381V23Q405 24 415 28T425 49T416 100L371 283Q364 278 355 277T336 275H204Q184 275 173 271T153 248L87 100Q72 66 72 50T89 29T141 23V0H-27V23Q-15
24 -5 28T17 49T45 100L263 586Q275 612 286 637T307 688H350Q355 662 360 637T372 586L489 100ZM341 305Q354 305 359 309T360 330L301 576H299L177 302Q183 304 190 304T204 305H341ZM442 725Q388 748 335 795Q307 773 280 755T226 725L207 734Q278 799 343 879H345Q373
839 401 803T461 734L442 725Z" />
<glyph unicode="&#xc3;" glyph-name="Atilde" horiz-adv-x="587" d="M489 100Q498 65 507 49T532 29T574 23V0H381V23Q405 24 415 28T425 49T416 100L371 283Q364 278 355 277T336 275H204Q184 275 173 271T153 248L87 100Q72 66 72 50T89 29T141 23V0H-27V23Q-15
24 -5 28T17 49T45 100L263 586Q275 612 286 637T307 688H350Q355 662 360 637T372 586L489 100ZM341 305Q354 305 359 309T360 330L301 576H299L177 302Q183 304 190 304T204 305H341ZM264 794Q243 794 227 781T196 735L174 740Q196 802 224 825T286 849Q316 849
339 835T382 805T425 790Q446 790 462 804T493 849L515 844Q493 782 465 759T403 735Q373 735 350 750T307 779T264 794Z" />
<glyph unicode="&#xc4;" glyph-name="Adieresis" horiz-adv-x="587" d="M489 100Q498 65 507 49T532 29T574 23V0H381V23Q405 24 415 28T425 49T416 100L371 283Q364 278 355 277T336 275H204Q184 275 173 271T153 248L87 100Q72 66 72 50T89 29T141 23V0H-27V23Q-15
24 -5 28T17 49T45 100L263 586Q275 612 286 637T307 688H350Q355 662 360 637T372 586L489 100ZM341 305Q354 305 359 309T360 330L301 576H299L177 302Q183 304 190 304T204 305H341ZM240 749Q221 749 210 761T198 791Q198 811 212 825T246 839Q264 839 276 827T288
797Q288 777 274 763T240 749ZM422 749Q403 749 392 761T380 791Q380 811 394 825T428 839Q447 839 458 827T470 797Q470 777 456 763T422 749Z" />
<glyph unicode="&#xc5;" glyph-name="Aring" horiz-adv-x="587" d="M489 100Q498 65 507 49T532 29T574 23V0H381V23Q405 24 415 28T425 49T416 100L371 283Q364 278 355 277T336 275H204Q184 275 173 271T153 248L87 100Q72 66 72 50T89 29T141 23V0H-27V23Q-15
24 -5 28T17 49T45 100L263 586Q275 612 286 637T307 688H350Q355 662 360 637T372 586L489 100ZM341 305Q354 305 359 309T360 330L301 576H299L177 302Q183 304 190 304T204 305H341ZM325 663Q287 663 260 688T232 751Q232 779 247 803T287 842T342 857Q380 857
407 833T435 769Q435 741 420 717T380 678T325 663ZM326 691Q344 691 362 709T381 769Q381 804 368 816T341 829Q322 829 304 811T286 752Q286 718 299 705T326 691Z" />
<glyph unicode="&#xc6;" glyph-name="AE" horiz-adv-x="818" d="M772 155H795L776 0H324V23Q343 24 352 28T366 49T373 100L385 282Q378 278 369 277T350 275H258Q217 275 198 245L104 100Q82 66 81 50T96 29T148 23V0H-27V23Q-15 24 -5 29T19 50T55 100L394 620Q383
634 363 637T314 642V665H752L743 525H720Q720 560 714 584T685 622T614 635H524Q505 635 495 631T481 613T475 565L463 378Q471 384 483 386T510 388H625Q685 388 693 455H716L704 285H681Q681 329 671 343T625 358H510Q482 358 471 349T458 311L443 100Q441 68
446 53T467 34T514 30H628Q678 30 707 46T752 91T772 155ZM388 329L405 565H403L235 302Q241 304 248 304T262 305H359Q373 305 380 309T388 329Z" />
<glyph unicode="&#xc7;" glyph-name="Ccedilla" horiz-adv-x="697" d="M360 -15Q297 -15 240 6T139 68T69 168T43 304Q43 376 68 443T142 564T266 648T440 680Q490 680 545 671T654 643L644 485H621Q621 532 602 563T553 612T488 639T419 647Q349 647 294 618T201
540T143 429T123 300Q123 212 155 149T242 52T364 18Q416 18 459 36T535 84T591 150T624 220H647L633 108Q625 100 604 81T548 39T467 1T360 -15ZM357 -60Q395 -68 416 -91T438 -146Q438 -179 414 -207T346 -235Q298 -235 271 -200L281 -187Q307 -203 332 -203Q355
-203 368 -191T382 -161Q382 -142 365 -126T314 -104L349 13H378L357 -60Z" />
<glyph unicode="&#xc8;" glyph-name="Egrave" horiz-adv-x="564" d="M40 0V23Q59 24 68 28T82 49T89 100L121 565Q124 600 119 615T97 636T50 642V665H498L489 525H466Q466 560 460 584T431 622T360 635H240Q221 635 211 631T198 613T191 565L178 378Q186 384
198 386T225 388H370Q430 388 438 455H461L449 285H426Q426 329 416 343T370 358H225Q197 358 186 349T173 311L160 100Q158 68 163 53T185 34T231 30H374Q424 30 453 46T498 91T518 155H541L522 0H40ZM249 869Q269 835 293 803T360 745L350 725Q295 745 252 775T181
841Q190 855 210 862T249 869Z" />
<glyph unicode="&#xc9;" glyph-name="Eacute" horiz-adv-x="564" d="M40 0V23Q59 24 68 28T82 49T89 100L121 565Q124 600 119 615T97 636T50 642V665H498L489 525H466Q466 560 460 584T431 622T360 635H240Q221 635 211 631T198 613T191 565L178 378Q186 384
198 386T225 388H370Q430 388 438 455H461L449 285H426Q426 329 416 343T370 358H225Q197 358 186 349T173 311L160 100Q158 68 163 53T185 34T231 30H374Q424 30 453 46T498 91T518 155H541L522 0H40ZM373 869Q392 870 411 863T440 841Q412 806 370 776T271 725L261
745Q303 771 328 803T373 869Z" />
<glyph unicode="&#xca;" glyph-name="Ecircumflex" horiz-adv-x="564" d="M40 0V23Q59 24 68 28T82 49T89 100L121 565Q124 600 119 615T97 636T50 642V665H498L489 525H466Q466 560 460 584T431 622T360 635H240Q221 635 211 631T198 613T191 565L178 378Q186
384 198 386T225 388H370Q430 388 438 455H461L449 285H426Q426 329 416 343T370 358H225Q197 358 186 349T173 311L160 100Q158 68 163 53T185 34T231 30H374Q424 30 453 46T498 91T518 155H541L522 0H40ZM424 725Q370 748 317 795Q289 773 262 755T208 725L189
734Q260 799 325 879H327Q355 839 383 803T443 734L424 725Z" />
<glyph unicode="&#xcb;" glyph-name="Edieresis" horiz-adv-x="564" d="M40 0V23Q59 24 68 28T82 49T89 100L121 565Q124 600 119 615T97 636T50 642V665H498L489 525H466Q466 560 460 584T431 622T360 635H240Q221 635 211 631T198 613T191 565L178 378Q186 384
198 386T225 388H370Q430 388 438 455H461L449 285H426Q426 329 416 343T370 358H225Q197 358 186 349T173 311L160 100Q158 68 163 53T185 34T231 30H374Q424 30 453 46T498 91T518 155H541L522 0H40ZM222 749Q203 749 192 761T180 791Q180 811 194 825T228 839Q246
839 258 827T270 797Q270 777 256 763T222 749ZM404 749Q385 749 374 761T362 791Q362 811 376 825T410 839Q429 839 440 827T452 797Q452 777 438 763T404 749Z" />
<glyph unicode="&#xcc;" glyph-name="Igrave" horiz-adv-x="284" d="M42 0V23Q61 24 70 28T84 49T91 100L123 565Q126 600 121 615T99 636T52 642V665H242V642Q223 641 214 636T200 616T193 565L161 100Q159 65 164 49T185 29T232 23V0H42ZM100 869Q120 835 144
803T211 745L201 725Q146 745 103 775T32 841Q41 855 61 862T100 869Z" />
<glyph unicode="&#xcd;" glyph-name="Iacute" horiz-adv-x="284" d="M42 0V23Q61 24 70 28T84 49T91 100L123 565Q126 600 121 615T99 636T52 642V665H242V642Q223 641 214 636T200 616T193 565L161 100Q159 65 164 49T185 29T232 23V0H42ZM224 869Q243 870 262
863T291 841Q263 806 221 776T122 725L112 745Q154 771 179 803T224 869Z" />
<glyph unicode="&#xce;" glyph-name="Icircumflex" horiz-adv-x="284" d="M42 0V23Q61 24 70 28T84 49T91 100L123 565Q126 600 121 615T99 636T52 642V665H242V642Q223 641 214 636T200 616T193 565L161 100Q159 65 164 49T185 29T232 23V0H42ZM275 725Q221 748
168 795Q140 773 113 755T59 725L40 734Q111 799 176 879H178Q206 839 234 803T294 734L275 725Z" />
<glyph unicode="&#xcf;" glyph-name="Idieresis" horiz-adv-x="284" d="M42 0V23Q61 24 70 28T84 49T91 100L123 565Q126 600 121 615T99 636T52 642V665H242V642Q223 641 214 636T200 616T193 565L161 100Q159 65 164 49T185 29T232 23V0H42ZM73 749Q54 749 43
761T31 791Q31 811 45 825T79 839Q97 839 109 827T121 797Q121 777 107 763T73 749ZM255 749Q236 749 225 761T213 791Q213 811 227 825T261 839Q280 839 291 827T303 797Q303 777 289 763T255 749Z" />
<glyph unicode="&#xd0;" glyph-name="Eth" horiz-adv-x="707" d="M40 0V23Q59 24 68 28T82 49T89 100L121 565Q124 600 119 615T97 636T50 642V665H129Q176 665 222 667T303 670Q417 670 498 634T622 532T665 372Q665 288 635 220T551 102T422 27T260 0H40ZM237
33Q413 33 499 122T585 368Q585 508 511 572T281 637Q229 637 212 623T191 565L159 100Q157 69 163 55T186 37T237 33ZM358 331H18V366H358V331Z" />
<glyph unicode="&#xd1;" glyph-name="Ntilde" horiz-adv-x="681" d="M564 -8Q551 15 533 41T487 104L159 537H157L129 100Q127 65 133 49T160 29T220 23V0H40V23Q59 24 68 28T82 49T89 100L121 565Q123 602 107 621T50 642V665H165Q179 639 196 614T230 565L565
123H567L594 565Q596 600 590 615T563 636T503 642V665H683V642Q664 641 655 636T641 616T634 565L601 100Q600 72 598 47T596 -8H564ZM307 794Q286 794 270 781T239 735L217 740Q239 802 267 825T329 849Q359 849 382 835T425 805T468 790Q489 790 505 804T536
849L558 844Q536 782 508 759T446 735Q416 735 393 750T350 779T307 794Z" />
<glyph unicode="&#xd2;" glyph-name="Ograve" horiz-adv-x="744" d="M403 680Q462 680 515 659T611 597T677 497T701 362Q701 275 670 206T587 87T471 12T341 -15Q282 -15 229 6T133 68T67 168T43 303Q43 390 74 459T157 578T273 653T403 680ZM345 18Q422 18 484
60T584 180T621 364Q621 499 561 573T399 647Q323 647 260 605T160 486T123 301Q123 166 183 92T345 18ZM344 869Q364 835 388 803T455 745L445 725Q390 745 347 775T276 841Q285 855 305 862T344 869Z" />
<glyph unicode="&#xd3;" glyph-name="Oacute" horiz-adv-x="744" d="M403 680Q462 680 515 659T611 597T677 497T701 362Q701 275 670 206T587 87T471 12T341 -15Q282 -15 229 6T133 68T67 168T43 303Q43 390 74 459T157 578T273 653T403 680ZM345 18Q422 18 484
60T584 180T621 364Q621 499 561 573T399 647Q323 647 260 605T160 486T123 301Q123 166 183 92T345 18ZM468 869Q487 870 506 863T535 841Q507 806 465 776T366 725L356 745Q398 771 423 803T468 869Z" />
<glyph unicode="&#xd4;" glyph-name="Ocircumflex" horiz-adv-x="744" d="M403 680Q462 680 515 659T611 597T677 497T701 362Q701 275 670 206T587 87T471 12T341 -15Q282 -15 229 6T133 68T67 168T43 303Q43 390 74 459T157 578T273 653T403 680ZM345 18Q422
18 484 60T584 180T621 364Q621 499 561 573T399 647Q323 647 260 605T160 486T123 301Q123 166 183 92T345 18ZM519 725Q465 748 412 795Q384 773 357 755T303 725L284 734Q355 799 420 879H422Q450 839 478 803T538 734L519 725Z" />
<glyph unicode="&#xd5;" glyph-name="Otilde" horiz-adv-x="744" d="M403 680Q462 680 515 659T611 597T677 497T701 362Q701 275 670 206T587 87T471 12T341 -15Q282 -15 229 6T133 68T67 168T43 303Q43 390 74 459T157 578T273 653T403 680ZM345 18Q422 18 484
60T584 180T621 364Q621 499 561 573T399 647Q323 647 260 605T160 486T123 301Q123 166 183 92T345 18ZM341 794Q320 794 304 781T273 735L251 740Q273 802 301 825T363 849Q393 849 416 835T459 805T502 790Q523 790 539 804T570 849L592 844Q570 782 542 759T480
735Q450 735 427 750T384 779T341 794Z" />
<glyph unicode="&#xd6;" glyph-name="Odieresis" horiz-adv-x="744" d="M403 680Q462 680 515 659T611 597T677 497T701 362Q701 275 670 206T587 87T471 12T341 -15Q282 -15 229 6T133 68T67 168T43 303Q43 390 74 459T157 578T273 653T403 680ZM345 18Q422 18
484 60T584 180T621 364Q621 499 561 573T399 647Q323 647 260 605T160 486T123 301Q123 166 183 92T345 18ZM317 749Q298 749 287 761T275 791Q275 811 289 825T323 839Q341 839 353 827T365 797Q365 777 351 763T317 749ZM499 749Q480 749 469 761T457 791Q457
811 471 825T505 839Q524 839 535 827T547 797Q547 777 533 763T499 749Z" />
<glyph unicode="&#xd7;" glyph-name="multiply" horiz-adv-x="540" d="M113 52L87 80L242 225L107 370L137 398L272 253L427 398L453 370L298 225L433 80L403 52L268 197L113 52Z" />
<glyph unicode="&#xd8;" glyph-name="Oslash" horiz-adv-x="744" d="M403 680Q486 680 555 639L595 696L622 677L583 621Q636 581 668 516T701 362Q701 275 670 206T587 87T471 12T341 -15Q247 -15 173 36L126 -31L99 -12L147 56Q100 96 72 158T43 303Q43 390
74 459T157 578T273 653T403 680ZM123 301Q123 237 137 187T177 100L530 604Q476 647 399 647Q323 647 260 605T160 486T123 301ZM345 18Q422 18 484 60T584 179T621 364Q621 435 604 489T554 580L200 74Q257 18 345 18Z" />
<glyph unicode="&#xd9;" glyph-name="Ugrave" horiz-adv-x="721" d="M246 -15Q155 -15 121 31T92 158L120 565Q123 600 118 615T96 636T50 642V665H239V642Q220 641 211 636T197 616T190 565L163 175Q161 137 168 104T197 50T264 30Q312 30 360 53T448 118T513
211T543 322L560 565Q563 600 558 615T536 636T489 642V665H674V642Q655 641 646 636T632 616T625 565L593 100Q591 65 596 49T617 29T664 23V0H534Q529 16 528 38T528 100L533 175H531Q500 117 454 74T355 8T246 -15ZM313 869Q333 835 357 803T424 745L414 725Q359
745 316 775T245 841Q254 855 274 862T313 869Z" />
<glyph unicode="&#xda;" glyph-name="Uacute" horiz-adv-x="721" d="M246 -15Q155 -15 121 31T92 158L120 565Q123 600 118 615T96 636T50 642V665H239V642Q220 641 211 636T197 616T190 565L163 175Q161 137 168 104T197 50T264 30Q312 30 360 53T448 118T513
211T543 322L560 565Q563 600 558 615T536 636T489 642V665H674V642Q655 641 646 636T632 616T625 565L593 100Q591 65 596 49T617 29T664 23V0H534Q529 16 528 38T528 100L533 175H531Q500 117 454 74T355 8T246 -15ZM437 869Q456 870 475 863T504 841Q476 806
434 776T335 725L325 745Q367 771 392 803T437 869Z" />
<glyph unicode="&#xdb;" glyph-name="Ucircumflex" horiz-adv-x="721" d="M246 -15Q155 -15 121 31T92 158L120 565Q123 600 118 615T96 636T50 642V665H239V642Q220 641 211 636T197 616T190 565L163 175Q161 137 168 104T197 50T264 30Q312 30 360 53T448 118T513
211T543 322L560 565Q563 600 558 615T536 636T489 642V665H674V642Q655 641 646 636T632 616T625 565L593 100Q591 65 596 49T617 29T664 23V0H534Q529 16 528 38T528 100L533 175H531Q500 117 454 74T355 8T246 -15ZM488 725Q434 748 381 795Q353 773 326 755T272
725L253 734Q324 799 389 879H391Q419 839 447 803T507 734L488 725Z" />
<glyph unicode="&#xdc;" glyph-name="Udieresis" horiz-adv-x="721" d="M246 -15Q155 -15 121 31T92 158L120 565Q123 600 118 615T96 636T50 642V665H239V642Q220 641 211 636T197 616T190 565L163 175Q161 137 168 104T197 50T264 30Q312 30 360 53T448 118T513
211T543 322L560 565Q563 600 558 615T536 636T489 642V665H674V642Q655 641 646 636T632 616T625 565L593 100Q591 65 596 49T617 29T664 23V0H534Q529 16 528 38T528 100L533 175H531Q500 117 454 74T355 8T246 -15ZM286 749Q267 749 256 761T244 791Q244 811
258 825T292 839Q310 839 322 827T334 797Q334 777 320 763T286 749ZM468 749Q449 749 438 761T426 791Q426 811 440 825T474 839Q493 839 504 827T516 797Q516 777 502 763T468 749Z" />
<glyph unicode="&#xdd;" glyph-name="Yacute" horiz-adv-x="516" d="M100 0V23Q134 24 152 28T179 49T189 100L202 287Q204 307 200 323T189 355L101 565Q87 600 75 615T47 636T5 642V665H200V642Q177 641 167 636T158 616T176 565L260 370H262L386 565Q408 600
410 615T397 636T345 642V665H513V642Q498 641 489 636T467 616T432 565L296 355Q286 339 280 327T272 287L259 100Q257 65 262 49T281 29T320 23V0H100ZM346 869Q365 870 384 863T413 841Q385 806 343 776T244 725L234 745Q276 771 301 803T346 869Z" />
<glyph unicode="&#xde;" glyph-name="Thorn" horiz-adv-x="525" d="M40 0V23Q59 24 68 28T82 49T89 100L121 565Q124 600 119 615T97 636T50 642V665H240V642Q221 641 211 636T197 616T191 565L188 507Q221 515 247 517T303 520Q392 520 447 488T502 378Q502 319
467 270T363 195T191 178L193 202Q277 195 327 216T399 278T422 369Q422 420 402 445T348 478T276 487Q221 487 203 473T181 415L159 100Q157 65 162 49T183 29T230 23V0H40Z" />
<glyph unicode="&#xdf;" glyph-name="germandbls" horiz-adv-x="521" d="M331 442Q331 419 346 397T383 352T427 301T464 239T479 160Q479 110 459 71T403 8T321 -15Q294 -15 266 -6T218 21T199 66Q199 92 218 111T263 153L279 137Q264 123 259 113T253 93Q253
69 276 52T340 35Q387 35 410 60T434 128Q434 166 419 195T381 250T336 300T298 353T282 418Q282 453 293 476T322 518T356 555T385 600T397 664Q397 678 394 694T382 722T352 734Q332 734 306 719T253 672T208 588T184 464L151 -15Q144 -127 107 -180T23 -235V-212Q58
-198 69 -149T88 0L116 410H46V440H118Q124 521 152 586T224 696T319 766T422 790Q444 769 453 740T462 682Q462 642 449 614T417 565T377 526T344 488T331 442Z" />
<glyph unicode="&#xe0;" glyph-name="agrave" horiz-adv-x="512" d="M129 -15Q82 -15 61 21T40 106Q40 149 55 197T98 290T159 373T232 433T307 455Q329 455 344 447T372 428L431 455Q415 307 409 216T403 98Q403 87 406 77T419 66Q429 66 445 77T480 108L497
92Q468 60 429 31T356 -15Q337 10 337 60Q337 92 340 121T350 203H348Q299 103 242 44T129 -15ZM159 50Q181 50 207 69T260 121T308 193T343 274T356 350Q356 366 352 383T336 413T300 425Q262 425 228 397T168 323T126 228T110 134Q110 95 121 73T159 50ZM262
734Q272 691 295 644T354 560L344 540Q299 569 258 615T195 706Q206 720 226 727T262 734Z" />
<glyph unicode="&#xe1;" glyph-name="aacute" horiz-adv-x="512" d="M129 -15Q82 -15 61 21T40 106Q40 149 55 197T98 290T159 373T232 433T307 455Q329 455 344 447T372 428L431 455Q415 307 409 216T403 98Q403 87 406 77T419 66Q429 66 445 77T480 108L497
92Q468 60 429 31T356 -15Q337 10 337 60Q337 92 340 121T350 203H348Q299 103 242 44T129 -15ZM159 50Q181 50 207 69T260 121T308 193T343 274T356 350Q356 366 352 383T336 413T300 425Q262 425 228 397T168 323T126 228T110 134Q110 95 121 73T159 50ZM366
734Q383 735 402 728T433 706Q412 661 371 615T284 540L274 560Q310 597 333 644T366 734Z" />
<glyph unicode="&#xe2;" glyph-name="acircumflex" horiz-adv-x="512" d="M129 -15Q82 -15 61 21T40 106Q40 149 55 197T98 290T159 373T232 433T307 455Q329 455 344 447T372 428L431 455Q415 307 409 216T403 98Q403 87 406 77T419 66Q429 66 445 77T480 108L497
92Q468 60 429 31T356 -15Q337 10 337 60Q337 92 340 121T350 203H348Q299 103 242 44T129 -15ZM159 50Q181 50 207 69T260 121T308 193T343 274T356 350Q356 366 352 383T336 413T300 425Q262 425 228 397T168 323T126 228T110 134Q110 95 121 73T159 50ZM426
520Q397 542 375 570T333 631Q302 598 274 570T210 520L193 529Q238 576 278 627T355 734H357Q391 621 447 529L426 520Z" />
<glyph unicode="&#xe3;" glyph-name="atilde" horiz-adv-x="512" d="M129 -15Q82 -15 61 21T40 106Q40 149 55 197T98 290T159 373T232 433T307 455Q329 455 344 447T372 428L431 455Q415 307 409 216T403 98Q403 87 406 77T419 66Q429 66 445 77T480 108L497
92Q468 60 429 31T356 -15Q337 10 337 60Q337 92 340 121T350 203H348Q299 103 242 44T129 -15ZM159 50Q181 50 207 69T260 121T308 193T343 274T356 350Q356 366 352 383T336 413T300 425Q262 425 228 397T168 323T126 228T110 134Q110 95 121 73T159 50ZM268
604Q247 604 232 591T204 545L182 550Q199 612 225 635T286 659Q309 659 325 650T353 630T379 609T409 600Q430 600 445 614T473 659L495 654Q478 592 452 569T391 545Q369 545 353 554T324 574T298 595T268 604Z" />
<glyph unicode="&#xe4;" glyph-name="adieresis" horiz-adv-x="512" d="M129 -15Q82 -15 61 21T40 106Q40 149 55 197T98 290T159 373T232 433T307 455Q329 455 344 447T372 428L431 455Q415 307 409 216T403 98Q403 87 406 77T419 66Q429 66 445 77T480 108L497
92Q468 60 429 31T356 -15Q337 10 337 60Q337 92 340 121T350 203H348Q299 103 242 44T129 -15ZM159 50Q181 50 207 69T260 121T308 193T343 274T356 350Q356 366 352 383T336 413T300 425Q262 425 228 397T168 323T126 228T110 134Q110 95 121 73T159 50ZM402
565Q386 565 379 574T372 596Q372 618 390 636T431 654Q446 654 453 645T461 623Q461 599 443 582T402 565ZM242 565Q226 565 219 574T212 596Q212 618 230 636T271 654Q286 654 293 645T301 623Q301 599 283 582T242 565Z" />
<glyph unicode="&#xe5;" glyph-name="aring" horiz-adv-x="512" d="M129 -15Q82 -15 61 21T40 106Q40 149 55 197T98 290T159 373T232 433T307 455Q329 455 344 447T372 428L431 455Q415 307 409 216T403 98Q403 87 406 77T419 66Q429 66 445 77T480 108L497 92Q468
60 429 31T356 -15Q337 10 337 60Q337 92 340 121T350 203H348Q299 103 242 44T129 -15ZM159 50Q181 50 207 69T260 121T308 193T343 274T356 350Q356 366 352 383T336 413T300 425Q262 425 228 397T168 323T126 228T110 134Q110 95 121 73T159 50ZM312 518Q281
518 264 537T246 588Q246 620 263 648T307 694T364 712Q396 712 412 692T429 641Q429 608 413 580T369 535T312 518ZM315 544Q332 544 348 558T374 597T385 648Q385 686 360 686Q343 686 327 672T300 634T290 582Q290 544 315 544Z" />
<glyph unicode="&#xe6;" glyph-name="ae" horiz-adv-x="637" d="M128 -15Q97 -15 78 2T49 48T40 108Q40 151 55 199T95 292T154 374T224 433T298 455Q320 455 335 447T363 428L422 455L404 377H406Q438 413 476 434T551 455Q590 455 602 436T615 389Q615 324 547
264T367 135Q372 94 391 72T440 50Q480 50 512 74T575 142L596 134Q574 95 544 61T480 6T410 -15Q369 -15 340 18T310 129Q310 135 310 140Q268 68 221 27T128 -15ZM156 50Q178 50 204 69T255 121T302 192T336 271T349 347Q349 364 345 382T328 412T290 425Q253
425 221 397T163 325T124 230T110 133Q110 99 120 75T156 50ZM516 415Q493 415 467 393T417 335T380 254T365 163Q461 223 501 277T542 374Q542 397 536 406T516 415Z" />
<glyph unicode="&#xe7;" glyph-name="ccedilla" horiz-adv-x="390" d="M150 -15Q121 -15 96 -1T55 46T39 130Q39 193 61 251T121 355T202 428T290 455Q321 455 343 442T382 405L315 289L294 297Q316 343 316 370T304 408T270 420Q238 420 209 397T158 336T122
252T109 161Q109 108 128 79T183 50Q215 50 256 75T340 160L361 152Q313 68 257 27T150 -15ZM138 -60Q176 -68 197 -91T219 -146Q219 -179 195 -207T127 -235Q79 -235 52 -200L62 -187Q88 -203 113 -203Q136 -203 149 -191T163 -161Q163 -142 146 -126T95 -104L130
13H159L138 -60Z" />
<glyph unicode="&#xe8;" glyph-name="egrave" horiz-adv-x="397" d="M160 -15Q133 -15 105 -1T59 46T40 134Q40 194 63 251T124 354T208 428T301 455Q346 455 360 437T375 393Q375 347 341 307T247 225T109 136Q116 93 138 72T190 50Q230 50 267 74T335 142L356
134Q334 95 302 61T233 6T160 -15ZM107 166Q107 164 107 165Q300 285 300 378Q300 398 291 406T266 415Q239 415 211 393T160 335T122 254T107 166ZM199 734Q209 691 232 644T291 560L281 540Q236 569 195 615T132 706Q143 720 163 727T199 734Z" />
<glyph unicode="&#xe9;" glyph-name="eacute" horiz-adv-x="397" d="M160 -15Q133 -15 105 -1T59 46T40 134Q40 194 63 251T124 354T208 428T301 455Q346 455 360 437T375 393Q375 347 341 307T247 225T109 136Q116 93 138 72T190 50Q230 50 267 74T335 142L356
134Q334 95 302 61T233 6T160 -15ZM107 166Q107 164 107 165Q300 285 300 378Q300 398 291 406T266 415Q239 415 211 393T160 335T122 254T107 166ZM303 734Q320 735 339 728T370 706Q349 661 308 615T221 540L211 560Q247 597 270 644T303 734Z" />
<glyph unicode="&#xea;" glyph-name="ecircumflex" horiz-adv-x="397" d="M160 -15Q133 -15 105 -1T59 46T40 134Q40 194 63 251T124 354T208 428T301 455Q346 455 360 437T375 393Q375 347 341 307T247 225T109 136Q116 93 138 72T190 50Q230 50 267 74T335 142L356
134Q334 95 302 61T233 6T160 -15ZM107 166Q107 164 107 165Q300 285 300 378Q300 398 291 406T266 415Q239 415 211 393T160 335T122 254T107 166ZM363 520Q334 542 312 570T270 631Q239 598 211 570T147 520L130 529Q175 576 215 627T292 734H294Q328 621 384
529L363 520Z" />
<glyph unicode="&#xeb;" glyph-name="edieresis" horiz-adv-x="397" d="M160 -15Q133 -15 105 -1T59 46T40 134Q40 194 63 251T124 354T208 428T301 455Q346 455 360 437T375 393Q375 347 341 307T247 225T109 136Q116 93 138 72T190 50Q230 50 267 74T335 142L356
134Q334 95 302 61T233 6T160 -15ZM107 166Q107 164 107 165Q300 285 300 378Q300 398 291 406T266 415Q239 415 211 393T160 335T122 254T107 166ZM339 565Q323 565 316 574T309 596Q309 618 327 636T368 654Q383 654 390 645T398 623Q398 599 380 582T339 565ZM179
565Q163 565 156 574T149 596Q149 618 167 636T208 654Q223 654 230 645T238 623Q238 599 220 582T179 565Z" />
<glyph unicode="&#xec;" glyph-name="igrave" horiz-adv-x="288" d="M121 -15Q101 11 101 64Q101 90 104 129T113 210T121 287T125 341Q125 361 116 361Q106 361 79 340T26 291L10 307Q28 329 58 359T121 416T178 455Q184 442 187 422T190 376Q190 354 187 317T178
238T170 159T166 99Q166 88 169 77T183 66Q205 66 259 125L275 109Q258 87 231 63T175 18T121 -15ZM108 990Q118 947 141 900T200 816L190 796Q145 825 104 871T41 962Q52 976 72 983T108 990Z" />
<glyph unicode="&#xed;" glyph-name="iacute" horiz-adv-x="288" d="M121 -15Q101 11 101 64Q101 90 104 129T113 210T121 287T125 341Q125 361 116 361Q106 361 79 340T26 291L10 307Q28 329 58 359T121 416T178 455Q184 442 187 422T190 376Q190 354 187 317T178
238T170 159T166 99Q166 88 169 77T183 66Q205 66 259 125L275 109Q258 87 231 63T175 18T121 -15ZM212 990Q229 991 248 984T279 962Q258 917 217 871T130 796L120 816Q156 853 179 900T212 990Z" />
<glyph unicode="&#xee;" glyph-name="icircumflex" horiz-adv-x="288" d="M121 -15Q101 11 101 64Q101 90 104 129T113 210T121 287T125 341Q125 361 116 361Q106 361 79 340T26 291L10 307Q28 329 58 359T121 416T178 455Q184 442 187 422T190 376Q190 354 187
317T178 238T170 159T166 99Q166 88 169 77T183 66Q205 66 259 125L275 109Q258 87 231 63T175 18T121 -15ZM272 776Q243 798 221 826T179 887Q148 854 120 826T56 776L39 785Q84 832 124 883T201 990H203Q237 877 293 785L272 776Z" />
<glyph unicode="&#xef;" glyph-name="idieresis" horiz-adv-x="288" d="M121 -15Q101 11 101 64Q101 90 104 129T113 210T121 287T125 341Q125 361 116 361Q106 361 79 340T26 291L10 307Q28 329 58 359T121 416T178 455Q184 442 187 422T190 376Q190 354 187
317T178 238T170 159T166 99Q166 88 169 77T183 66Q205 66 259 125L275 109Q258 87 231 63T175 18T121 -15ZM248 821Q232 821 225 830T218 852Q218 874 236 892T277 910Q292 910 299 901T307 879Q307 855 289 838T248 821ZM88 821Q72 821 65 830T58 852Q58 874
76 892T117 910Q132 910 139 901T147 879Q147 855 129 838T88 821Z" />
<glyph unicode="&#xf0;" glyph-name="eth" horiz-adv-x="458" d="M129 790Q162 777 190 761T243 724L313 790L332 771L263 707Q322 653 356 585T404 447T418 317Q418 227 394 164T331 61T251 4T174 -15Q119 -15 80 23T40 136Q40 192 60 244T117 337T199 401T295
425Q314 425 327 422T347 414H349Q343 475 316 547T234 679L160 610L141 629L215 698Q195 718 171 735T119 765L129 790ZM266 385Q224 385 189 356T132 279T110 171Q110 111 134 73T203 35Q243 35 280 64T341 143T365 251Q365 309 340 347T266 385Z" />
<glyph unicode="&#xf1;" glyph-name="ntilde" horiz-adv-x="509" d="M76 -15Q78 6 82 43T90 126T98 214T104 292T107 341Q107 361 98 361Q84 361 49 323L33 339Q59 371 92 403T160 455Q166 442 169 422T172 376Q172 337 167 298T154 208H156Q195 278 237 331T318
416T389 455Q403 444 410 423T417 376Q417 354 414 317T405 238T397 159T393 99Q393 88 396 77T410 66Q420 66 435 77T470 108L487 92Q459 60 420 31T348 -15Q328 11 328 64Q328 90 331 129T340 210T348 287T352 341Q352 362 349 370T338 379Q322 379 292 348T226
264Q193 215 167 152T141 0Q108 -3 76 -15ZM242 604Q221 604 206 591T178 545L156 550Q173 612 199 635T260 659Q283 659 299 650T327 630T353 609T383 600Q404 600 419 614T447 659L469 654Q452 592 426 569T365 545Q343 545 327 554T298 574T272 595T242 604Z"
/>
<glyph unicode="&#xf2;" glyph-name="ograve" horiz-adv-x="464" d="M164 -15Q113 -15 77 22T40 137Q40 197 63 254T123 356T207 428T299 455Q352 455 388 417T424 302Q424 241 401 184T339 82T255 11T164 -15ZM202 35Q243 35 278 66T334 150T354 263Q354 302
344 334T314 385T261 405Q220 405 186 373T131 290T110 177Q110 112 134 74T202 35ZM220 734Q230 691 253 644T312 560L302 540Q257 569 216 615T153 706Q164 720 184 727T220 734Z" />
<glyph unicode="&#xf3;" glyph-name="oacute" horiz-adv-x="464" d="M164 -15Q113 -15 77 22T40 137Q40 197 63 254T123 356T207 428T299 455Q352 455 388 417T424 302Q424 241 401 184T339 82T255 11T164 -15ZM202 35Q243 35 278 66T334 150T354 263Q354 302
344 334T314 385T261 405Q220 405 186 373T131 290T110 177Q110 112 134 74T202 35ZM324 734Q341 735 360 728T391 706Q370 661 329 615T242 540L232 560Q268 597 291 644T324 734Z" />
<glyph unicode="&#xf4;" glyph-name="ocircumflex" horiz-adv-x="464" d="M164 -15Q113 -15 77 22T40 137Q40 197 63 254T123 356T207 428T299 455Q352 455 388 417T424 302Q424 241 401 184T339 82T255 11T164 -15ZM202 35Q243 35 278 66T334 150T354 263Q354
302 344 334T314 385T261 405Q220 405 186 373T131 290T110 177Q110 112 134 74T202 35ZM384 520Q355 542 333 570T291 631Q260 598 232 570T168 520L151 529Q196 576 236 627T313 734H315Q349 621 405 529L384 520Z" />
<glyph unicode="&#xf5;" glyph-name="otilde" horiz-adv-x="464" d="M164 -15Q113 -15 77 22T40 137Q40 197 63 254T123 356T207 428T299 455Q352 455 388 417T424 302Q424 241 401 184T339 82T255 11T164 -15ZM202 35Q243 35 278 66T334 150T354 263Q354 302
344 334T314 385T261 405Q220 405 186 373T131 290T110 177Q110 112 134 74T202 35ZM226 604Q205 604 190 591T162 545L140 550Q157 612 183 635T244 659Q267 659 283 650T311 630T337 609T367 600Q388 600 403 614T431 659L453 654Q436 592 410 569T349 545Q327
545 311 554T282 574T256 595T226 604Z" />
<glyph unicode="&#xf6;" glyph-name="odieresis" horiz-adv-x="464" d="M164 -15Q113 -15 77 22T40 137Q40 197 63 254T123 356T207 428T299 455Q352 455 388 417T424 302Q424 241 401 184T339 82T255 11T164 -15ZM202 35Q243 35 278 66T334 150T354 263Q354 302
344 334T314 385T261 405Q220 405 186 373T131 290T110 177Q110 112 134 74T202 35ZM360 565Q344 565 337 574T330 596Q330 618 348 636T389 654Q404 654 411 645T419 623Q419 599 401 582T360 565ZM200 565Q184 565 177 574T170 596Q170 618 188 636T229 654Q244
654 251 645T259 623Q259 599 241 582T200 565Z" />
<glyph unicode="&#xf7;" glyph-name="divide" horiz-adv-x="550" d="M282 310Q263 310 252 322T240 352Q240 372 254 386T288 400Q306 400 318 388T330 358Q330 338 316 324T282 310ZM99 205L101 245H451L449 205H99ZM262 50Q243 50 232 62T220 92Q220 112 234
126T268 140Q286 140 298 128T310 98Q310 78 296 64T262 50Z" />
<glyph unicode="&#xf8;" glyph-name="oslash" horiz-adv-x="465" d="M164 -15Q132 -15 106 -1L70 -52L43 -33L80 19Q61 38 51 67T40 137Q40 197 63 254T123 356T207 428T299 455Q340 455 370 433L411 492L438 473L394 410Q408 391 416 364T424 302Q424 241 401
184T339 82T255 11T164 -15ZM110 177Q110 122 127 86L326 371Q315 387 299 396T261 405Q220 405 186 373T131 290T110 177ZM202 35Q243 35 278 66T334 150T354 263Q353 306 343 337L147 57Q169 35 202 35Z" />
<glyph unicode="&#xf9;" glyph-name="ugrave" horiz-adv-x="497" d="M118 -15Q83 11 83 64Q83 90 86 129T95 210T103 287T107 341Q107 361 98 361Q84 361 49 323L33 339Q59 371 92 403T160 455Q166 442 169 422T172 376Q172 354 169 317T160 238T152 159T148 99Q148
78 151 70T162 61Q178 61 204 92T265 176Q297 226 322 289T347 440Q379 452 412 455Q410 434 406 397T398 314T390 226T384 148T381 99Q381 88 384 77T398 66Q408 66 423 77T458 108L475 92Q447 60 408 31T336 -15Q316 11 316 64Q316 103 321 142T334 233H332Q278
128 222 66T118 -15ZM210 734Q220 691 243 644T302 560L292 540Q247 569 206 615T143 706Q154 720 174 727T210 734Z" />
<glyph unicode="&#xfa;" glyph-name="uacute" horiz-adv-x="497" d="M118 -15Q83 11 83 64Q83 90 86 129T95 210T103 287T107 341Q107 361 98 361Q84 361 49 323L33 339Q59 371 92 403T160 455Q166 442 169 422T172 376Q172 354 169 317T160 238T152 159T148 99Q148
78 151 70T162 61Q178 61 204 92T265 176Q297 226 322 289T347 440Q379 452 412 455Q410 434 406 397T398 314T390 226T384 148T381 99Q381 88 384 77T398 66Q408 66 423 77T458 108L475 92Q447 60 408 31T336 -15Q316 11 316 64Q316 103 321 142T334 233H332Q278
128 222 66T118 -15ZM314 734Q331 735 350 728T381 706Q360 661 319 615T232 540L222 560Q258 597 281 644T314 734Z" />
<glyph unicode="&#xfb;" glyph-name="ucircumflex" horiz-adv-x="497" d="M118 -15Q83 11 83 64Q83 90 86 129T95 210T103 287T107 341Q107 361 98 361Q84 361 49 323L33 339Q59 371 92 403T160 455Q166 442 169 422T172 376Q172 354 169 317T160 238T152 159T148
99Q148 78 151 70T162 61Q178 61 204 92T265 176Q297 226 322 289T347 440Q379 452 412 455Q410 434 406 397T398 314T390 226T384 148T381 99Q381 88 384 77T398 66Q408 66 423 77T458 108L475 92Q447 60 408 31T336 -15Q316 11 316 64Q316 103 321 142T334 233H332Q278
128 222 66T118 -15ZM374 520Q345 542 323 570T281 631Q250 598 222 570T158 520L141 529Q186 576 226 627T303 734H305Q339 621 395 529L374 520Z" />
<glyph unicode="&#xfc;" glyph-name="udieresis" horiz-adv-x="497" d="M118 -15Q83 11 83 64Q83 90 86 129T95 210T103 287T107 341Q107 361 98 361Q84 361 49 323L33 339Q59 371 92 403T160 455Q166 442 169 422T172 376Q172 354 169 317T160 238T152 159T148
99Q148 78 151 70T162 61Q178 61 204 92T265 176Q297 226 322 289T347 440Q379 452 412 455Q410 434 406 397T398 314T390 226T384 148T381 99Q381 88 384 77T398 66Q408 66 423 77T458 108L475 92Q447 60 408 31T336 -15Q316 11 316 64Q316 103 321 142T334 233H332Q278
128 222 66T118 -15ZM350 565Q334 565 327 574T320 596Q320 618 338 636T379 654Q394 654 401 645T409 623Q409 599 391 582T350 565ZM190 565Q174 565 167 574T160 596Q160 618 178 636T219 654Q234 654 241 645T249 623Q249 599 231 582T190 565Z" />
<glyph unicode="&#xfd;" glyph-name="yacute" horiz-adv-x="395" d="M30 -235Q10 -235 4 -207T1 -138T14 -58H37Q34 -103 37 -131T60 -160Q74 -160 93 -145T132 -104T164 -46T177 22Q177 51 170 94T153 176Q141 225 127 264T100 327T76 351Q67 351 54 336T28 297L9
308Q28 346 52 386T105 455Q126 436 147 392T187 292T218 178T235 75H237Q281 165 300 258T297 439Q314 447 335 451T375 455Q381 412 371 355T339 232T286 100T221 -26T151 -133T85 -207T30 -235ZM271 734Q288 735 307 728T338 706Q317 661 276 615T189 540L179
560Q215 597 238 644T271 734Z" />
<glyph unicode="&#xfe;" glyph-name="thorn" horiz-adv-x="493" d="M353 455Q399 455 426 420T454 322Q454 267 433 208T377 99T297 17T207 -15Q186 -15 166 -8T132 15Q125 -46 120 -111T112 -225Q78 -231 47 -240Q54 -177 61 -93T77 84T92 269T105 444T114 587T118
676Q118 696 109 696Q99 696 80 677T35 628L18 644Q36 667 62 696T117 752T171 790Q177 777 180 757T183 711Q183 676 180 625T173 516T163 400T153 290H155Q193 361 246 408T353 455ZM213 15Q249 15 280 41T334 109T371 201T384 295Q384 338 370 366T324 395Q295
395 263 372T204 310T159 223T141 124Q141 97 147 72T170 31T213 15Z" />
<glyph unicode="&#xff;" glyph-name="ydieresis" horiz-adv-x="395" d="M30 -235Q10 -235 4 -207T1 -138T14 -58H37Q34 -103 37 -131T60 -160Q74 -160 93 -145T132 -104T164 -46T177 22Q177 51 170 94T153 176Q141 225 127 264T100 327T76 351Q67 351 54 336T28
297L9 308Q28 346 52 386T105 455Q126 436 147 392T187 292T218 178T235 75H237Q281 165 300 258T297 439Q314 447 335 451T375 455Q381 412 371 355T339 232T286 100T221 -26T151 -133T85 -207T30 -235ZM307 821Q291 821 284 830T277 852Q277 874 295 892T336
910Q351 910 358 901T366 879Q366 855 348 838T307 821ZM147 821Q131 821 124 830T117 852Q117 874 135 892T176 910Q191 910 198 901T206 879Q206 855 188 838T147 821Z" />
<glyph unicode="&#x2013;" glyph-name="endash" horiz-adv-x="500" d="M500 225H0V265H500V225Z" />
<glyph unicode="&#x2014;" glyph-name="emdash" horiz-adv-x="825" d="M825 225H0V265H825V225Z" />
<glyph unicode="&#x2018;" glyph-name="quoteleft" horiz-adv-x="175" d="M58 438Q51 455 49 470T47 499Q47 548 64 587T107 651T158 680V657Q136 641 123 605T110 534Q110 521 112 506T121 478Q113 466 95 454T58 438Z" />
<glyph unicode="&#x2019;" glyph-name="quoteright" horiz-adv-x="176" d="M65 438V461Q87 478 100 514T113 584Q113 597 111 612T102 640Q110 652 128 664T165 680Q172 664 174 648T176 619Q176 571 159 531T116 467T65 438Z" />
<glyph unicode="&#x201a;" glyph-name="quotesinglbase" horiz-adv-x="176" d="M15 -152V-129Q37 -112 50 -76T63 -6Q63 7 61 22T52 50Q60 62 78 74T115 90Q122 74 124 58T126 29Q126 -19 109 -59T66 -123T15 -152Z" />
<glyph unicode="&#x201c;" glyph-name="quotedblleft" horiz-adv-x="327" d="M210 438Q203 455 201 470T199 499Q199 548 216 587T259 651T310 680V657Q288 641 275 605T262 534Q262 521 264 506T273 478Q265 466 247 454T210 438ZM65 438Q58 455 56 470T54 499Q54
548 71 587T114 651T165 680V657Q143 641 130 605T117 534Q117 521 119 506T128 478Q120 466 102 454T65 438Z" />
<glyph unicode="&#x201d;" glyph-name="quotedblright" horiz-adv-x="321" d="M210 438V461Q232 478 245 514T258 584Q258 597 256 612T247 640Q255 652 273 664T310 680Q317 664 319 648T321 619Q321 571 304 531T261 467T210 438ZM65 438V461Q87 478 100 514T113
584Q113 597 111 612T102 640Q110 652 128 664T165 680Q172 664 174 648T176 619Q176 571 159 531T116 467T65 438Z" />
<glyph unicode="&#x201e;" glyph-name="quotedblbase" horiz-adv-x="321" d="M160 -152V-129Q182 -112 195 -76T208 -6Q208 7 206 22T197 50Q205 62 223 74T260 90Q267 74 269 58T271 29Q271 -19 254 -59T211 -123T160 -152ZM15 -152V-129Q37 -112 50 -76T63 -6Q63
7 61 22T52 50Q60 62 78 74T115 90Q122 74 124 58T126 29Q126 -19 109 -59T66 -123T15 -152Z" />
<glyph unicode="&#x2022;" glyph-name="bullet" horiz-adv-x="273" d="M142 290Q104 290 80 315T56 376Q56 417 84 445T154 473Q190 473 214 449T239 387Q239 347 210 319T142 290Z" />
<glyph unicode="&#x2039;" glyph-name="guilsinglleft" horiz-adv-x="247" d="M175 78L25 248V270L207 440L222 424L103 283Q99 278 95 272T91 257Q91 250 93 245T99 235L194 94L175 78Z" />
<glyph unicode="&#x203a;" glyph-name="guilsinglright" horiz-adv-x="247" d="M46 78L30 94L149 235Q154 240 158 246T162 261Q162 267 159 273T153 283L59 424L77 440L227 270V248L46 78Z" />
</font>
</defs>
</svg>
