<svg width="24" height="24" viewBox="0 0 24 24" fill="none" xmlns="http://www.w3.org/2000/svg">
<path d="M12 19.5938C11.2031 19.5938 10.4531 19.3594 9.79688 18.8906L0 11.7656V21.75C0 23.0156 0.984375 24 2.25 24H21.75C22.9688 24 24 23.0156 24 21.75V11.7656L14.1562 18.8906C13.5 19.3594 12.75 19.5938 12 19.5938ZM23.1094 7.6875C22.6875 7.35938 22.3125 7.03125 21.75 6.60938V4.54688C21.75 3.28125 20.7188 2.29688 19.5 2.29688H15.8438C15.7031 2.15625 15.5625 2.0625 15.4219 1.96875C14.625 1.40625 13.0781 0 12 0.046875C10.875 0 9.32812 1.40625 8.53125 1.96875C8.39062 2.0625 8.25 2.15625 8.10938 2.29688H4.5C3.23438 2.29688 2.25 3.28125 2.25 4.54688V6.60938C1.64062 7.03125 1.26562 7.35938 0.84375 7.6875C0.28125 8.10938 0 8.76562 0 9.42188V9.9375L4.5 13.1719V4.54688H19.5V13.1719L24 9.9375V9.42188C24 8.76562 23.6719 8.10938 23.1094 7.6875ZM8.25 12H15.75C16.125 12 16.5 11.6719 16.5 11.25C16.5 10.875 16.125 10.5 15.75 10.5H8.25C7.82812 10.5 7.5 10.875 7.5 11.25C7.5 11.6719 7.82812 12 8.25 12ZM8.25 9H15.75C16.125 9 16.5 8.67188 16.5 8.25C16.5 7.875 16.125 7.5 15.75 7.5H8.25C7.82812 7.5 7.5 7.875 7.5 8.25C7.5 8.67188 7.82812 9 8.25 9Z" fill="#204ECF"/>
</svg>
